<?xml version="1.0" encoding="utf-8"?>
<!-- Generator: Adobe Illustrator 22.0.1, SVG Export Plug-In . SVG Version: 6.00 Build 0)  -->
<svg version="1.1" id="Layer_1" xmlns="http://www.w3.org/2000/svg" xmlns:xlink="http://www.w3.org/1999/xlink" x="0px" y="0px"
	 viewBox="0 0 863.4 304.6" style="enable-background:new 0 0 863.4 304.6;" xml:space="preserve">
<style type="text/css">
	.st0{fill:#EA0029;}
	.st1{fill:#D1D3D4;}
	.st2{fill:#008EDB;}
	.st3{fill:none;}
	.st4{fill:#002D5D;}
	.st5{fill:#FFFFFF;}
</style>
<g transform="translate(-964.938 760.091)">
	<g transform="translate(1465.752 -623.44)">
		<g transform="translate(44.432)">
			<path class="st0" d="M1.2,11.1c-0.4,0-0.8-0.2-1-0.5C-0.2,10,0,9.3,0.5,8.9l5.2-3.4L0.5,2.2C0,1.8-0.2,1.1,0.2,0.5
				C0.5,0,1.3-0.2,1.8,0.2l6.7,4.4C8.8,4.8,9,5.1,9,5.5c0,0.4-0.2,0.8-0.5,1l-6.7,4.4C1.6,11,1.4,11.1,1.2,11.1z"/>
		</g>
		<g transform="translate(0 4.359)">
			<path class="st0" d="M52.3,2.3H1.2C0.5,2.3,0,1.8,0,1.2c0,0,0,0,0,0C0,0.5,0.5,0,1.2,0h51.1c0.6,0,1.2,0.5,1.2,1.2c0,0,0,0,0,0
				C53.5,1.8,53,2.3,52.3,2.3C52.3,2.3,52.3,2.3,52.3,2.3z"/>
		</g>
	</g>
	<g transform="translate(1077.161 -623.451)">
		<g transform="translate(0 4.36)">
			<path class="st0" d="M39.5,2.3H1.2C0.5,2.3,0,1.8,0,1.2C0,0.5,0.5,0,1.2,0c0,0,0,0,0,0h38.4c0.6,0,1.2,0.5,1.2,1.2c0,0,0,0,0,0
				C40.7,1.8,40.2,2.3,39.5,2.3C39.5,2.3,39.5,2.3,39.5,2.3z"/>
		</g>
		<g transform="translate(32.475 0)">
			<path class="st0" d="M1.2,11.1c-0.4,0-0.8-0.2-1-0.5C-0.2,10,0,9.3,0.5,8.9l5.2-3.4L0.5,2.2C0,1.8-0.2,1.1,0.2,0.5
				C0.5,0,1.3-0.2,1.8,0.2l6.7,4.4C8.8,4.8,9,5.1,9,5.5c0,0.4-0.2,0.8-0.5,1l-6.7,4.4C1.6,11,1.4,11.1,1.2,11.1z"/>
		</g>
	</g>
	<g transform="translate(1179.084 -623.451)">
		<g transform="translate(0 4.36)">
			<path class="st0" d="M39.5,2.3H1.2C0.5,2.3,0,1.8,0,1.2C0,0.5,0.5,0,1.2,0c0,0,0,0,0,0h38.4c0.6,0,1.2,0.5,1.2,1.2c0,0,0,0,0,0
				C40.7,1.8,40.2,2.3,39.5,2.3C39.5,2.3,39.5,2.3,39.5,2.3z"/>
		</g>
		<g transform="translate(32.474 0)">
			<path class="st0" d="M1.2,11.1c-0.4,0-0.8-0.2-1-0.5C-0.2,10,0,9.3,0.5,8.9c0,0,0,0,0,0l5.2-3.4L0.5,2.2C0,1.8-0.2,1.1,0.2,0.5v0
				C0.5,0,1.3-0.2,1.8,0.2l6.7,4.4c0.3,0.2,0.5,0.6,0.5,1c0,0.4-0.2,0.8-0.5,1l-6.7,4.4C1.6,11,1.4,11.1,1.2,11.1z"/>
		</g>
	</g>
	<g transform="translate(1567.473 -623.451)">
		<g transform="translate(0 4.36)">
			<path class="st0" d="M39.5,2.3H1.2C0.5,2.3,0,1.8,0,1.2c0,0,0,0,0,0C0,0.5,0.5,0,1.2,0c0,0,0,0,0,0h38.4c0.6,0,1.2,0.5,1.2,1.2
				c0,0,0,0,0,0C40.7,1.8,40.2,2.3,39.5,2.3C39.5,2.3,39.5,2.3,39.5,2.3z"/>
		</g>
		<g transform="translate(32.473 0)">
			<path class="st0" d="M1.2,11.1c-0.4,0-0.8-0.2-1-0.5C-0.2,10,0,9.3,0.5,8.9l5.2-3.4L0.5,2.2C0,1.8-0.2,1.1,0.2,0.5
				C0.5,0,1.3-0.2,1.8,0.2l6.7,4.4C8.8,4.8,9,5.1,9,5.5c0,0.4-0.2,0.8-0.5,1l-6.7,4.4C1.6,11,1.4,11.1,1.2,11.1z"/>
		</g>
	</g>
	<g transform="translate(1673.114 -623.451)">
		<g transform="translate(0 4.36)">
			<path class="st0" d="M39.5,2.3H1.2C0.5,2.3,0,1.8,0,1.2C0,0.5,0.5,0,1.2,0c0,0,0,0,0,0h38.4c0.6,0,1.2,0.5,1.2,1.2c0,0,0,0,0,0
				C40.7,1.8,40.2,2.3,39.5,2.3C39.5,2.3,39.5,2.3,39.5,2.3z"/>
		</g>
		<g transform="translate(32.474 0)">
			<path class="st0" d="M1.2,11.1c-0.4,0-0.8-0.2-1-0.5C-0.2,10,0,9.3,0.5,8.9c0,0,0,0,0,0l5.2-3.4L0.5,2.2C0,1.8-0.2,1.1,0.2,0.5
				c0,0,0,0,0,0C0.5,0,1.3-0.2,1.8,0.2l6.7,4.4c0.3,0.2,0.5,0.6,0.5,1c0,0.4-0.2,0.8-0.5,1l-6.7,4.4C1.6,11,1.4,11.1,1.2,11.1z"/>
		</g>
	</g>
	<g transform="translate(1395.004 -760.091)">
		<path class="st1" d="M1.2,288.4c-0.6,0-1.2-0.5-1.2-1.2c0,0,0,0,0,0v-9.4c0-0.6,0.5-1.2,1.2-1.2c0,0,0,0,0,0
			c0.6,0,1.2,0.5,1.2,1.2l0,0v9.4C2.3,287.8,1.8,288.3,1.2,288.4C1.2,288.4,1.2,288.4,1.2,288.4z M1.2,269.6c-0.6,0-1.2-0.5-1.2-1.2
			c0,0,0,0,0,0v-9.4c0-0.6,0.5-1.2,1.2-1.2c0,0,0,0,0,0c0.6,0,1.2,0.5,1.2,1.2c0,0,0,0,0,0v9.4C2.3,269.1,1.8,269.6,1.2,269.6
			L1.2,269.6z M1.2,250.9c-0.6,0-1.2-0.5-1.2-1.2c0,0,0,0,0,0v-9.4c0-0.6,0.5-1.2,1.2-1.2c0,0,0,0,0,0c0.6,0,1.2,0.5,1.2,1.2
			c0,0,0,0,0,0v9.4C2.3,250.3,1.8,250.9,1.2,250.9L1.2,250.9z M1.2,232.1c-0.6,0-1.2-0.5-1.2-1.2c0,0,0,0,0,0v-9.4
			c0-0.6,0.5-1.2,1.2-1.2c0,0,0,0,0,0c0.6,0,1.2,0.5,1.2,1.2c0,0,0,0,0,0v9.4C2.3,231.6,1.8,232.1,1.2,232.1
			C1.2,232.1,1.2,232.1,1.2,232.1L1.2,232.1z M1.2,213.4c-0.6,0-1.2-0.5-1.2-1.2c0,0,0,0,0,0v-9.4c0-0.6,0.5-1.2,1.2-1.2
			c0,0,0,0,0,0c0.6,0,1.2,0.5,1.2,1.2c0,0,0,0,0,0v9.4C2.3,212.8,1.8,213.4,1.2,213.4C1.2,213.4,1.2,213.4,1.2,213.4L1.2,213.4z
			 M1.2,194.6c-0.6,0-1.2-0.5-1.2-1.2c0,0,0,0,0,0v-9.4c0-0.6,0.5-1.2,1.2-1.2c0,0,0,0,0,0c0.6,0,1.2,0.5,1.2,1.2c0,0,0,0,0,0v9.4
			C2.3,194.1,1.8,194.6,1.2,194.6L1.2,194.6z M1.2,175.9c-0.6,0-1.2-0.5-1.2-1.2c0,0,0,0,0,0v-9.4c0-0.6,0.5-1.2,1.2-1.2
			c0,0,0,0,0,0c0.6,0,1.2,0.5,1.2,1.2c0,0,0,0,0,0v9.4C2.3,175.4,1.8,175.9,1.2,175.9C1.2,175.9,1.2,175.9,1.2,175.9L1.2,175.9z
			 M1.2,157.1c-0.6,0-1.2-0.5-1.2-1.2c0,0,0,0,0,0v-9.4c0-0.6,0.5-1.2,1.2-1.2c0,0,0,0,0,0c0.6,0,1.2,0.5,1.2,1.2c0,0,0,0,0,0v9.4
			C2.3,156.6,1.8,157.1,1.2,157.1C1.2,157.1,1.2,157.1,1.2,157.1L1.2,157.1z M1.2,138.4c-0.6,0-1.2-0.5-1.2-1.2c0,0,0,0,0,0v-9.4
			c0-0.6,0.5-1.2,1.2-1.2c0,0,0,0,0,0c0.6,0,1.2,0.5,1.2,1.2c0,0,0,0,0,0v9.4C2.3,137.9,1.8,138.4,1.2,138.4
			C1.2,138.4,1.2,138.4,1.2,138.4L1.2,138.4z M1.2,119.7c-0.6,0-1.2-0.5-1.2-1.2c0,0,0,0,0,0v-9.4c0-0.6,0.5-1.2,1.2-1.2
			c0,0,0,0,0,0c0.6,0,1.2,0.5,1.2,1.2c0,0,0,0,0,0v9.4C2.3,119.1,1.8,119.7,1.2,119.7C1.2,119.7,1.2,119.7,1.2,119.7L1.2,119.7z
			 M1.2,100.9c-0.6,0-1.2-0.5-1.2-1.2c0,0,0,0,0,0v-9.4c0-0.6,0.5-1.2,1.2-1.2c0,0,0,0,0,0c0.6,0,1.2,0.5,1.2,1.2c0,0,0,0,0,0v9.4
			C2.3,100.4,1.8,100.9,1.2,100.9C1.2,100.9,1.2,100.9,1.2,100.9L1.2,100.9z M1.2,82.2C0.5,82.2,0,81.6,0,81c0,0,0,0,0,0v-9.4
			c0-0.6,0.5-1.2,1.2-1.2c0,0,0,0,0,0c0.6,0,1.2,0.5,1.2,1.2c0,0,0,0,0,0V81C2.3,81.6,1.8,82.2,1.2,82.2C1.2,82.2,1.2,82.2,1.2,82.2
			L1.2,82.2z M1.2,63.4c-0.6,0-1.2-0.5-1.2-1.2c0,0,0,0,0,0v-9.4c0-0.6,0.5-1.2,1.2-1.2c0,0,0,0,0,0c0.6,0,1.2,0.5,1.2,1.2
			c0,0,0,0,0,0v9.4C2.3,62.9,1.8,63.4,1.2,63.4C1.2,63.4,1.2,63.4,1.2,63.4L1.2,63.4z M1.2,44.7c-0.6,0-1.2-0.5-1.2-1.2c0,0,0,0,0,0
			v-9.4C0,33.5,0.5,33,1.2,33c0,0,0,0,0,0c0.6,0,1.2,0.5,1.2,1.2c0,0,0,0,0,0v9.4C2.3,44.2,1.8,44.7,1.2,44.7
			C1.2,44.7,1.2,44.7,1.2,44.7L1.2,44.7z M1.2,25.9c-0.6,0-1.2-0.5-1.2-1.2c0,0,0,0,0,0v-9.4c0-0.6,0.5-1.2,1.2-1.2c0,0,0,0,0,0
			c0.6,0,1.2,0.5,1.2,1.2c0,0,0,0,0,0v9.4C2.3,25.4,1.8,25.9,1.2,25.9C1.2,25.9,1.2,25.9,1.2,25.9L1.2,25.9z M1.2,7.2
			C0.5,7.2,0,6.7,0,6c0,0,0,0,0,0V1.2C0,0.5,0.5,0,1.2,0c0,0,0,0,0,0c0.6,0,1.2,0.5,1.2,1.2c0,0,0,0,0,0V6C2.3,6.7,1.8,7.2,1.2,7.2
			C1.2,7.2,1.2,7.2,1.2,7.2L1.2,7.2z"/>
	</g>
	<g transform="translate(991.383 -671.657)">
		<g transform="translate(25.188)">
			<path class="st2" d="M60.4,107.6H1.2c-0.6,0-1.2-0.5-1.2-1.2c0,0,0,0,0,0V1.2C0,0.5,0.5,0,1.2,0c0,0,0,0,0,0h59.2
				c0.6,0,1.2,0.5,1.2,1.2v105.3C61.6,107.1,61,107.6,60.4,107.6L60.4,107.6z M2.3,105.3h56.9V2.3H2.3V105.3z"/>
		</g>
		<g transform="translate(32.361 7.173)">
			<path class="st2" d="M46,71.8H1.2c-0.6,0-1.2-0.5-1.2-1.2c0,0,0,0,0,0V1.2C0,0.5,0.5,0,1.2,0c0,0,0,0,0,0H46
				c0.6,0,1.2,0.5,1.2,1.2v69.5C47.2,71.3,46.7,71.8,46,71.8C46,71.8,46,71.8,46,71.8z M2.3,69.5h42.5V2.3H2.3L2.3,69.5z"/>
		</g>
		<g transform="translate(32.361 21.07)">
			<line class="st3" x1="46" y1="1.2" x2="1.2" y2="1.2"/>
			<path class="st2" d="M46,2.3H1.2C0.5,2.3,0,1.8,0,1.2c0,0,0,0,0,0C0,0.5,0.5,0,1.2,0c0,0,0,0,0,0H46c0.6,0,1.2,0.5,1.2,1.2
				C47.2,1.8,46.7,2.3,46,2.3z"/>
		</g>
		<g transform="translate(32.361 34.968)">
			<line class="st3" x1="46" y1="1.2" x2="1.2" y2="1.2"/>
			<path class="st2" d="M46,2.3H1.2C0.5,2.3,0,1.8,0,1.2c0,0,0,0,0,0C0,0.5,0.5,0,1.2,0c0,0,0,0,0,0H46c0.6,0,1.2,0.5,1.2,1.2
				c0,0,0,0,0,0C47.2,1.8,46.7,2.3,46,2.3z"/>
		</g>
		<g transform="translate(32.361 48.864)">
			<line class="st3" x1="46" y1="1.2" x2="1.2" y2="1.2"/>
			<path class="st2" d="M46,2.3H1.2C0.5,2.3,0,1.8,0,1.2c0,0,0,0,0,0C0,0.5,0.5,0,1.2,0c0,0,0,0,0,0H46c0.6,0,1.2,0.5,1.2,1.2
				C47.2,1.8,46.7,2.3,46,2.3C46,2.3,46,2.3,46,2.3z"/>
		</g>
		<g transform="translate(32.361 62.762)">
			<line class="st3" x1="46" y1="1.2" x2="1.2" y2="1.2"/>
			<path class="st2" d="M46,2.3H1.2C0.5,2.3,0,1.8,0,1.2c0,0,0,0,0,0C0,0.5,0.5,0,1.2,0c0,0,0,0,0,0H46c0.6,0,1.2,0.5,1.2,1.2
				c0,0,0,0,0,0C47.2,1.8,46.7,2.3,46,2.3z"/>
		</g>
		<g transform="translate(19.188 105.269)">
			<path class="st2" d="M75.8,2.3H1.2C0.5,2.3,0,1.8,0,1.2c0,0,0,0,0,0C0,0.5,0.5,0,1.2,0c0,0,0,0,0,0h74.7C76.5,0,77,0.5,77,1.2
				c0,0,0,0,0,0C77,1.8,76.5,2.3,75.8,2.3C75.8,2.3,75.8,2.3,75.8,2.3z"/>
		</g>
		<g transform="translate(63.582 7.173)">
			<path class="st4" d="M8.4,2.3H1.2C0.5,2.3,0,1.8,0,1.2c0,0,0,0,0,0C0,0.5,0.5,0,1.2,0c0,0,0,0,0,0h7.3c0.6,0,1.2,0.5,1.2,1.2
				c0,0,0,0,0,0C9.6,1.8,9.1,2.3,8.4,2.3L8.4,2.3z"/>
		</g>
		<g transform="translate(48.129 21.07)">
			<path class="st4" d="M8.4,2.3H1.2C0.5,2.3,0,1.8,0,1.2c0,0,0,0,0,0C0,0.5,0.5,0,1.2,0c0,0,0,0,0,0h7.3c0.6,0,1.2,0.5,1.2,1.2
				c0,0,0,0,0,0C9.6,1.8,9.1,2.3,8.4,2.3C8.4,2.3,8.4,2.3,8.4,2.3z"/>
		</g>
		<g transform="translate(38.389 62.761)">
			<path class="st4" d="M8.4,2.3H1.2C0.5,2.3,0,1.8,0,1.2C0,0.5,0.5,0,1.2,0h7.3c0.6,0,1.2,0.5,1.2,1.2c0,0,0,0,0,0
				C9.6,1.8,9.1,2.3,8.4,2.3L8.4,2.3z"/>
		</g>
		<g transform="translate(100.04 105.268)">
			<path class="st2" d="M5.6,2.3H1.2C0.5,2.3,0,1.8,0,1.2S0.5,0,1.2,0h4.4c0.6,0,1.2,0.5,1.2,1.2c0,0,0,0,0,0
				C6.7,1.8,6.2,2.3,5.6,2.3C5.6,2.3,5.6,2.3,5.6,2.3z"/>
		</g>
		<g transform="translate(0 105.268)">
			<path class="st2" d="M13.2,2.3H1.2C0.5,2.3,0,1.8,0,1.2c0,0,0,0,0,0C0,0.5,0.5,0,1.2,0c0,0,0,0,0,0h12.1c0.6,0,1.2,0.5,1.2,1.2
				S13.9,2.3,13.2,2.3z"/>
		</g>
	</g>
	<g transform="translate(964.938 -721.753)">
		<g transform="translate(258.335)">
			<path class="st2" d="M5.9,2.3H1.2C0.5,2.3,0,1.8,0,1.2c0,0,0,0,0,0C0,0.5,0.5,0,1.2,0c0,0,0,0,0,0h4.7C6.5,0,7,0.5,7,1.2
				c0,0,0,0,0,0C7,1.8,6.5,2.3,5.9,2.3L5.9,2.3z"/>
		</g>
		<g transform="translate(272.596)">
			<path class="st2" d="M125.6,2.3h-9.6c-0.6,0-1.2-0.5-1.2-1.2c0,0,0,0,0,0c0-0.6,0.5-1.2,1.2-1.2c0,0,0,0,0,0h9.6
				c0.6,0,1.2,0.5,1.2,1.2c0,0,0,0,0,0C126.8,1.8,126.3,2.3,125.6,2.3C125.6,2.3,125.6,2.3,125.6,2.3z M106.5,2.3h-9.6
				c-0.6,0-1.2-0.5-1.2-1.2c0-0.6,0.5-1.2,1.2-1.2h9.6c0.6,0,1.2,0.5,1.2,1.2c0,0,0,0,0,0C107.7,1.8,107.1,2.3,106.5,2.3
				C106.5,2.3,106.5,2.3,106.5,2.3z M87.3,2.3h-9.6c-0.6,0-1.2-0.5-1.2-1.2c0,0,0,0,0,0c0-0.6,0.5-1.2,1.2-1.2c0,0,0,0,0,0h9.6
				c0.6,0,1.2,0.5,1.2,1.2C88.5,1.8,88,2.3,87.3,2.3z M68.2,2.3h-9.6c-0.6,0-1.2-0.5-1.2-1.2c0,0,0,0,0,0C57.4,0.5,58,0,58.6,0
				c0,0,0,0,0,0h9.6c0.6,0,1.2,0.5,1.2,1.2c0,0,0,0,0,0C69.4,1.8,68.8,2.3,68.2,2.3C68.2,2.3,68.2,2.3,68.2,2.3z M49,2.3h-9.6
				c-0.6,0-1.2-0.5-1.2-1.2c0-0.6,0.5-1.2,1.2-1.2H49c0.6,0,1.2,0.5,1.2,1.2c0,0,0,0,0,0C50.2,1.8,49.7,2.3,49,2.3
				C49,2.3,49,2.3,49,2.3z M29.9,2.3h-9.6c-0.6,0-1.2-0.5-1.2-1.2c0,0,0,0,0,0c0-0.6,0.5-1.2,1.2-1.2c0,0,0,0,0,0h9.6
				c0.6,0,1.2,0.5,1.2,1.2C31.1,1.8,30.5,2.3,29.9,2.3L29.9,2.3z M10.7,2.3H1.2C0.5,2.3,0,1.8,0,1.2c0,0,0,0,0,0C0,0.5,0.5,0,1.2,0
				c0,0,0,0,0,0h9.6c0.6,0,1.2,0.5,1.2,1.2c0,0,0,0,0,0C11.9,1.8,11.4,2.3,10.7,2.3z"/>
		</g>
		<g transform="translate(406.637)">
			<path class="st2" d="M5.9,7C5.2,7,4.7,6.5,4.7,5.9V2.3H1.2C0.5,2.3,0,1.8,0,1.2c0,0,0,0,0,0C0,0.5,0.5,0,1.2,0c0,0,0,0,0,0h4.7
				C6.5,0,7,0.5,7,1.2c0,0,0,0,0,0v4.7C7,6.5,6.5,7,5.9,7z"/>
		</g>
		<g transform="translate(411.322 14.021)">
			<path class="st2" d="M1.2,198.4c-0.6,0-1.2-0.5-1.2-1.2c0,0,0,0,0,0v-9.3c0-0.6,0.5-1.2,1.2-1.2c0,0,0,0,0,0
				c0.6,0,1.2,0.5,1.2,1.2c0,0,0,0,0,0v9.3C2.3,197.9,1.8,198.4,1.2,198.4C1.2,198.4,1.2,198.4,1.2,198.4z M1.2,179.7
				c-0.6,0-1.2-0.5-1.2-1.2c0,0,0,0,0,0v-9.3c0-0.6,0.5-1.2,1.2-1.2c0,0,0,0,0,0c0.6,0,1.2,0.5,1.2,1.2c0,0,0,0,0,0v9.3
				C2.3,179.2,1.8,179.7,1.2,179.7L1.2,179.7z M1.2,161c-0.6,0-1.2-0.5-1.2-1.2c0,0,0,0,0,0v-9.3c0-0.6,0.5-1.2,1.2-1.2c0,0,0,0,0,0
				c0.6,0,1.2,0.5,1.2,1.2c0,0,0,0,0,0v9.3C2.3,160.5,1.8,161,1.2,161C1.2,161,1.2,161,1.2,161z M1.2,142.4c-0.6,0-1.2-0.5-1.2-1.2
				c0,0,0,0,0,0v-9.3c0-0.6,0.5-1.2,1.2-1.2c0,0,0,0,0,0c0.6,0,1.2,0.5,1.2,1.2c0,0,0,0,0,0v9.3C2.3,141.9,1.8,142.4,1.2,142.4
				C1.2,142.4,1.2,142.4,1.2,142.4z M1.2,123.7c-0.6,0-1.2-0.5-1.2-1.2c0,0,0,0,0,0v-9.3c0-0.6,0.5-1.2,1.2-1.2c0,0,0,0,0,0
				c0.6,0,1.2,0.5,1.2,1.2c0,0,0,0,0,0v9.3C2.3,123.2,1.8,123.7,1.2,123.7C1.2,123.7,1.2,123.7,1.2,123.7L1.2,123.7z M1.2,105
				c-0.6,0-1.2-0.5-1.2-1.2c0,0,0,0,0,0v-9.3c0-0.6,0.5-1.2,1.2-1.2c0,0,0,0,0,0c0.6,0,1.2,0.5,1.2,1.2c0,0,0,0,0,0v9.3
				C2.3,104.5,1.8,105,1.2,105C1.2,105,1.2,105,1.2,105L1.2,105z M1.2,86.4c-0.6,0-1.2-0.5-1.2-1.2c0,0,0,0,0,0v-9.3
				c0-0.6,0.5-1.2,1.2-1.2c0,0,0,0,0,0c0.6,0,1.2,0.5,1.2,1.2c0,0,0,0,0,0v9.3C2.3,85.8,1.8,86.4,1.2,86.4L1.2,86.4L1.2,86.4z
				 M1.2,67.7c-0.6,0-1.2-0.5-1.2-1.2c0,0,0,0,0,0v-9.3C0,56.5,0.5,56,1.2,56c0,0,0,0,0,0c0.6,0,1.2,0.5,1.2,1.2c0,0,0,0,0,0v9.3
				C2.3,67.2,1.8,67.7,1.2,67.7C1.2,67.7,1.2,67.7,1.2,67.7L1.2,67.7z M1.2,49C0.5,49,0,48.5,0,47.9c0,0,0,0,0,0v-9.3
				c0-0.6,0.5-1.2,1.2-1.2c0,0,0,0,0,0c0.6,0,1.2,0.5,1.2,1.2c0,0,0,0,0,0v9.3C2.3,48.5,1.8,49,1.2,49L1.2,49z M1.2,30.3
				c-0.6,0-1.2-0.5-1.2-1.2c0,0,0,0,0,0v-9.3c0-0.6,0.5-1.2,1.2-1.2c0,0,0,0,0,0c0.6,0,1.2,0.5,1.2,1.2c0,0,0,0,0,0v9.3
				C2.3,29.8,1.8,30.3,1.2,30.3L1.2,30.3z M1.2,11.7c-0.6,0-1.2-0.5-1.2-1.2c0,0,0,0,0,0V1.2C0,0.5,0.5,0,1.2,0c0,0,0,0,0,0
				c0.6,0,1.2,0.5,1.2,1.2c0,0,0,0,0,0v9.3C2.3,11.2,1.8,11.7,1.2,11.7L1.2,11.7z"/>
		</g>
		<g transform="translate(406.637 219.402)">
			<path class="st2" d="M5.9,7H1.2C0.5,7,0,6.5,0,5.9c0,0,0,0,0,0c0-0.6,0.5-1.2,1.2-1.2l0,0h3.5V1.2C4.7,0.5,5.2,0,5.9,0
				c0,0,0,0,0,0C6.5,0,7,0.5,7,1.2c0,0,0,0,0,0v4.7C7,6.5,6.5,7,5.9,7C5.9,7,5.9,7,5.9,7z"/>
		</g>
		<g transform="translate(14.032 224.088)">
			<path class="st2" d="M384.4,2.3h-9.3c-0.6,0-1.2-0.5-1.2-1.2c0,0,0,0,0,0c0-0.6,0.5-1.2,1.2-1.2c0,0,0,0,0,0h9.3
				c0.6,0,1.2,0.5,1.2,1.2c0,0,0,0,0,0C385.6,1.8,385.1,2.3,384.4,2.3C384.4,2.3,384.4,2.3,384.4,2.3z M365.7,2.3h-9.3
				c-0.6,0-1.2-0.5-1.2-1.2c0,0,0,0,0,0c0-0.6,0.5-1.2,1.2-1.2l0,0h9.3c0.6,0,1.2,0.5,1.2,1.2c0,0,0,0,0,0
				C366.9,1.8,366.4,2.3,365.7,2.3C365.7,2.3,365.7,2.3,365.7,2.3L365.7,2.3z M347,2.3h-9.3c-0.6,0-1.2-0.5-1.2-1.2c0,0,0,0,0,0
				c0-0.6,0.5-1.2,1.2-1.2l0,0h9.3c0.6,0,1.2,0.5,1.2,1.2c0,0,0,0,0,0C348.2,1.8,347.7,2.3,347,2.3L347,2.3z M328.3,2.3H319
				c-0.6,0-1.2-0.5-1.2-1.2c0,0,0,0,0,0c0-0.6,0.5-1.2,1.2-1.2c0,0,0,0,0,0h9.3c0.6,0,1.2,0.5,1.2,1.2c0,0,0,0,0,0
				C329.5,1.8,329,2.3,328.3,2.3L328.3,2.3z M309.6,2.3h-9.3c-0.6,0-1.2-0.5-1.2-1.2c0,0,0,0,0,0c0-0.6,0.5-1.2,1.2-1.2l0,0h9.3
				c0.6,0,1.2,0.5,1.2,1.2c0,0,0,0,0,0C310.8,1.8,310.3,2.3,309.6,2.3L309.6,2.3z M290.9,2.3h-9.3c-0.6,0-1.2-0.5-1.2-1.2
				c0,0,0,0,0,0c0-0.6,0.5-1.2,1.2-1.2c0,0,0,0,0,0h9.3c0.6,0,1.2,0.5,1.2,1.2c0,0,0,0,0,0C292.1,1.8,291.6,2.3,290.9,2.3L290.9,2.3
				z M272.2,2.3h-9.3c-0.6,0-1.2-0.5-1.2-1.2c0,0,0,0,0,0c0-0.6,0.5-1.2,1.2-1.2c0,0,0,0,0,0h9.3c0.6,0,1.2,0.5,1.2,1.2c0,0,0,0,0,0
				C273.4,1.8,272.9,2.3,272.2,2.3L272.2,2.3z M253.5,2.3h-9.3c-0.6,0-1.2-0.5-1.2-1.2c0,0,0,0,0,0c0-0.6,0.5-1.2,1.2-1.2l0,0h9.3
				c0.6,0,1.2,0.5,1.2,1.2c0,0,0,0,0,0C254.7,1.8,254.2,2.3,253.5,2.3L253.5,2.3z M234.8,2.3h-9.3c-0.6,0-1.2-0.5-1.2-1.2
				c0,0,0,0,0,0c0-0.6,0.5-1.2,1.2-1.2c0,0,0,0,0,0h9.3c0.6,0,1.2,0.5,1.2,1.2c0,0,0,0,0,0C236,1.8,235.5,2.3,234.8,2.3L234.8,2.3z
				 M216.1,2.3h-9.3c-0.6,0-1.2-0.5-1.2-1.2c0,0,0,0,0,0c0-0.6,0.5-1.2,1.2-1.2l0,0h9.3c0.6,0,1.2,0.5,1.2,1.2c0,0,0,0,0,0
				C217.3,1.8,216.8,2.3,216.1,2.3L216.1,2.3z M197.4,2.3h-9.3c-0.6,0-1.2-0.5-1.2-1.2c0,0,0,0,0,0c0-0.6,0.5-1.2,1.2-1.2
				c0,0,0,0,0,0h9.3c0.6,0,1.2,0.5,1.2,1.2C198.6,1.8,198.1,2.3,197.4,2.3L197.4,2.3z M178.7,2.3h-9.3c-0.6,0-1.2-0.5-1.2-1.2
				c0,0,0,0,0,0c0-0.6,0.5-1.2,1.2-1.2c0,0,0,0,0,0h9.3c0.6,0,1.2,0.5,1.2,1.2c0,0,0,0,0,0C179.9,1.8,179.4,2.3,178.7,2.3L178.7,2.3
				z M160,2.3h-9.3c-0.6,0-1.2-0.5-1.2-1.2c0,0,0,0,0,0c0-0.6,0.5-1.2,1.2-1.2c0,0,0,0,0,0h9.4c0.6,0,1.2,0.5,1.2,1.2
				C161.3,1.8,160.7,2.3,160,2.3C160.1,2.3,160.1,2.3,160,2.3L160,2.3z M141.3,2.3H132c-0.6,0-1.2-0.5-1.2-1.2c0,0,0,0,0,0
				c0-0.6,0.5-1.2,1.2-1.2c0,0,0,0,0,0h9.3c0.6,0,1.2,0.5,1.2,1.2C142.5,1.8,142,2.3,141.3,2.3L141.3,2.3z M122.6,2.3h-9.3
				c-0.6,0-1.2-0.5-1.2-1.2c0,0,0,0,0,0c0-0.6,0.5-1.2,1.2-1.2l0,0h9.3c0.6,0,1.2,0.5,1.2,1.2C123.8,1.8,123.3,2.3,122.6,2.3
				L122.6,2.3z M104,2.3h-9.3c-0.6,0-1.2-0.5-1.2-1.2c0,0,0,0,0,0C93.4,0.5,94,0,94.6,0c0,0,0,0,0,0h9.3c0.6,0,1.2,0.5,1.2,1.2
				C105.1,1.8,104.6,2.3,104,2.3L104,2.3z M85.3,2.3h-9.3c-0.6,0-1.2-0.5-1.2-1.2c0,0,0,0,0,0c0-0.6,0.5-1.2,1.2-1.2c0,0,0,0,0,0
				h9.3c0.6,0,1.2,0.5,1.2,1.2C86.4,1.8,85.9,2.3,85.3,2.3L85.3,2.3z M66.6,2.3h-9.3c-0.6,0-1.2-0.5-1.2-1.2c0,0,0,0,0,0
				C56,0.5,56.6,0,57.2,0c0,0,0,0,0,0h9.3c0.6,0,1.2,0.5,1.2,1.2C67.7,1.8,67.2,2.3,66.6,2.3L66.6,2.3z M47.9,2.3h-9.3
				c-0.6,0-1.2-0.5-1.2-1.2c0,0,0,0,0,0c0-0.6,0.5-1.2,1.2-1.2c0,0,0,0,0,0h9.3C48.5,0,49,0.5,49,1.2C49,1.8,48.5,2.3,47.9,2.3
				L47.9,2.3z M29.2,2.3h-9.3c-0.6,0-1.2-0.5-1.2-1.2c0,0,0,0,0,0c0-0.6,0.5-1.2,1.2-1.2c0,0,0,0,0,0h9.3c0.6,0,1.2,0.5,1.2,1.2
				C30.3,1.8,29.8,2.3,29.2,2.3L29.2,2.3z M10.5,2.3H1.1c-0.6,0-1.2-0.5-1.2-1.2c0,0,0,0,0,0C-0.1,0.5,0.5,0,1.1,0c0,0,0,0,0,0h9.3
				c0.6,0,1.2,0.5,1.2,1.2C11.6,1.8,11.1,2.3,10.5,2.3L10.5,2.3z"/>
		</g>
		<g transform="translate(0 219.402)">
			<path class="st2" d="M5.9,7H1.2C0.5,7,0,6.5,0,5.9c0,0,0,0,0,0V1.2C0,0.5,0.5,0,1.2,0c0,0,0,0,0,0c0.6,0,1.2,0.5,1.2,1.2v3.5h3.5
				C6.5,4.7,7,5.2,7,5.9C7,6.5,6.5,7,5.9,7C5.9,7,5.9,7,5.9,7z"/>
		</g>
		<g transform="translate(0 14.021)">
			<path class="st2" d="M1.2,198.4c-0.6,0-1.2-0.5-1.2-1.2c0,0,0,0,0,0v-9.3c0-0.6,0.5-1.2,1.2-1.2c0,0,0,0,0,0
				c0.6,0,1.2,0.5,1.2,1.2v9.3C2.3,197.9,1.8,198.4,1.2,198.4z M1.2,179.7c-0.6,0-1.2-0.5-1.2-1.2c0,0,0,0,0,0v-9.3
				c0-0.6,0.5-1.2,1.2-1.2c0,0,0,0,0,0c0.6,0,1.2,0.5,1.2,1.2v9.3C2.3,179.2,1.8,179.7,1.2,179.7z M1.2,161c-0.6,0-1.2-0.5-1.2-1.2
				c0,0,0,0,0,0v-9.3c0-0.6,0.5-1.2,1.2-1.2c0,0,0,0,0,0c0.6,0,1.2,0.5,1.2,1.2v9.3C2.3,160.5,1.8,161,1.2,161L1.2,161z M1.2,142.4
				c-0.6,0-1.2-0.5-1.2-1.2c0,0,0,0,0,0v-9.3c0-0.6,0.5-1.2,1.2-1.2c0,0,0,0,0,0c0.6,0,1.2,0.5,1.2,1.2v9.3
				C2.3,141.8,1.8,142.4,1.2,142.4L1.2,142.4z M1.2,123.7c-0.6,0-1.2-0.5-1.2-1.2c0,0,0,0,0,0v-9.3c0-0.6,0.5-1.2,1.2-1.2
				c0,0,0,0,0,0c0.6,0,1.2,0.5,1.2,1.2v9.3C2.3,123.2,1.8,123.7,1.2,123.7L1.2,123.7z M1.2,105c-0.6,0-1.2-0.5-1.2-1.2c0,0,0,0,0,0
				v-9.3c0-0.6,0.5-1.2,1.2-1.2c0,0,0,0,0,0c0.6,0,1.2,0.5,1.2,1.2v9.3C2.3,104.5,1.8,105,1.2,105L1.2,105z M1.2,86.4
				c-0.6,0-1.2-0.5-1.2-1.2c0,0,0,0,0,0v-9.3c0-0.6,0.5-1.2,1.2-1.2c0,0,0,0,0,0c0.6,0,1.2,0.5,1.2,1.2v9.3
				C2.3,85.8,1.8,86.4,1.2,86.4L1.2,86.4z M1.2,67.7c-0.6,0-1.2-0.5-1.2-1.2c0,0,0,0,0,0v-9.3C0,56.5,0.5,56,1.2,56c0,0,0,0,0,0
				c0.6,0,1.2,0.5,1.2,1.2v9.3C2.3,67.2,1.8,67.7,1.2,67.7C1.2,67.7,1.2,67.7,1.2,67.7L1.2,67.7z M1.2,49C0.5,49,0,48.5,0,47.9
				c0,0,0,0,0,0v-9.3c0-0.6,0.5-1.2,1.2-1.2c0,0,0,0,0,0c0.6,0,1.2,0.5,1.2,1.2v9.3C2.3,48.5,1.8,49,1.2,49L1.2,49z M1.2,30.3
				c-0.6,0-1.2-0.5-1.2-1.2c0,0,0,0,0,0v-9.3c0-0.6,0.5-1.2,1.2-1.2c0,0,0,0,0,0c0.6,0,1.2,0.5,1.2,1.2c0,0,0,0,0,0v9.3
				C2.3,29.8,1.8,30.3,1.2,30.3L1.2,30.3z M1.2,11.7c-0.6,0-1.2-0.5-1.2-1.2c0,0,0,0,0,0V1.2C0,0.5,0.5,0,1.2,0c0,0,0,0,0,0
				c0.6,0,1.2,0.5,1.2,1.2c0,0,0,0,0,0v9.3C2.3,11.2,1.8,11.7,1.2,11.7L1.2,11.7z"/>
		</g>
		<path class="st2" d="M1.2,7C0.5,7,0,6.5,0,5.9c0,0,0,0,0,0V1.2C0,0.5,0.5,0,1.2,0c0,0,0,0,0,0h4.7C6.5,0,7,0.5,7,1.2
			c0,0.6-0.5,1.2-1.2,1.2H2.3v3.5C2.3,6.5,1.8,7,1.2,7C1.2,7,1.2,7,1.2,7z"/>
		<g transform="translate(14.047)">
			<path class="st2" d="M122.9,2.3h-9.4c-0.6,0-1.2-0.5-1.2-1.2c0,0,0,0,0,0c0-0.6,0.5-1.2,1.2-1.2c0,0,0,0,0,0h9.4
				c0.6,0,1.2,0.5,1.2,1.2c0,0,0,0,0,0C124,1.8,123.5,2.3,122.9,2.3L122.9,2.3z M104.1,2.3h-9.4c-0.6,0-1.2-0.5-1.2-1.2c0,0,0,0,0,0
				c0-0.6,0.5-1.2,1.2-1.2c0,0,0,0,0,0h9.4c0.6,0,1.2,0.5,1.2,1.2c0,0,0,0,0,0C105.3,1.8,104.8,2.3,104.1,2.3L104.1,2.3z M85.4,2.3
				h-9.4c-0.6,0-1.2-0.5-1.2-1.2c0-0.6,0.5-1.2,1.2-1.2h9.4c0.6,0,1.2,0.5,1.2,1.2C86.6,1.8,86.1,2.3,85.4,2.3
				C85.4,2.3,85.4,2.3,85.4,2.3L85.4,2.3z M66.7,2.3h-9.4c-0.6,0-1.2-0.5-1.2-1.2c0,0,0,0,0,0c0-0.6,0.5-1.2,1.2-1.2c0,0,0,0,0,0
				h9.4c0.6,0,1.2,0.5,1.2,1.2c0,0,0,0,0,0C67.9,1.8,67.3,2.3,66.7,2.3L66.7,2.3z M48,2.3h-9.4c-0.6,0-1.2-0.5-1.2-1.2c0,0,0,0,0,0
				C37.4,0.5,38,0,38.6,0c0,0,0,0,0,0H48c0.6,0,1.2,0.5,1.2,1.2c0,0,0,0,0,0C49.1,1.8,48.6,2.3,48,2.3L48,2.3z M29.3,2.3h-9.4
				c-0.6,0-1.2-0.5-1.2-1.2c0,0,0,0,0,0c0-0.6,0.5-1.2,1.2-1.2c0,0,0,0,0,0h9.4c0.6,0,1.2,0.5,1.2,1.2c0,0,0,0,0,0
				C30.4,1.8,29.9,2.3,29.3,2.3L29.3,2.3z M10.5,2.3H1.2C0.5,2.3,0,1.8,0,1.2c0,0,0,0,0,0C0,0.5,0.5,0,1.2,0c0,0,0,0,0,0h9.4
				c0.6,0,1.2,0.5,1.2,1.2c0,0,0,0,0,0C11.7,1.8,11.2,2.3,10.5,2.3C10.5,2.3,10.5,2.3,10.5,2.3L10.5,2.3z"/>
		</g>
		<g transform="translate(145.115)">
			<path class="st2" d="M5.9,2.3H1.2C0.5,2.3,0,1.8,0,1.2c0,0,0,0,0,0C0,0.5,0.5,0,1.2,0c0,0,0,0,0,0h4.7C6.5,0,7,0.5,7,1.2
				C7,1.8,6.5,2.3,5.9,2.3z"/>
		</g>
	</g>
	<g transform="translate(1413.748 -721.753)">
		<g transform="translate(290.271)">
			<path class="st4" d="M5.9,2.3H1.2C0.5,2.3,0,1.8,0,1.2c0,0,0,0,0,0C0,0.5,0.5,0,1.2,0c0,0,0,0,0,0h4.7C6.5,0,7,0.5,7,1.2
				c0,0,0,0,0,0C7,1.8,6.5,2.3,5.9,2.3z"/>
		</g>
		<g transform="translate(303.621)">
			<path class="st4" d="M96.5,2.3h-8.7c-0.6,0-1.2-0.5-1.2-1.2c0,0,0,0,0,0c0-0.6,0.5-1.2,1.2-1.2c0,0,0,0,0,0h8.7
				c0.6,0,1.2,0.5,1.2,1.2c0,0,0,0,0,0C97.7,1.8,97.1,2.3,96.5,2.3L96.5,2.3z M79.2,2.3h-8.7c-0.6,0-1.2-0.5-1.2-1.2c0,0,0,0,0,0
				c0-0.6,0.5-1.2,1.2-1.2c0,0,0,0,0,0h8.7c0.6,0,1.2,0.5,1.2,1.2C80.3,1.8,79.8,2.3,79.2,2.3C79.2,2.3,79.2,2.3,79.2,2.3z
				 M61.8,2.3h-8.7c-0.6,0-1.2-0.5-1.2-1.2c0,0,0,0,0,0C52,0.5,52.5,0,53.2,0c0,0,0,0,0,0h8.7C62.5,0,63,0.5,63,1.2c0,0,0,0,0,0
				C63,1.8,62.5,2.3,61.8,2.3L61.8,2.3z M44.5,2.3h-8.7c-0.6,0-1.2-0.5-1.2-1.2c0,0,0,0,0,0c0-0.6,0.5-1.2,1.2-1.2c0,0,0,0,0,0h8.7
				c0.6,0,1.2,0.5,1.2,1.2c0,0,0,0,0,0C45.7,1.8,45.1,2.3,44.5,2.3C44.5,2.3,44.5,2.3,44.5,2.3L44.5,2.3z M27.2,2.3h-8.7
				c-0.6,0-1.2-0.5-1.2-1.2c0,0,0,0,0,0c0-0.6,0.5-1.2,1.2-1.2c0,0,0,0,0,0h8.7c0.6,0,1.2,0.5,1.2,1.2c0,0,0,0,0,0
				C28.3,1.8,27.8,2.3,27.2,2.3L27.2,2.3L27.2,2.3z M9.8,2.3H1.2C0.5,2.3,0,1.8,0,1.2c0,0,0,0,0,0C0,0.5,0.5,0,1.2,0c0,0,0,0,0,0
				h8.7C10.5,0,11,0.5,11,1.2c0,0,0,0,0,0C11,1.8,10.5,2.3,9.8,2.3C9.8,2.3,9.8,2.3,9.8,2.3L9.8,2.3z"/>
		</g>
		<g transform="translate(407.596)">
			<path class="st4" d="M5.9,7C5.2,7,4.7,6.5,4.7,5.9c0,0,0,0,0,0V2.3H1.2C0.5,2.3,0,1.8,0,1.2c0,0,0,0,0,0C0,0.5,0.5,0,1.2,0
				c0,0,0,0,0,0h4.7C6.5,0,7,0.5,7,1.2v4.7C7,6.5,6.5,7,5.9,7z"/>
		</g>
		<g transform="translate(412.282 14.021)">
			<path class="st4" d="M1.2,198.4c-0.6,0-1.2-0.5-1.2-1.2c0,0,0,0,0,0v-9.3c0-0.6,0.5-1.2,1.2-1.2c0,0,0,0,0,0
				c0.6,0,1.2,0.5,1.2,1.2v9.3C2.3,197.9,1.8,198.4,1.2,198.4z M1.2,179.7c-0.6,0-1.2-0.5-1.2-1.2c0,0,0,0,0,0v-9.3
				c0-0.6,0.5-1.2,1.2-1.2c0,0,0,0,0,0c0.6,0,1.2,0.5,1.2,1.2v9.3C2.3,179.2,1.8,179.7,1.2,179.7L1.2,179.7z M1.2,161
				c-0.6,0-1.2-0.5-1.2-1.2c0,0,0,0,0,0v-9.3c0-0.6,0.5-1.2,1.2-1.2c0,0,0,0,0,0c0.6,0,1.2,0.5,1.2,1.2v9.3
				C2.3,160.5,1.8,161,1.2,161L1.2,161z M1.2,142.4c-0.6,0-1.2-0.5-1.2-1.2c0,0,0,0,0,0v-9.3c0-0.6,0.5-1.2,1.2-1.2c0,0,0,0,0,0
				c0.6,0,1.2,0.5,1.2,1.2v9.3C2.3,141.9,1.8,142.4,1.2,142.4L1.2,142.4z M1.2,123.7c-0.6,0-1.2-0.5-1.2-1.2c0,0,0,0,0,0v-9.3
				c0-0.6,0.5-1.2,1.2-1.2c0,0,0,0,0,0c0.6,0,1.2,0.5,1.2,1.2v9.3C2.3,123.2,1.8,123.7,1.2,123.7L1.2,123.7z M1.2,105
				c-0.6,0-1.2-0.5-1.2-1.2c0,0,0,0,0,0v-9.3c0-0.6,0.5-1.2,1.2-1.2c0,0,0,0,0,0c0.6,0,1.2,0.5,1.2,1.2v9.3
				C2.3,104.5,1.8,105,1.2,105L1.2,105z M1.2,86.4c-0.6,0-1.2-0.5-1.2-1.2c0,0,0,0,0,0v-9.3c0-0.6,0.5-1.2,1.2-1.2c0,0,0,0,0,0
				c0.6,0,1.2,0.5,1.2,1.2v9.3C2.3,85.8,1.8,86.4,1.2,86.4L1.2,86.4z M1.2,67.7c-0.6,0-1.2-0.5-1.2-1.2c0,0,0,0,0,0v-9.3
				C0,56.5,0.5,56,1.2,56c0,0,0,0,0,0c0.6,0,1.2,0.5,1.2,1.2v9.3C2.3,67.2,1.8,67.7,1.2,67.7C1.2,67.7,1.2,67.7,1.2,67.7L1.2,67.7z
				 M1.2,49C0.5,49,0,48.5,0,47.9c0,0,0,0,0,0v-9.3c0-0.6,0.5-1.2,1.2-1.2c0,0,0,0,0,0c0.6,0,1.2,0.5,1.2,1.2v9.3
				C2.3,48.5,1.8,49,1.2,49L1.2,49z M1.2,30.3c-0.6,0-1.2-0.5-1.2-1.2c0,0,0,0,0,0v-9.3c0-0.6,0.5-1.2,1.2-1.2c0,0,0,0,0,0
				c0.6,0,1.2,0.5,1.2,1.2v9.3C2.3,29.8,1.8,30.3,1.2,30.3L1.2,30.3z M1.2,11.7c-0.6,0-1.2-0.5-1.2-1.2c0,0,0,0,0,0V1.2
				C0,0.5,0.5,0,1.2,0c0,0,0,0,0,0c0.6,0,1.2,0.5,1.2,1.2v9.3C2.3,11.2,1.8,11.7,1.2,11.7L1.2,11.7z"/>
		</g>
		<g transform="translate(407.596 219.402)">
			<path class="st4" d="M5.9,7H1.2C0.5,7,0,6.5,0,5.9c0,0,0,0,0,0c0-0.6,0.5-1.2,1.2-1.2l0,0h3.5V1.2C4.7,0.5,5.2,0,5.9,0l0,0
				C6.5,0,7,0.5,7,1.2v4.7C7,6.5,6.5,7,5.9,7L5.9,7z"/>
		</g>
		<g transform="translate(14.057 224.088)">
			<path class="st4" d="M385.3,2.3H376c-0.6,0-1.2-0.5-1.2-1.2c0,0,0,0,0,0c0-0.6,0.5-1.2,1.2-1.2h9.4c0.6,0,1.2,0.5,1.2,1.2
				c0,0,0,0,0,0C386.5,1.8,386,2.3,385.3,2.3C385.3,2.3,385.3,2.3,385.3,2.3z M366.6,2.3h-9.4c-0.6,0-1.2-0.5-1.2-1.2c0,0,0,0,0,0
				c0-0.6,0.5-1.2,1.2-1.2h9.4c0.6,0,1.2,0.5,1.2,1.2c0,0,0,0,0,0C367.8,1.8,367.2,2.3,366.6,2.3C366.6,2.3,366.6,2.3,366.6,2.3z
				 M347.9,2.3h-9.4c-0.6,0-1.2-0.5-1.2-1.2c0-0.6,0.5-1.2,1.2-1.2h9.4c0.6,0,1.2,0.5,1.2,1.2c0,0,0,0,0,0
				C349,1.8,348.5,2.3,347.9,2.3C347.9,2.3,347.9,2.3,347.9,2.3z M329.1,2.3h-9.4c-0.6,0-1.2-0.5-1.2-1.2c0,0,0,0,0,0
				c0-0.6,0.5-1.2,1.2-1.2l0,0h9.4c0.6,0,1.2,0.5,1.2,1.2c0,0,0,0,0,0C330.3,1.8,329.8,2.3,329.1,2.3C329.1,2.3,329.1,2.3,329.1,2.3
				z M310.4,2.3H301c-0.6,0-1.2-0.5-1.2-1.2c0,0,0,0,0,0c0-0.6,0.5-1.2,1.2-1.2c0,0,0,0,0,0h9.4c0.6,0,1.2,0.5,1.2,1.2c0,0,0,0,0,0
				C311.6,1.8,311,2.3,310.4,2.3C310.4,2.3,310.4,2.3,310.4,2.3z M291.6,2.3h-9.4c-0.6,0-1.2-0.5-1.2-1.2c0,0,0,0,0,0
				c0-0.6,0.5-1.2,1.2-1.2c0,0,0,0,0,0h9.4c0.6,0,1.2,0.5,1.2,1.2c0,0,0,0,0,0C292.8,1.8,292.3,2.3,291.6,2.3
				C291.6,2.3,291.6,2.3,291.6,2.3L291.6,2.3z M272.9,2.3h-9.4c-0.6,0-1.2-0.5-1.2-1.2c0,0,0,0,0,0c0-0.6,0.5-1.2,1.2-1.2
				c0,0,0,0,0,0h9.4c0.6,0,1.2,0.5,1.2,1.2c0,0,0,0,0,0C274.1,1.8,273.5,2.3,272.9,2.3C272.9,2.3,272.9,2.3,272.9,2.3L272.9,2.3z
				 M254.2,2.3h-9.4c-0.6,0-1.2-0.5-1.2-1.2c0,0,0,0,0,0c0-0.6,0.5-1.2,1.2-1.2c0,0,0,0,0,0h9.4c0.6,0,1.2,0.5,1.2,1.2c0,0,0,0,0,0
				C255.3,1.8,254.8,2.3,254.2,2.3C254.2,2.3,254.2,2.3,254.2,2.3z M235.4,2.3H226c-0.6,0-1.2-0.5-1.2-1.2c0,0,0,0,0,0
				c0-0.6,0.5-1.2,1.2-1.2l0,0h9.4c0.6,0,1.2,0.5,1.2,1.2c0,0,0,0,0,0C236.6,1.8,236.1,2.3,235.4,2.3L235.4,2.3L235.4,2.3z
				 M216.7,2.3h-9.4c-0.6,0-1.2-0.5-1.2-1.2c0,0,0,0,0,0c0-0.6,0.5-1.2,1.2-1.2c0,0,0,0,0,0h9.4c0.6,0,1.2,0.5,1.2,1.2c0,0,0,0,0,0
				C217.9,1.8,217.3,2.3,216.7,2.3C216.7,2.3,216.7,2.3,216.7,2.3L216.7,2.3z M197.9,2.3h-9.4c-0.6,0-1.2-0.5-1.2-1.2c0,0,0,0,0,0
				c0-0.6,0.5-1.2,1.2-1.2l0,0h9.4c0.6,0,1.2,0.5,1.2,1.2C199.1,1.8,198.6,2.3,197.9,2.3C197.9,2.3,197.9,2.3,197.9,2.3L197.9,2.3z
				 M179.2,2.3h-9.4c-0.6,0-1.2-0.5-1.2-1.2c0,0,0,0,0,0c0-0.6,0.5-1.2,1.2-1.2l0,0h9.4c0.6,0,1.2,0.5,1.2,1.2
				C180.4,1.8,179.9,2.3,179.2,2.3C179.2,2.3,179.2,2.3,179.2,2.3L179.2,2.3z M160.5,2.3h-9.4c-0.6,0-1.2-0.5-1.2-1.2c0,0,0,0,0,0
				c0-0.6,0.5-1.2,1.2-1.2h9.4c0.6,0,1.2,0.5,1.2,1.2c0,0,0,0,0,0C161.6,1.8,161.1,2.3,160.5,2.3C160.5,2.3,160.5,2.3,160.5,2.3
				L160.5,2.3z M141.7,2.3h-9.4c-0.6,0-1.2-0.5-1.2-1.2c0,0,0,0,0,0c0-0.6,0.5-1.2,1.2-1.2h9.4c0.6,0,1.2,0.5,1.2,1.2c0,0,0,0,0,0
				C142.9,1.8,142.4,2.3,141.7,2.3C141.7,2.3,141.7,2.3,141.7,2.3L141.7,2.3z M123,2.3h-9.4c-0.6,0-1.2-0.5-1.2-1.2c0,0,0,0,0,0
				c0-0.6,0.5-1.2,1.2-1.2h9.4c0.6,0,1.2,0.5,1.2,1.2c0,0,0,0,0,0C124.2,1.8,123.6,2.3,123,2.3C123,2.3,123,2.3,123,2.3L123,2.3z
				 M104.2,2.3h-9.4c-0.6,0-1.2-0.5-1.2-1.2c0,0,0,0,0,0c0-0.6,0.5-1.2,1.2-1.2h9.4c0.6,0,1.2,0.5,1.2,1.2c0,0,0,0,0,0
				C105.4,1.8,104.9,2.3,104.2,2.3C104.2,2.3,104.2,2.3,104.2,2.3L104.2,2.3z M85.5,2.3h-9.4c-0.6,0-1.2-0.5-1.2-1.2c0,0,0,0,0,0
				C75,0.5,75.5,0,76.1,0c0,0,0,0,0,0h9.4c0.6,0,1.2,0.5,1.2,1.2c0,0,0,0,0,0C86.7,1.8,86.2,2.3,85.5,2.3
				C85.5,2.3,85.5,2.3,85.5,2.3L85.5,2.3z M66.8,2.3h-9.4c-0.6,0-1.2-0.5-1.2-1.2c0,0,0,0,0,0c0-0.6,0.5-1.2,1.2-1.2c0,0,0,0,0,0
				h9.4c0.6,0,1.2,0.5,1.2,1.2c0,0,0,0,0,0C67.9,1.8,67.4,2.3,66.8,2.3C66.8,2.3,66.8,2.3,66.8,2.3L66.8,2.3z M48,2.3h-9.4
				c-0.6,0-1.2-0.5-1.2-1.2c0,0,0,0,0,0C37.5,0.5,38,0,38.7,0c0,0,0,0,0,0H48c0.6,0,1.2,0.5,1.2,1.2c0,0,0,0,0,0
				C49.2,1.8,48.7,2.3,48,2.3C48,2.3,48,2.3,48,2.3L48,2.3z M29.3,2.3h-9.4c-0.6,0-1.2-0.5-1.2-1.2c0,0,0,0,0,0
				c0-0.6,0.5-1.2,1.2-1.2c0,0,0,0,0,0h9.4c0.6,0,1.2,0.5,1.2,1.2c0,0,0,0,0,0C30.5,1.8,29.9,2.3,29.3,2.3
				C29.3,2.3,29.3,2.3,29.3,2.3L29.3,2.3z M10.5,2.3H1.2C0.5,2.3,0,1.8,0,1.2c0,0,0,0,0,0C0,0.5,0.5,0,1.2,0c0,0,0,0,0,0h9.4
				c0.6,0,1.2,0.5,1.2,1.2c0,0,0,0,0,0C11.7,1.8,11.2,2.3,10.5,2.3C10.5,2.3,10.5,2.3,10.5,2.3L10.5,2.3z"/>
		</g>
		<g transform="translate(0 219.402)">
			<path class="st4" d="M5.9,7H1.2C0.5,7,0,6.5,0,5.9c0,0,0,0,0,0V1.2C0,0.5,0.5,0,1.2,0c0,0,0,0,0,0c0.6,0,1.2,0.5,1.2,1.2
				c0,0,0,0,0,0v3.5h3.5C6.5,4.7,7,5.2,7,5.9c0,0,0,0,0,0C7,6.5,6.5,7,5.9,7C5.9,7,5.9,7,5.9,7z"/>
		</g>
		<g transform="translate(0 14.021)">
			<path class="st4" d="M1.2,198.4c-0.6,0-1.2-0.5-1.2-1.2c0,0,0,0,0,0v-9.3c0-0.6,0.5-1.2,1.2-1.2c0,0,0,0,0,0
				c0.6,0,1.2,0.5,1.2,1.2c0,0,0,0,0,0v9.3C2.3,197.9,1.8,198.4,1.2,198.4C1.2,198.4,1.2,198.4,1.2,198.4z M1.2,179.7
				c-0.6,0-1.2-0.5-1.2-1.2c0,0,0,0,0,0v-9.3c0-0.6,0.5-1.2,1.2-1.2c0,0,0,0,0,0c0.6,0,1.2,0.5,1.2,1.2c0,0,0,0,0,0v9.3
				C2.3,179.2,1.8,179.7,1.2,179.7C1.2,179.7,1.2,179.7,1.2,179.7z M1.2,161c-0.6,0-1.2-0.5-1.2-1.2c0,0,0,0,0,0v-9.3
				c0-0.6,0.5-1.2,1.2-1.2c0,0,0,0,0,0c0.6,0,1.2,0.5,1.2,1.2c0,0,0,0,0,0v9.3C2.3,160.5,1.8,161,1.2,161C1.2,161,1.2,161,1.2,161
				L1.2,161z M1.2,142.4c-0.6,0-1.2-0.5-1.2-1.2c0,0,0,0,0,0v-9.3c0-0.6,0.5-1.2,1.2-1.2c0,0,0,0,0,0c0.6,0,1.2,0.5,1.2,1.2
				c0,0,0,0,0,0v9.3C2.3,141.8,1.8,142.4,1.2,142.4C1.2,142.4,1.2,142.4,1.2,142.4L1.2,142.4z M1.2,123.7c-0.6,0-1.2-0.5-1.2-1.2
				c0,0,0,0,0,0v-9.3c0-0.6,0.5-1.2,1.2-1.2c0,0,0,0,0,0c0.6,0,1.2,0.5,1.2,1.2c0,0,0,0,0,0v9.3C2.3,123.2,1.8,123.7,1.2,123.7
				C1.2,123.7,1.2,123.7,1.2,123.7L1.2,123.7z M1.2,105c-0.6,0-1.2-0.5-1.2-1.2c0,0,0,0,0,0v-9.3c0-0.6,0.5-1.2,1.2-1.2c0,0,0,0,0,0
				c0.6,0,1.2,0.5,1.2,1.2c0,0,0,0,0,0v9.3C2.3,104.5,1.8,105,1.2,105C1.2,105,1.2,105,1.2,105L1.2,105z M1.2,86.4
				c-0.6,0-1.2-0.5-1.2-1.2c0,0,0,0,0,0v-9.3c0-0.6,0.5-1.2,1.2-1.2c0,0,0,0,0,0c0.6,0,1.2,0.5,1.2,1.2c0,0,0,0,0,0v9.3
				C2.3,85.8,1.8,86.4,1.2,86.4C1.2,86.4,1.2,86.4,1.2,86.4L1.2,86.4z M1.2,67.7c-0.6,0-1.2-0.5-1.2-1.2c0,0,0,0,0,0v-9.3
				C0,56.5,0.5,56,1.2,56c0,0,0,0,0,0c0.6,0,1.2,0.5,1.2,1.2c0,0,0,0,0,0v9.3C2.3,67.2,1.8,67.7,1.2,67.7
				C1.2,67.7,1.2,67.7,1.2,67.7L1.2,67.7z M1.2,49C0.5,49,0,48.5,0,47.9c0,0,0,0,0,0v-9.3c0-0.6,0.5-1.2,1.2-1.2c0,0,0,0,0,0
				c0.6,0,1.2,0.5,1.2,1.2c0,0,0,0,0,0v9.3C2.3,48.5,1.8,49,1.2,49L1.2,49L1.2,49z M1.2,30.3c-0.6,0-1.2-0.5-1.2-1.2c0,0,0,0,0,0
				v-9.3c0-0.6,0.5-1.2,1.2-1.2c0,0,0,0,0,0c0.6,0,1.2,0.5,1.2,1.2c0,0,0,0,0,0v9.3C2.3,29.8,1.8,30.3,1.2,30.3L1.2,30.3L1.2,30.3z
				 M1.2,11.7c-0.6,0-1.2-0.5-1.2-1.2c0,0,0,0,0,0V1.2C0,0.5,0.5,0,1.2,0c0,0,0,0,0,0c0.6,0,1.2,0.5,1.2,1.2c0,0,0,0,0,0v9.3
				C2.3,11.2,1.8,11.7,1.2,11.7L1.2,11.7L1.2,11.7z"/>
		</g>
		<g transform="translate(0)">
			<path class="st4" d="M1.2,7C0.5,7,0,6.5,0,5.9c0,0,0,0,0,0V1.2C0,0.5,0.5,0,1.2,0c0,0,0,0,0,0h4.7C6.5,0,7,0.5,7,1.2c0,0,0,0,0,0
				c0,0.6-0.5,1.2-1.2,1.2c0,0,0,0,0,0H2.3v3.5C2.3,6.5,1.8,7,1.2,7C1.2,7,1.2,7,1.2,7z"/>
		</g>
		<g transform="translate(14.817)">
			<path class="st4" d="M92.4,2.3H82.2c-0.6,0-1.2-0.5-1.2-1.2c0,0,0,0,0,0c0-0.6,0.5-1.2,1.2-1.2c0,0,0,0,0,0h10.1
				c0.6,0,1.2,0.5,1.2,1.2c0,0,0,0,0,0C93.5,1.8,93,2.3,92.4,2.3L92.4,2.3z M72.1,2.3H62c-0.6,0-1.2-0.5-1.2-1.2c0,0,0,0,0,0
				C60.8,0.5,61.3,0,62,0c0,0,0,0,0,0h10.1c0.6,0,1.2,0.5,1.2,1.2c0,0,0,0,0,0C73.3,1.8,72.7,2.3,72.1,2.3
				C72.1,2.3,72.1,2.3,72.1,2.3z M51.8,2.3H41.7c-0.6,0-1.2-0.5-1.2-1.2c0,0,0,0,0,0c0-0.6,0.5-1.2,1.2-1.2c0,0,0,0,0,0h10.1
				C52.5,0,53,0.5,53,1.2c0,0,0,0,0,0C53,1.8,52.5,2.3,51.8,2.3C51.8,2.3,51.8,2.3,51.8,2.3z M31.6,2.3H21.4c-0.6,0-1.2-0.5-1.2-1.2
				c0,0,0,0,0,0c0-0.6,0.5-1.2,1.2-1.2c0,0,0,0,0,0h10.1c0.6,0,1.2,0.5,1.2,1.2C32.7,1.8,32.2,2.3,31.6,2.3z M11.3,2.3H1.2
				C0.5,2.3,0,1.8,0,1.2C0,0.5,0.5,0,1.2,0h10.1c0.6,0,1.2,0.5,1.2,1.2C12.5,1.8,11.9,2.3,11.3,2.3L11.3,2.3z"/>
		</g>
		<g transform="translate(116.134)">
			<path class="st4" d="M5.9,2.3H1.2C0.5,2.3,0,1.8,0,1.2c0,0,0,0,0,0C0,0.5,0.5,0,1.2,0c0,0,0,0,0,0h4.7C6.5,0,7,0.5,7,1.2
				C7,1.8,6.5,2.3,5.9,2.3z"/>
		</g>
	</g>
	<g transform="translate(1268.325 -619.081)">
		<g transform="translate(0 0)">
			<path class="st0" d="M37.6,2.3H1.2C0.5,2.3,0,1.8,0,1.2c0,0,0,0,0,0C0,0.5,0.5,0,1.2,0c0,0,0,0,0,0h36.4c0.6,0,1.2,0.5,1.2,1.2
				C38.8,1.8,38.3,2.3,37.6,2.3L37.6,2.3z"/>
		</g>
	</g>
	<g transform="translate(1300.619 -648.551)">
		<g transform="translate(11.169 15.114)">
			<path class="st0" d="M31,15.5C31,6.9,24.1,0,15.5,0c0,0,0,0,0,0C6.9,0,0,6.9,0,15.5V42h31L31,15.5z"/>
		</g>
		<g transform="translate(25.514 18.262)">
			<path class="st5" d="M12.4,13.5c-0.6,0-1.2-0.5-1.2-1.2c0-5.5-4.5-10-10-10C0.5,2.3,0,1.8,0,1.2c0,0,0,0,0,0C0,0.5,0.5,0,1.2,0
				c0,0,0,0,0,0C8,0,13.5,5.5,13.5,12.4C13.5,13,13,13.5,12.4,13.5C12.4,13.5,12.4,13.5,12.4,13.5z"/>
		</g>
		<g transform="translate(19.776 19.12)">
			<path class="st5" d="M1.2,3.1c-0.4,0-0.8-0.2-1-0.6C-0.2,1.9,0,1.2,0.6,0.9c0.5-0.3,1-0.6,1.6-0.8c0.6-0.2,1.3,0,1.5,0.6
				c0,0,0,0,0,0c0.2,0.6,0,1.3-0.6,1.5C2.6,2.4,2.2,2.7,1.8,2.9C1.6,3,1.4,3.1,1.2,3.1z"/>
		</g>
		<g transform="translate(25.514)">
			<path class="st0" d="M1.2,10.4C0.5,10.4,0,9.9,0,9.3c0,0,0,0,0,0V1.2C0,0.5,0.5,0,1.2,0c0,0,0,0,0,0c0.6,0,1.2,0.5,1.2,1.2
				c0,0,0,0,0,0v8.1C2.3,9.9,1.8,10.4,1.2,10.4C1.2,10.4,1.2,10.4,1.2,10.4z"/>
		</g>
		<g transform="translate(46.887 29.459)">
			<path class="st0" d="M26.1,2.3H1.2C0.5,2.3,0,1.8,0,1.2c0,0,0,0,0,0C0,0.5,0.5,0,1.2,0c0,0,0,0,0,0h24.9c0.6,0,1.2,0.5,1.2,1.2
				c0,0,0,0,0,0C27.3,1.8,26.8,2.3,26.1,2.3L26.1,2.3z"/>
		</g>
		<g transform="translate(44.023 14.728)">
			<path class="st0" d="M1.2,6.4c-0.4,0-0.8-0.2-1-0.6C-0.2,5.2,0,4.5,0.6,4.2c0,0,0,0,0,0l7-4C8.1-0.2,8.9,0,9.2,0.6c0,0,0,0,0,0
				c0.3,0.6,0.1,1.3-0.4,1.6c0,0,0,0,0,0l-7,4C1.6,6.3,1.4,6.4,1.2,6.4z"/>
		</g>
		<g transform="translate(0 40.145)">
			<path class="st0" d="M1.2,6.4c-0.4,0-0.8-0.2-1-0.6C-0.2,5.2,0,4.5,0.6,4.2c0,0,0,0,0,0l7-4C8.1-0.2,8.9,0,9.2,0.6
				c0.3,0.6,0.1,1.3-0.4,1.6c0,0,0,0,0,0l-7,4C1.6,6.3,1.4,6.4,1.2,6.4z"/>
		</g>
		<g transform="translate(0 14.728)">
			<path class="st0" d="M8.2,6.4C8,6.4,7.8,6.3,7.6,6.2l-7-4C0,1.9-0.2,1.1,0.2,0.6c0,0,0,0,0,0c0.3-0.6,1-0.8,1.6-0.4c0,0,0,0,0,0
				l7,4c0.6,0.3,0.8,1,0.4,1.6c0,0,0,0,0,0C9,6.2,8.6,6.4,8.2,6.4z"/>
		</g>
		<g transform="translate(44.023 40.145)">
			<path class="st0" d="M8.2,6.4C8,6.4,7.8,6.3,7.6,6.2l-7-4C0,1.9-0.2,1.1,0.2,0.6c0,0,0,0,0,0c0.3-0.6,1-0.8,1.6-0.4l7,4
				c0.6,0.3,0.8,1,0.4,1.6c0,0,0,0,0,0C9,6.2,8.6,6.4,8.2,6.4z"/>
		</g>
		<g transform="translate(36.199 3.946)">
			<path class="st0" d="M1.2,9.3C1,9.3,0.8,9.3,0.6,9.2C0,8.9-0.2,8.2,0.2,7.6c0,0,0,0,0,0l4-7c0.3-0.6,1-0.8,1.6-0.4c0,0,0,0,0,0
				c0.6,0.3,0.8,1,0.4,1.6c0,0,0,0,0,0l-4,7C2,9.1,1.6,9.3,1.2,9.3z"/>
		</g>
		<g transform="translate(10.783 3.946)">
			<path class="st0" d="M5.2,9.3c-0.4,0-0.8-0.2-1-0.6l-4-7C-0.2,1.2,0,0.5,0.6,0.2c0,0,0,0,0,0C1.1-0.2,1.9,0,2.2,0.6l4,7
				c0.3,0.6,0.1,1.3-0.4,1.6c0,0,0,0,0,0C5.6,9.3,5.4,9.3,5.2,9.3z"/>
		</g>
		<g transform="translate(6.704 55.922)">
			<line class="st3" x1="1.2" y1="1.2" x2="38.8" y2="1.2"/>
			<path class="st4" d="M38.8,2.3H1.2C0.5,2.3,0,1.8,0,1.2c0,0,0,0,0,0C0,0.5,0.5,0,1.2,0h37.6C39.4,0,40,0.5,40,1.2c0,0,0,0,0,0
				C40,1.8,39.4,2.3,38.8,2.3C38.8,2.3,38.8,2.3,38.8,2.3z"/>
		</g>
		<g transform="translate(39.858 55.922)">
			<line class="st3" x1="1.2" y1="9.7" x2="1.2" y2="1.2"/>
			<path class="st4" d="M1.2,10.9C0.5,10.9,0,10.4,0,9.7c0,0,0,0,0,0V1.2C0,0.5,0.5,0,1.2,0c0,0,0,0,0,0c0.6,0,1.2,0.5,1.2,1.2
				c0,0,0,0,0,0v8.6C2.3,10.4,1.8,10.9,1.2,10.9L1.2,10.9z"/>
		</g>
		<g transform="translate(11.169 55.922)">
			<line class="st3" x1="1.2" y1="9.7" x2="1.2" y2="1.2"/>
			<path class="st4" d="M1.2,10.9C0.5,10.9,0,10.4,0,9.7c0,0,0,0,0,0V1.2C0,0.5,0.5,0,1.2,0c0.6,0,1.2,0.5,1.2,1.2v8.6
				C2.3,10.4,1.8,10.9,1.2,10.9z"/>
		</g>
	</g>
	<g transform="translate(1365.737 -623.451)">
		<path class="st0" d="M1.2,11.1c-0.4,0-0.8-0.2-1-0.5C-0.2,10,0,9.3,0.5,8.9l5.2-3.4L0.5,2.2C0,1.8-0.2,1.1,0.2,0.5v0
			C0.5,0,1.3-0.2,1.8,0.2c0,0,0,0,0,0l6.7,4.4C8.8,4.8,9,5.1,9,5.5c0,0.4-0.2,0.8-0.5,1l-6.7,4.4C1.6,11,1.4,11.1,1.2,11.1z"/>
	</g>
	<g transform="translate(1298.052 -623.451)">
		<path class="st0" d="M1.2,11.1c-0.4,0-0.8-0.2-1-0.5C-0.2,10,0,9.3,0.5,8.9c0,0,0,0,0,0l5.2-3.4L0.5,2.2C0,1.8-0.2,1.1,0.2,0.5v0
			C0.5,0,1.3-0.2,1.8,0.2l6.7,4.4c0.3,0.2,0.5,0.6,0.5,1c0,0.4-0.2,0.8-0.5,1l-6.7,4.4C1.6,11,1.4,11.1,1.2,11.1z"/>
	</g>
	<g transform="translate(1364.564 -643.898)">
		<g transform="translate(89.417)">
			<rect x="1.2" y="1.2" class="st2" width="22.4" height="49.6"/>
			<path class="st2" d="M23.6,52H1.2C0.5,52,0,51.4,0,50.8c0,0,0,0,0,0V1.2C0,0.5,0.5,0,1.2,0l0,0h22.4c0.6,0,1.2,0.5,1.2,1.2
				c0,0,0,0,0,0v49.6C24.7,51.4,24.2,52,23.6,52C23.6,52,23.6,52,23.6,52z M2.3,49.6h20V2.3h-20V49.6z"/>
		</g>
		<g transform="translate(21.87 24.806)">
			<path class="st0" d="M39.5,2.3H1.2C0.5,2.3,0,1.8,0,1.2C0,0.5,0.5,0,1.2,0c0,0,0,0,0,0h38.4c0.6,0,1.2,0.5,1.2,1.2c0,0,0,0,0,0
				C40.7,1.8,40.2,2.3,39.5,2.3C39.5,2.3,39.5,2.3,39.5,2.3z"/>
		</g>
		<g transform="translate(54.344 20.446)">
			<path class="st0" d="M1.2,11.1c-0.4,0-0.8-0.2-1-0.5C-0.2,10,0,9.3,0.5,8.9c0,0,0,0,0,0l5.2-3.4L0.5,2.2C0,1.8-0.2,1.1,0.2,0.5v0
				C0.5,0,1.3-0.2,1.8,0.2l6.7,4.4c0.3,0.2,0.5,0.6,0.5,1c0,0.4-0.2,0.8-0.5,1l-6.7,4.4C1.6,11,1.4,11.1,1.2,11.1z"/>
		</g>
		<g transform="translate(74.241 24.806)">
			<path class="st0" d="M27.5,2.3H1.2C0.5,2.3,0,1.8,0,1.2c0,0,0,0,0,0C0,0.5,0.5,0,1.2,0c0,0,0,0,0,0h26.4c0.6,0,1.2,0.5,1.2,1.2
				c0,0,0,0,0,0C28.7,1.8,28.2,2.3,27.5,2.3C27.5,2.3,27.5,2.3,27.5,2.3z"/>
		</g>
		<g transform="translate(92.47 20.446)">
			<path class="st0" d="M1.2,11.1c-0.4,0-0.8-0.2-1-0.5C-0.2,10,0,9.3,0.5,8.9c0,0,0,0,0,0l5.2-3.4L0.5,2.2C0,1.8-0.2,1.1,0.2,0.5
				c0,0,0,0,0,0C0.5,0,1.3-0.2,1.8,0.2l6.7,4.4c0.3,0.2,0.5,0.6,0.5,1c0,0.4-0.2,0.8-0.5,1l-6.7,4.4C1.6,11,1.4,11.1,1.2,11.1z"/>
		</g>
		<g transform="translate(0 13.091)">
			<path class="st2" d="M101.8,2.3H1.2C0.5,2.3,0,1.8,0,1.2C0,0.5,0.5,0,1.2,0c0,0,0,0,0,0h100.7c0.6,0,1.2,0.5,1.2,1.2c0,0,0,0,0,0
				C103,1.8,102.5,2.3,101.8,2.3L101.8,2.3z"/>
		</g>
		<g transform="translate(0 36.521)">
			<path class="st2" d="M101.8,2.3H1.2C0.5,2.3,0,1.8,0,1.2C0,0.5,0.5,0,1.2,0c0,0,0,0,0,0h100.7c0.6,0,1.2,0.5,1.2,1.2c0,0,0,0,0,0
				C103,1.8,102.5,2.3,101.8,2.3L101.8,2.3z"/>
		</g>
		<g transform="translate(100.612 20.447)">
			<path class="st0" d="M1.2,11.1C0.5,11.1,0,10.5,0,9.9c0,0,0,0,0,0V1.2C0,0.5,0.5,0,1.2,0c0.6,0,1.2,0.5,1.2,1.2c0,0,0,0,0,0v8.7
				C2.3,10.5,1.8,11.1,1.2,11.1C1.2,11.1,1.2,11.1,1.2,11.1z"/>
		</g>
	</g>
	<g transform="translate(1699.953 -671.657)">
		<g transform="translate(20.021)">
			<path class="st4" d="M60.4,107.6H1.2c-0.6,0-1.2-0.5-1.2-1.2c0,0,0,0,0,0V1.2C0,0.5,0.5,0,1.2,0h59.2c0.6,0,1.2,0.5,1.2,1.2
				c0,0,0,0,0,0v105.3C61.6,107.1,61,107.6,60.4,107.6C60.4,107.6,60.4,107.6,60.4,107.6z M2.3,105.3h56.9V2.3H2.3V105.3z"/>
		</g>
		<g transform="translate(27.194 7.173)">
			<path class="st4" d="M46,71.8H1.2c-0.6,0-1.2-0.5-1.2-1.2c0,0,0,0,0,0V1.2C0,0.5,0.5,0,1.2,0H46c0.6,0,1.2,0.5,1.2,1.2
				c0,0,0,0,0,0v69.5C47.2,71.3,46.7,71.8,46,71.8C46,71.8,46,71.8,46,71.8z M2.3,69.5h42.5V2.3H2.3V69.5z"/>
		</g>
		<g transform="translate(27.194 21.07)">
			<line class="st3" x1="1.2" y1="1.2" x2="46" y2="1.2"/>
			<path class="st4" d="M46,2.3H1.2C0.5,2.3,0,1.8,0,1.2C0,0.5,0.5,0,1.2,0H46c0.6,0,1.2,0.5,1.2,1.2c0,0,0,0,0,0
				C47.2,1.8,46.7,2.3,46,2.3C46,2.3,46,2.3,46,2.3z"/>
		</g>
		<g transform="translate(27.194 34.968)">
			<line class="st3" x1="1.2" y1="1.2" x2="46" y2="1.2"/>
			<path class="st4" d="M46,2.3H1.2C0.5,2.3,0,1.8,0,1.2C0,0.5,0.5,0,1.2,0l0,0H46c0.6,0,1.2,0.5,1.2,1.2c0,0,0,0,0,0
				C47.2,1.8,46.7,2.3,46,2.3C46,2.3,46,2.3,46,2.3z"/>
		</g>
		<g transform="translate(27.194 48.864)">
			<line class="st3" x1="1.2" y1="1.2" x2="46" y2="1.2"/>
			<path class="st4" d="M46,2.3H1.2C0.5,2.3,0,1.8,0,1.2c0,0,0,0,0,0C0,0.5,0.5,0,1.2,0H46c0.6,0,1.2,0.5,1.2,1.2c0,0,0,0,0,0
				C47.2,1.8,46.7,2.3,46,2.3C46,2.3,46,2.3,46,2.3z"/>
		</g>
		<g transform="translate(27.194 62.762)">
			<line class="st3" x1="1.2" y1="1.2" x2="46" y2="1.2"/>
			<path class="st4" d="M46,2.3H1.2C0.5,2.3,0,1.8,0,1.2C0,0.5,0.5,0,1.2,0c0,0,0,0,0,0H46c0.6,0,1.2,0.5,1.2,1.2c0,0,0,0,0,0
				C47.2,1.8,46.7,2.3,46,2.3C46,2.3,46,2.3,46,2.3z"/>
		</g>
		<g transform="translate(10.582 105.269)">
			<path class="st4" d="M75.8,2.3H1.2C0.5,2.3,0,1.8,0,1.2c0,0,0,0,0,0C0,0.5,0.5,0,1.2,0c0,0,0,0,0,0h74.7C76.5,0,77,0.5,77,1.2
				c0,0,0,0,0,0C77,1.8,76.5,2.3,75.8,2.3C75.8,2.3,75.8,2.3,75.8,2.3z"/>
		</g>
		<g transform="translate(33.57 7.173)">
			<path class="st2" d="M8.4,2.3H1.2C0.5,2.3,0,1.8,0,1.2c0,0,0,0,0,0C0,0.5,0.5,0,1.2,0c0,0,0,0,0,0h7.3c0.6,0,1.2,0.5,1.2,1.2
				C9.6,1.8,9.1,2.3,8.4,2.3z"/>
		</g>
		<g transform="translate(49.022 21.07)">
			<path class="st2" d="M8.4,2.3H1.2C0.5,2.3,0,1.8,0,1.2c0,0,0,0,0,0C0,0.5,0.5,0,1.2,0c0,0,0,0,0,0h7.3c0.6,0,1.2,0.5,1.2,1.2
				c0,0,0,0,0,0C9.6,1.8,9.1,2.3,8.4,2.3L8.4,2.3z"/>
		</g>
		<g transform="translate(58.762 62.761)">
			<path class="st2" d="M8.4,2.3H1.2C0.5,2.3,0,1.8,0,1.2c0,0,0,0,0,0C0,0.5,0.5,0,1.2,0c0,0,0,0,0,0h7.3c0.6,0,1.2,0.5,1.2,1.2
				C9.6,1.8,9.1,2.3,8.4,2.3z"/>
		</g>
		<g transform="translate(0 105.268)">
			<path class="st4" d="M5.6,2.3H1.2C0.5,2.3,0,1.8,0,1.2S0.5,0,1.2,0h4.4c0.6,0,1.2,0.5,1.2,1.2S6.2,2.3,5.6,2.3z"/>
		</g>
		<g transform="translate(92.361 105.268)">
			<path class="st4" d="M13.2,2.3H1.2C0.5,2.3,0,1.8,0,1.2c0,0,0,0,0,0C0,0.5,0.5,0,1.2,0c0,0,0,0,0,0h12.1c0.6,0,1.2,0.5,1.2,1.2
				c0,0,0,0,0,0C14.4,1.8,13.9,2.3,13.2,2.3C13.2,2.3,13.2,2.3,13.2,2.3z"/>
		</g>
	</g>
	<g transform="translate(1122.645 -647.241)">
		<g transform="translate(13.902 13.902)">
			<path class="st2" d="M17.1,31h-3.1c-0.5,0-1-0.3-1.1-0.8L12,27.3c-0.8-0.2-1.6-0.6-2.3-1L7,27.7c-0.5,0.3-1,0.2-1.4-0.2l-2.2-2.2
				C3,25,3,24.4,3.2,23.9l1.4-2.6c-0.4-0.7-0.7-1.5-1-2.3l-2.8-0.8C0.3,18,0,17.6,0,17.1v-3.1c0-0.5,0.3-1,0.8-1.1L3.7,12
				c0.2-0.8,0.6-1.6,1-2.3L3.2,7C3,6.6,3,6,3.4,5.6l2.2-2.2C6,3,6.6,3,7,3.2l2.6,1.4c0.7-0.4,1.5-0.7,2.3-1l0.8-2.8
				C12.9,0.3,13.4,0,13.9,0h3.1c0.5,0,1,0.3,1.1,0.8L19,3.7c0.8,0.2,1.6,0.6,2.3,1l2.6-1.4C24.4,3,25,3,25.3,3.4l2.2,2.2
				C27.9,6,28,6.6,27.8,7l-1.4,2.6c0.4,0.7,0.7,1.5,1,2.3l2.8,0.8c0.5,0.1,0.8,0.6,0.8,1.1v3.1c0,0.5-0.3,1-0.8,1.1L27.3,19
				c-0.2,0.8-0.6,1.6-1,2.3l1.4,2.6c0.3,0.5,0.2,1-0.2,1.4l-2.2,2.2c-0.4,0.4-0.9,0.5-1.4,0.2l-2.6-1.4c-0.7,0.4-1.5,0.7-2.3,1
				l-0.8,2.8C18,30.6,17.6,31,17.1,31z M14.8,28.6h1.4l0.8-2.6c0.1-0.4,0.4-0.7,0.9-0.8c1-0.2,2-0.7,2.9-1.2c0.4-0.2,0.8-0.2,1.2,0
				l2.4,1.3l1-1l-1.3-2.4c-0.2-0.4-0.2-0.8,0-1.2c0.6-0.9,1-1.9,1.2-2.9c0.1-0.4,0.4-0.7,0.8-0.9l2.6-0.8v-1.4L26,14
				c-0.4-0.1-0.7-0.4-0.8-0.9c-0.2-1-0.7-2-1.2-2.9c-0.2-0.4-0.2-0.8,0-1.2l1.3-2.4l-1-1L21.9,7c-0.4,0.2-0.8,0.2-1.2,0
				c-0.9-0.6-1.9-1-2.9-1.2c-0.4-0.1-0.7-0.4-0.9-0.8l-0.8-2.6h-1.4L14,5c-0.1,0.4-0.4,0.7-0.9,0.8c-1,0.2-2,0.7-2.9,1.2
				C9.9,7.2,9.4,7.2,9.1,7L6.7,5.7l-1,1L7,9.1c0.2,0.4,0.2,0.8,0,1.2c-0.6,0.9-1,1.9-1.2,2.9C5.7,13.6,5.4,13.9,5,14l-2.6,0.8v1.4
				L5,16.9c0.4,0.1,0.7,0.4,0.8,0.9c0.2,1,0.7,2,1.2,2.9c0.2,0.4,0.2,0.8,0,1.2l-1.3,2.4l1,1l2.4-1.3c0.4-0.2,0.8-0.2,1.2,0
				c0.9,0.6,1.9,1,2.9,1.2c0.4,0.1,0.7,0.4,0.9,0.8L14.8,28.6z M29.8,17.1L29.8,17.1z"/>
			<g transform="translate(10.287 10.287)">
				<path class="st2" d="M5.2,10.4C2.3,10.4,0,8.1,0,5.2C0,2.3,2.3,0,5.2,0c2.9,0,5.2,2.3,5.2,5.2C10.4,8.1,8.1,10.4,5.2,10.4z
					 M5.2,2.3c-1.6,0-2.9,1.3-2.9,2.9c0,1.6,1.3,2.9,2.9,2.9c1.6,0,2.9-1.3,2.9-2.9C8.1,3.6,6.8,2.3,5.2,2.3z"/>
			</g>
		</g>
		<g transform="translate(0)">
			<path class="st2" d="M50.6,51.8H1.2c-0.6,0-1.2-0.5-1.2-1.2c0,0,0,0,0,0V1.2C0,0.5,0.5,0,1.2,0c0,0,0,0,0,0h49.4
				c0.6,0,1.2,0.5,1.2,1.2c0,0,0,0,0,0v49.4C51.8,51.2,51.2,51.8,50.6,51.8C50.6,51.8,50.6,51.8,50.6,51.8z M2.3,49.4h47.1V2.3H2.3
				V49.4z"/>
		</g>
		<g transform="translate(7.029 7.029)">
			<path class="st2" d="M50.6,51.8H1.2c-0.6,0-1.2-0.5-1.2-1.2c0,0,0,0,0,0V1.2C0,0.5,0.5,0,1.2,0c0,0,0,0,0,0h49.4
				c0.6,0,1.2,0.5,1.2,1.2c0,0,0,0,0,0v49.4C51.8,51.2,51.2,51.8,50.6,51.8C50.6,51.8,50.6,51.8,50.6,51.8z M2.3,49.4h47.1V2.3H2.3
				V49.4z"/>
		</g>
	</g>
	<g transform="translate(1616.675 -647.241)">
		<g transform="translate(13.903 13.902)">
			<path class="st4" d="M17.1,31h-3.1c-0.5,0-1-0.3-1.1-0.8L12,27.3c-0.8-0.2-1.6-0.6-2.3-1L7,27.7c-0.5,0.3-1,0.2-1.4-0.2l-2.2-2.2
				C3.1,25,3,24.4,3.2,23.9l1.4-2.6c-0.4-0.7-0.7-1.5-1-2.3l-2.8-0.8C0.3,18,0,17.6,0,17.1v-3.1c0-0.5,0.3-1,0.8-1.1L3.7,12
				c0.2-0.8,0.6-1.6,1-2.3L3.2,7C3,6.6,3.1,6,3.4,5.6l2.2-2.2C6,3,6.6,3,7,3.2l2.6,1.4c0.7-0.4,1.5-0.7,2.3-1l0.8-2.8
				C12.9,0.3,13.4,0,13.9,0h3.1c0.5,0,1,0.3,1.1,0.8L19,3.7c0.8,0.2,1.6,0.6,2.3,1l2.6-1.4C24.4,3,25,3,25.3,3.4l2.2,2.2
				C27.9,6,28,6.6,27.8,7l-1.4,2.6c0.4,0.7,0.7,1.5,1,2.3l2.8,0.8c0.5,0.1,0.8,0.6,0.8,1.1v3.1c0,0.5-0.3,1-0.8,1.1L27.3,19
				c-0.2,0.8-0.6,1.6-1,2.3l1.4,2.6c0.3,0.5,0.2,1-0.2,1.4l-2.2,2.2c-0.4,0.4-0.9,0.5-1.4,0.2l-2.6-1.4c-0.7,0.4-1.5,0.7-2.3,1
				l-0.8,2.8C18,30.6,17.6,31,17.1,31z M14.8,28.6h1.4l0.8-2.6c0.1-0.4,0.4-0.7,0.9-0.8c1-0.2,2-0.7,2.9-1.2c0.4-0.2,0.8-0.2,1.2,0
				l2.4,1.3l1-1l-1.3-2.4c-0.2-0.4-0.2-0.8,0-1.2c0.6-0.9,1-1.9,1.2-2.9c0.1-0.4,0.4-0.7,0.8-0.9l2.6-0.8v-1.4L26,14
				c-0.4-0.1-0.7-0.4-0.8-0.9c-0.2-1-0.7-2-1.2-2.9c-0.2-0.4-0.2-0.8,0-1.2l1.3-2.4l-1-1L21.9,7c-0.4,0.2-0.8,0.2-1.2,0
				c-0.9-0.6-1.9-1-2.9-1.2c-0.4-0.1-0.7-0.4-0.9-0.8l-0.8-2.6h-1.4L14,5c-0.1,0.4-0.4,0.7-0.9,0.8c-1,0.2-2,0.7-2.9,1.2
				C9.9,7.2,9.4,7.2,9.1,7L6.7,5.7l-1,1L7,9.1c0.2,0.4,0.2,0.8,0,1.2c-0.6,0.9-1,1.9-1.2,2.9C5.7,13.6,5.4,13.9,5,14l-2.6,0.8v1.4
				L5,16.9c0.4,0.1,0.7,0.4,0.8,0.9c0.2,1,0.7,2,1.2,2.9c0.2,0.4,0.2,0.8,0,1.2l-1.3,2.4l1,1l2.4-1.3c0.4-0.2,0.8-0.2,1.2,0
				c0.9,0.6,1.9,1,2.9,1.2c0.4,0.1,0.7,0.4,0.9,0.8L14.8,28.6z M29.8,17.1L29.8,17.1z"/>
			<g transform="translate(10.286 10.287)">
				<path class="st4" d="M5.2,10.4C2.3,10.4,0,8.1,0,5.2C0,2.3,2.3,0,5.2,0c2.9,0,5.2,2.3,5.2,5.2C10.4,8.1,8.1,10.4,5.2,10.4z
					 M5.2,2.3c-1.6,0-2.9,1.3-2.9,2.9c0,1.6,1.3,2.9,2.9,2.9c1.6,0,2.9-1.3,2.9-2.9C8.1,3.6,6.8,2.3,5.2,2.3z"/>
			</g>
		</g>
		<path class="st4" d="M50.6,51.8H1.2c-0.6,0-1.2-0.5-1.2-1.2c0,0,0,0,0,0V1.2C0,0.5,0.5,0,1.2,0c0,0,0,0,0,0h49.4
			c0.6,0,1.2,0.5,1.2,1.2c0,0,0,0,0,0v49.4C51.8,51.2,51.2,51.8,50.6,51.8C50.6,51.8,50.6,51.8,50.6,51.8z M2.3,49.4h47.1V2.3H2.3
			V49.4z"/>
		<g transform="translate(7.029 7.029)">
			<path class="st4" d="M50.6,51.8H1.2c-0.6,0-1.2-0.5-1.2-1.2c0,0,0,0,0,0V1.2C0,0.5,0.5,0,1.2,0l0,0h49.4c0.6,0,1.2,0.5,1.2,1.2
				c0,0,0,0,0,0v49.4C51.8,51.2,51.2,51.8,50.6,51.8C50.6,51.8,50.6,51.8,50.6,51.8z M2.3,49.4h47.1V2.3H2.3V49.4z"/>
		</g>
	</g>
	<g transform="translate(1225.943 -647.241)">
		<g transform="translate(6.875 13.902)">
			<path class="st2" d="M17.1,31h-3.1c-0.5,0-1-0.3-1.1-0.8L12,27.3c-0.8-0.2-1.6-0.6-2.3-1L7,27.7c-0.5,0.3-1,0.2-1.4-0.2l-2.2-2.2
				C3,25,3,24.4,3.2,23.9l1.4-2.6c-0.4-0.7-0.7-1.5-1-2.3l-2.8-0.8C0.3,18,0,17.6,0,17.1v-3.1c0-0.5,0.3-1,0.8-1.1L3.7,12
				c0.2-0.8,0.6-1.6,1-2.3L3.2,7C3,6.6,3,6,3.4,5.6l2.2-2.2C6,3,6.6,3,7,3.2l2.6,1.4c0.7-0.4,1.5-0.7,2.3-1l0.8-2.8
				C12.9,0.3,13.4,0,13.9,0h3.1c0.5,0,1,0.3,1.1,0.8L19,3.7c0.8,0.2,1.6,0.6,2.3,1l2.6-1.4C24.4,3,25,3,25.3,3.4l2.2,2.2
				C27.9,6,28,6.6,27.8,7l-1.4,2.6c0.4,0.7,0.7,1.5,1,2.3l2.8,0.8c0.5,0.1,0.8,0.6,0.8,1.1v3.1c0,0.5-0.3,1-0.8,1.1L27.3,19
				c-0.2,0.8-0.6,1.6-1,2.3l1.4,2.6c0.3,0.5,0.2,1-0.2,1.4l-2.2,2.2c-0.4,0.4-0.9,0.5-1.4,0.2l-2.6-1.4c-0.7,0.4-1.5,0.7-2.3,1
				l-0.8,2.8C18,30.6,17.6,31,17.1,31z M14.8,28.6h1.4l0.8-2.6c0.1-0.4,0.4-0.7,0.9-0.8c1-0.2,2-0.7,2.9-1.2c0.4-0.2,0.8-0.2,1.2,0
				l2.4,1.3l1-1l-1.3-2.4c-0.2-0.4-0.2-0.8,0-1.2c0.6-0.9,1-1.9,1.2-2.9c0.1-0.4,0.4-0.7,0.8-0.9l2.6-0.8v-1.4L26,14
				c-0.4-0.1-0.7-0.4-0.8-0.9c-0.2-1-0.7-2-1.2-2.9c-0.2-0.4-0.2-0.8,0-1.2l1.3-2.4l-1-1L21.9,7c-0.4,0.2-0.8,0.2-1.2,0
				c-0.9-0.6-1.9-1-2.9-1.2C17.4,5.7,17,5.4,16.9,5l-0.8-2.6h-1.4L14,5c-0.1,0.4-0.4,0.7-0.9,0.8c-1,0.2-2,0.7-2.9,1.2
				C9.9,7.2,9.4,7.2,9.1,7L6.7,5.7l-1,1L7,9.1c0.2,0.4,0.2,0.8,0,1.2c-0.6,0.9-1,1.9-1.2,2.9C5.7,13.6,5.4,13.9,5,14l-2.6,0.8v1.4
				L5,16.9c0.4,0.1,0.7,0.4,0.8,0.9c0.2,1,0.7,2,1.2,2.9c0.2,0.4,0.2,0.8,0,1.2l-1.3,2.4l1,1l2.4-1.3c0.4-0.2,0.8-0.2,1.2,0
				c0.9,0.6,1.9,1,2.9,1.2c0.4,0.1,0.7,0.4,0.9,0.8L14.8,28.6z M29.8,17.1L29.8,17.1z"/>
			<g transform="translate(10.286 10.287)">
				<path class="st2" d="M5.2,10.4C2.3,10.4,0,8.1,0,5.2C0,2.3,2.3,0,5.2,0c2.9,0,5.2,2.3,5.2,5.2C10.4,8.1,8.1,10.4,5.2,10.4z
					 M5.2,2.3c-1.6,0-2.9,1.3-2.9,2.9c0,1.6,1.3,2.9,2.9,2.9c1.6,0,2.9-1.3,2.9-2.9C8.1,3.6,6.8,2.3,5.2,2.3z"/>
			</g>
		</g>
		<g transform="translate(0)">
			<path class="st2" d="M43.6,58.8H1.2c-0.6,0-1.2-0.5-1.2-1.2c0,0,0,0,0,0V1.2C0,0.5,0.5,0,1.2,0h42.4c0.6,0,1.2,0.5,1.2,1.2
				c0,0,0,0,0,0v1.6l1.7,0.8c0.4,0.2,0.6,0.6,0.6,1v14.8c0,0.4-0.3,0.8-0.6,1l-1.7,0.8v36.2C44.7,58.3,44.2,58.8,43.6,58.8
				C43.6,58.8,43.6,58.8,43.6,58.8z M2.3,56.4h40V20.7c0-0.4,0.3-0.8,0.6-1l1.7-0.8V5.4L43,4.6c-0.4-0.2-0.6-0.6-0.6-1V2.3h-40
				L2.3,56.4z"/>
		</g>
		<g transform="translate(40.039 2.342)">
			<path class="st2" d="M3.5,19.5c-0.2,0-0.4,0-0.5-0.1l-2.3-1.2C0.3,18,0,17.6,0,17.2V2.3c0-0.4,0.3-0.9,0.6-1L3,0.1
				c0.6-0.3,1.3-0.1,1.6,0.5C4.9,1.2,4.6,1.9,4,2.2c0,0,0,0,0,0L2.3,3.1v13.4L4,17.3c0.6,0.3,0.8,1,0.5,1.6c0,0,0,0,0,0
				C4.4,19.3,4,19.5,3.5,19.5z"/>
		</g>
	</g>
	<g transform="translate(1525.091 -647.241)">
		<g transform="translate(6.874 13.902)">
			<path class="st4" d="M17.1,31h-3.1c-0.5,0-1-0.3-1.1-0.8L12,27.3c-0.8-0.2-1.6-0.6-2.3-1L7,27.7c-0.5,0.3-1,0.2-1.4-0.2l-2.2-2.2
				C3,25,3,24.4,3.2,23.9l1.4-2.6c-0.4-0.7-0.7-1.5-1-2.3l-2.8-0.8C0.3,18,0,17.6,0,17.1v-3.1c0-0.5,0.3-1,0.8-1.1L3.7,12
				c0.2-0.8,0.6-1.6,1-2.3L3.2,7C3,6.6,3,6,3.4,5.6l2.2-2.2C6,3,6.6,3,7,3.2l2.6,1.4c0.7-0.4,1.5-0.7,2.3-1l0.8-2.8
				C12.9,0.3,13.4,0,13.9,0h3.1c0.5,0,1,0.3,1.1,0.8L19,3.7c0.8,0.2,1.6,0.6,2.3,1l2.6-1.4C24.4,3,25,3,25.3,3.4l2.2,2.2
				C27.9,6,28,6.6,27.8,7l-1.4,2.6c0.4,0.7,0.7,1.5,1,2.3l2.8,0.8c0.5,0.1,0.8,0.6,0.8,1.1v3.1c0,0.5-0.3,1-0.8,1.1L27.3,19
				c-0.2,0.8-0.6,1.6-1,2.3l1.4,2.6c0.3,0.5,0.2,1-0.2,1.4l-2.2,2.2c-0.4,0.4-0.9,0.5-1.4,0.2l-2.6-1.4c-0.7,0.4-1.5,0.7-2.3,1
				l-0.8,2.8C18,30.6,17.6,31,17.1,31z M14.8,28.6h1.4l0.8-2.6c0.1-0.4,0.4-0.7,0.9-0.8c1-0.2,2-0.7,2.9-1.2c0.4-0.2,0.8-0.2,1.2,0
				l2.4,1.3l1-1l-1.3-2.4c-0.2-0.4-0.2-0.8,0-1.2c0.6-0.9,1-1.9,1.2-2.9c0.1-0.4,0.4-0.7,0.8-0.9l2.6-0.8v-1.4L26,14
				c-0.4-0.1-0.7-0.4-0.8-0.9c-0.2-1-0.7-2-1.2-2.9c-0.2-0.4-0.2-0.8,0-1.2l1.3-2.4l-1-1L21.9,7c-0.4,0.2-0.8,0.2-1.2,0
				c-0.9-0.6-1.9-1-2.9-1.2c-0.4-0.1-0.7-0.4-0.9-0.8l-0.8-2.6h-1.4L14,5c-0.1,0.4-0.4,0.7-0.9,0.8c-1,0.2-2,0.7-2.9,1.2
				C9.9,7.2,9.4,7.2,9.1,7L6.7,5.7l-1,1L7,9.1c0.2,0.4,0.2,0.8,0,1.2c-0.6,0.9-1,1.9-1.2,2.9C5.7,13.6,5.4,13.9,5,14l-2.6,0.8v1.4
				L5,16.9c0.4,0.1,0.7,0.4,0.8,0.9c0.2,1,0.7,2,1.2,2.9c0.2,0.4,0.2,0.8,0,1.2l-1.3,2.4l1,1l2.4-1.3c0.4-0.2,0.8-0.2,1.2,0
				c0.9,0.6,1.9,1,2.9,1.2c0.4,0.1,0.7,0.4,0.9,0.8L14.8,28.6z M29.8,17.1L29.8,17.1z"/>
			<g transform="translate(10.286 10.287)">
				<path class="st4" d="M5.2,10.4C2.3,10.4,0,8.1,0,5.2C0,2.3,2.3,0,5.2,0c2.9,0,5.2,2.3,5.2,5.2C10.4,8.1,8.1,10.4,5.2,10.4z
					 M5.2,2.3c-1.6,0-2.9,1.3-2.9,2.9c0,1.6,1.3,2.9,2.9,2.9c1.6,0,2.9-1.3,2.9-2.9C8.1,3.6,6.8,2.3,5.2,2.3z"/>
			</g>
		</g>
		<path class="st4" d="M43.6,58.8H1.2c-0.6,0-1.2-0.5-1.2-1.2c0,0,0,0,0,0V1.2C0,0.5,0.5,0,1.2,0c0,0,0,0,0,0h42.4
			c0.6,0,1.2,0.5,1.2,1.2v1.6l1.7,0.8c0.4,0.2,0.6,0.6,0.6,1v14.8c0,0.4-0.3,0.8-0.6,1l-1.7,0.8v36.2C44.7,58.3,44.2,58.8,43.6,58.8
			C43.6,58.8,43.6,58.8,43.6,58.8z M2.3,56.4h40V20.7c0-0.4,0.3-0.8,0.6-1l1.7-0.8V5.4L43,4.6c-0.4-0.2-0.6-0.6-0.6-1V2.3h-40
			L2.3,56.4z"/>
		<g transform="translate(40.039 2.342)">
			<path class="st4" d="M3.5,19.5c-0.2,0-0.4,0-0.5-0.1l-2.3-1.2C0.3,18,0,17.6,0,17.2V2.3c0-0.4,0.3-0.9,0.6-1L3,0.1
				c0.6-0.3,1.3-0.1,1.6,0.5C4.9,1.2,4.6,1.9,4,2.2L2.3,3.1v13.4L4,17.3c0.6,0.3,0.8,1,0.5,1.6C4.4,19.3,4,19.5,3.5,19.5z"/>
		</g>
	</g>
	<g transform="translate(1325.184 -462.147)">
		<path class="st1" d="M6,6.6H4.6c-0.2,0-0.4-0.1-0.5-0.3L1.8,2.9H1.7v3.7H0V0.1h1.4c0.4,0,0.4,0,0.5,0.2c0.1,0.1,2.2,3,2.5,3.5h0
			V0.1H6L6,6.6z"/>
		<path class="st1" d="M8,0.1h5v1.4H9.7v1.1h2.8V4H9.7v1.1H13v1.5H8L8,0.1z"/>
		<path class="st1" d="M20.4,1.5h-2.1v5.2h-1.7V1.5h-2.1V0.1h5.8V1.5z"/>
		<path class="st1" d="M29,0.1h1.9c0,0-1.2,5.8-1.3,6.3c0,0.2-0.1,0.2-0.3,0.2H27c-0.1,0-0.2-0.1-0.3-0.2l-0.4-3.6h-0.1l-0.4,3.6
			c0,0.1-0.1,0.2-0.3,0.2h-2.4c-0.1,0-0.2,0-0.3-0.2c-0.1-0.5-1.3-6.3-1.3-6.3h1.9L24.3,5h0.1l0.7-4.9h2.3L28.1,5h0.1L29,0.1z"/>
		<path class="st1" d="M32.3,4.9V1.8C32.3,0.8,33,0.1,34,0c0.1,0,0.2,0,0.2,0h2.1c0.9-0.1,1.8,0.6,1.9,1.5c0,0.1,0,0.2,0,0.2v3.1
			c0,0.9-0.7,1.7-1.7,1.8c-0.1,0-0.2,0-0.2,0h-2.1c-0.9,0.1-1.8-0.6-1.9-1.5C32.3,5,32.3,4.9,32.3,4.9z M34,2v2.5
			c0,0.4,0.2,0.7,0.7,0.7h1.2c0.5,0,0.7-0.2,0.7-0.7V2c0-0.4-0.2-0.6-0.7-0.6h-1.2C34.2,1.4,34,1.6,34,2L34,2z"/>
		<path class="st1" d="M41.9,6.6h-1.7V0.1H44c0.9-0.1,1.8,0.6,1.9,1.5c0,0.1,0,0.2,0,0.3v1c0,0.7-0.3,1.3-0.9,1.5L46,6.6h-1.8
			l-1-2.1h-1.4L41.9,6.6z M44.2,2.5V2.1c0-0.4-0.2-0.7-0.7-0.7h-1.7v1.7h1.7c0.3,0,0.6-0.2,0.7-0.5C44.2,2.6,44.2,2.5,44.2,2.5z"/>
		<path class="st1" d="M49.5,2.5h0.8l1.6-2.4h1.9l-2.1,3.2l2,3.4h-1.9l-1.4-2.4h-0.9v2.4h-1.7V0.1h1.7L49.5,2.5z"/>
		<path class="st1" d="M63,1.5h-3c-0.3,0-0.4,0-0.4,0.3v0.1c0,0.2,0.1,0.2,0.4,0.3c0,0,1.9,0.3,2.1,0.4c1.1,0.2,1.3,0.6,1.3,1.6V5
			c0,1.2-0.5,1.7-2.2,1.7c-1.3,0-3.3-0.1-3.3-0.1l0-1.3H61c0.5,0,0.7-0.1,0.7-0.5V4.4c0-0.1,0-0.3-0.2-0.3s-1.6-0.3-1.8-0.3
			c-1.2-0.2-1.8-0.3-1.8-1.5V1.7c0-1.2,0.6-1.7,2.2-1.7C61.4,0,63,0.1,63,0.1L63,1.5z"/>
		<path class="st1" d="M65.1,0.1h5v1.4h-3.3v1.1h2.8V4h-2.8v1.1h3.3v1.5h-5L65.1,0.1z"/>
		<path class="st1" d="M74.6,2.8h3l-0.1,3.5c0,0.2-0.1,0.3-0.3,0.3c0,0-2,0.1-3.5,0.1c-1,0.1-1.8-0.6-1.9-1.6c0-0.1,0-0.1,0-0.2V1.8
			c0-1,0.7-1.8,1.7-1.8c0.1,0,0.1,0,0.2,0c1.6,0,3.5,0.1,3.5,0.1l0,1.4h-3c-0.5,0-0.7,0.2-0.7,0.7v2.4c0,0.4,0.2,0.7,0.7,0.7H76l0-1
			l-1.4-0.1L74.6,2.8z"/>
		<path class="st1" d="M84.7,0.1c0-0.1,0.1-0.1,0.1-0.1H87v6.6h-1.7V3.1h-0.1L84,6.5c0,0.1-0.1,0.1-0.1,0.1h-1.4
			c-0.1,0-0.1-0.1-0.2-0.1l-1.2-3.4h-0.1v3.6h-1.7V0.1h2.1c0.1,0,0.1,0,0.1,0.1L83.2,4h0.1L84.7,0.1z"/>
		<path class="st1" d="M89,0.1h5v1.4h-3.3v1.1h2.8V4h-2.8v1.1h3.3v1.5h-5V0.1z"/>
		<path class="st1" d="M101.9,6.6h-1.4c-0.2,0-0.4-0.1-0.5-0.3l-2.4-3.4h-0.1v3.7h-1.7V0.1h1.4c0.4,0,0.4,0,0.5,0.2
			c0.1,0.1,2.2,3,2.5,3.5h0V0.1h1.7L101.9,6.6z"/>
		<path class="st1" d="M109.4,1.5h-2.1v5.2h-1.7V1.5h-2.1V0.1h5.8L109.4,1.5z"/>
		<path class="st1" d="M114.4,5.1H112l-0.4,1.5h-1.9c0,0,1.9-5.9,2-6.3c0.1-0.3,0.1-0.3,0.4-0.3h2c0.3,0,0.4,0,0.4,0.3
			c0.1,0.4,2,6.3,2,6.3h-1.8L114.4,5.1z M112.4,3.7h1.6l-0.7-2.3H113L112.4,3.7z"/>
		<path class="st1" d="M122.8,1.5h-2.1v5.2H119V1.5H117V0.1h5.8L122.8,1.5z"/>
		<path class="st1" d="M126.2,6.6h-1.7V0.1h1.7V6.6z"/>
		<path class="st1" d="M128.1,4.9V1.8c0-0.9,0.7-1.7,1.7-1.8c0.1,0,0.2,0,0.2,0h2.1c0.9-0.1,1.8,0.6,1.9,1.5c0,0.1,0,0.2,0,0.2v3.1
			c0,0.9-0.7,1.7-1.7,1.8c-0.1,0-0.2,0-0.2,0H130c-0.9,0.1-1.8-0.6-1.9-1.5C128.1,5,128.1,4.9,128.1,4.9z M129.8,2v2.5
			c0,0.4,0.2,0.7,0.7,0.7h1.2c0.5,0,0.7-0.2,0.7-0.7V2c0-0.4-0.2-0.6-0.7-0.6h-1.2C130,1.4,129.8,1.6,129.8,2L129.8,2z"/>
		<path class="st1" d="M142,6.6h-1.4c-0.2,0-0.4-0.1-0.5-0.3l-2.4-3.4h-0.1v3.7H136V0.1h1.4c0.4,0,0.4,0,0.5,0.2
			c0.1,0.1,2.2,3,2.5,3.5h0V0.1h1.7L142,6.6z"/>
	</g>
	<g transform="translate(1128.173 -727.944)">
		<path class="st2" d="M10.3,3h-6c-0.7,0-0.8,0-0.8,0.7v0.2c0,0.4,0.2,0.5,0.7,0.5c0,0,3.8,0.7,4.2,0.8c2.3,0.4,2.7,1.3,2.7,3.2V10
			c0,2.3-1.1,3.5-4.4,3.4c-2.5,0-6.7-0.3-6.7-0.3l0-2.7h6.2c1.1,0,1.4-0.2,1.4-1V8.9c0.1-0.3-0.1-0.6-0.4-0.6c0,0,0,0-0.1,0
			C6.8,8.1,3.9,7.6,3.6,7.6C1.2,7.1,0,7,0,4.6V3.4C0,1,1.1,0,4.5,0c2.5,0,5.9,0.3,5.9,0.3L10.3,3z"/>
		<path class="st2" d="M14.4,9.8V3.6c0-2,1.3-3.5,3.9-3.5h4.3c2.5,0,3.9,1.6,3.9,3.5v6.2c0,2-1.3,3.5-3.9,3.5h-4.3
			C15.7,13.3,14.4,11.8,14.4,9.8z M17.8,4.1v5c0,0.8,0.4,1.3,1.4,1.3h2.4c1,0,1.4-0.5,1.4-1.3v-5c0-0.8-0.4-1.2-1.4-1.2h-2.4
			C18.2,2.9,17.8,3.3,17.8,4.1L17.8,4.1z"/>
		<path class="st2" d="M34.8,10.5H37c1,0,1.4-0.5,1.4-1.3V0.1h3.4v9.7c0,2-1.3,3.5-3.8,3.5h-4c-2.5,0-3.9-1.6-3.9-3.5V0.1h3.4v9.1
			C33.4,10.1,33.8,10.5,34.8,10.5z"/>
		<path class="st2" d="M49.1,13.3h-3.4V0.1h7.6c2.5,0,3.9,1.5,3.9,3.5v1.9c0.1,1.3-0.7,2.6-1.9,3.1l2.2,4.7h-3.6l-2-4.2h-2.8
			L49.1,13.3z M53.8,5V4.2c0-0.8-0.4-1.3-1.4-1.3h-3.4v3.5h3.4c0.7,0.1,1.3-0.4,1.4-1C53.8,5.3,53.8,5.1,53.8,5z"/>
		<path class="st2" d="M71.1,3h-5.4c-1,0-1.4,0.4-1.4,1.3v4.9c-0.1,0.7,0.4,1.3,1.1,1.4c0.1,0,0.2,0,0.3,0h5.4l0,2.7
			c0,0-3.5,0.3-6.6,0.3c-1.9,0.2-3.6-1.3-3.8-3.2c0-0.1,0-0.3,0-0.4V3.6c-0.1-1.9,1.4-3.5,3.3-3.6c0.2,0,0.3,0,0.5,0
			c3.3,0,6.6,0.2,6.6,0.2L71.1,3z"/>
		<path class="st2" d="M74.8,0.1h10v2.8h-6.6v2.3h5.6v2.9h-5.6v2.3h6.6v3h-10L74.8,0.1z"/>
	</g>
	<g transform="translate(1108.505 -706.932)">
		<path class="st2" d="M1.8,6.8H0V0.1h3.9c0.9-0.1,1.8,0.5,2,1.5c0,0.1,0,0.2,0,0.3v1.3c0,1-0.7,1.8-1.7,1.8c-0.1,0-0.2,0-0.3,0H1.8
			L1.8,6.8z M4.1,2.8V2.2c0-0.4-0.2-0.7-0.7-0.7H1.7v1.9h1.7C4,3.4,4.1,3.2,4.1,2.8z"/>
		<path class="st2" d="M9.5,6.8H7.7V0.1h3.9c1-0.1,1.8,0.6,2,1.5c0,0.1,0,0.2,0,0.3v1c0,0.7-0.4,1.3-1,1.6l1.1,2.4h-1.8l-1-2.2H9.5
			L9.5,6.8z M11.9,2.6V2.2c0-0.4-0.2-0.7-0.7-0.7H9.5v1.8h1.7c0.3,0,0.7-0.2,0.7-0.5C11.9,2.7,11.9,2.6,11.9,2.6L11.9,2.6z"/>
		<path class="st2" d="M15.5,5V1.9c0-1,0.8-1.8,1.7-1.8c0.1,0,0.2,0,0.2,0h2.2c1-0.1,1.9,0.6,2,1.6c0,0.1,0,0.2,0,0.3V5
			c0,1-0.7,1.8-1.7,1.8c-0.1,0-0.2,0-0.3,0h-2.2c-1,0.1-1.9-0.6-2-1.6C15.5,5.2,15.5,5.1,15.5,5z M17.3,2.1v2.6
			c0,0.4,0.2,0.7,0.7,0.7h1.2c0.5,0,0.7-0.3,0.7-0.7V2.1c0-0.4-0.2-0.6-0.7-0.6H18C17.5,1.5,17.3,1.7,17.3,2.1L17.3,2.1z"/>
		<path class="st2" d="M29.1,1.5H27v5.3h-1.8V1.5h-2.1V0.1h6V1.5z"/>
		<path class="st2" d="M30.8,0.1H36v1.4h-3.4v1.2h2.9v1.5h-2.9v1.2H36v1.5h-5.1V0.1z"/>
		<path class="st2" d="M43.1,1.5h-2.8c-0.5,0-0.7,0.2-0.7,0.7v2.5c0,0.3,0.2,0.7,0.6,0.7c0.1,0,0.1,0,0.2,0h2.8l0,1.4
			c0,0-1.8,0.1-3.4,0.1c-1,0.1-1.9-0.7-2-1.7c0-0.1,0-0.2,0-0.2V1.8c0-1,0.7-1.8,1.7-1.8c0.1,0,0.2,0,0.3,0c1.7,0,3.4,0.1,3.4,0.1
			L43.1,1.5z"/>
		<path class="st2" d="M50.6,1.5h-2.1v5.3h-1.8V1.5h-2.1V0.1h6L50.6,1.5z"/>
		<path class="st2" d="M52.3,0.1h5.1v1.4h-3.4v1.2H57v1.5h-2.9v1.2h3.4v1.5h-5.1V0.1z"/>
		<path class="st2" d="M59.5,0.1h4c1-0.1,1.9,0.6,2,1.6c0,0.1,0,0.1,0,0.2V5c0,1-0.8,1.9-1.9,1.9c-0.1,0-0.1,0-0.2,0h-4V0.1z
			 M63.7,2.2c0-0.6-0.3-0.7-0.8-0.7h-1.8v3.9H63c0.5,0,0.8-0.2,0.8-0.8L63.7,2.2z"/>
		<path class="st2" d="M76.8,6.8h-1.4c-0.2,0-0.4-0.1-0.5-0.3l-2.5-3.5h-0.1v3.8h-1.8V0.1h1.4c0.4,0,0.4,0,0.5,0.2
			c0.1,0.1,2.2,3.1,2.6,3.6h0V0.1h1.8L76.8,6.8z"/>
		<path class="st2" d="M78.8,0.1H84v1.4h-3.4v1.2h2.9v1.5h-2.9v1.2H84v1.5h-5.1V0.1z"/>
		<path class="st2" d="M91.6,1.5h-2.1v5.3h-1.8V1.5h-2.1V0.1h6L91.6,1.5z"/>
		<path class="st2" d="M100.5,0.1h2c0,0-1.2,6-1.3,6.6c0,0.2-0.1,0.2-0.3,0.2h-2.5c-0.1,0-0.2-0.1-0.3-0.2L97.7,3h-0.1l-0.4,3.7
			c0,0.1-0.1,0.2-0.3,0.2h-2.5c-0.1,0-0.2,0-0.3-0.2c-0.1-0.5-1.3-6.6-1.3-6.6h2l0.8,5.1h0.1l0.7-5.1h2.4l0.7,5.1h0.1L100.5,0.1z"/>
		<path class="st2" d="M103.9,5V1.9c0-1,0.8-1.8,1.7-1.8c0.1,0,0.2,0,0.2,0h2.2c1-0.1,1.9,0.6,2,1.6c0,0.1,0,0.2,0,0.3V5
			c0,1-0.7,1.8-1.7,1.8c-0.1,0-0.2,0-0.3,0h-2.2c-1,0.1-1.9-0.6-2-1.6C103.9,5.2,103.9,5.1,103.9,5z M105.7,2.1v2.6
			c0,0.4,0.2,0.7,0.7,0.7h1.2c0.5,0,0.7-0.3,0.7-0.7V2.1c0-0.4-0.2-0.6-0.7-0.6h-1.2C105.9,1.5,105.7,1.7,105.7,2.1L105.7,2.1z"/>
		<path class="st2" d="M113.8,6.8H112V0.1h3.9c1-0.1,1.8,0.6,2,1.5c0,0.1,0,0.2,0,0.3v1c0,0.7-0.4,1.3-1,1.6l1.1,2.4h-1.8l-1-2.2
			h-1.4L113.8,6.8z M116.2,2.6V2.2c0-0.4-0.2-0.7-0.7-0.7h-1.7v1.8h1.7c0.3,0,0.7-0.2,0.7-0.5C116.2,2.7,116.2,2.6,116.2,2.6
			L116.2,2.6z"/>
		<path class="st2" d="M121.7,2.6h0.8l1.7-2.5h2L124,3.4l2.1,3.5h-2l-1.5-2.5h-0.9v2.5h-1.8V0.1h1.8V2.6z"/>
	</g>
	<g transform="translate(1126.246 -574.481)">
		<path class="st2" d="M7.8,5.8H6.6c-0.2,0-0.4-0.1-0.5-0.2L4,2.5h0v3.2H2.5V0h1.2C4,0,4,0,4.1,0.2C4.1,0.2,6,2.8,6.2,3.2h0V0h1.5
			V5.8z"/>
		<path class="st2" d="M9.5,0h4.4v1.2H11v1h2.4v1.2H11v1h2.9v1.3H9.5L9.5,0z"/>
		<path class="st2" d="M20.4,1.2h-1.8v4.5h-1.5V1.2h-1.8V0h5.1L20.4,1.2z"/>
		<path class="st2" d="M27.9,0h1.7c0,0-1,5.1-1.1,5.6c0,0.2-0.1,0.2-0.2,0.2h-2.1c-0.1,0-0.2-0.1-0.2-0.2l-0.4-3.1h0l-0.4,3.1
			c0,0.1-0.1,0.2-0.2,0.2h-2.1c-0.1,0-0.2,0-0.2-0.2C22.4,5.1,21.4,0,21.4,0h1.7l0.7,4.3h0.1L24.5,0h2l0.6,4.3h0.1L27.9,0z"/>
		<path class="st2" d="M30.8,4.2V1.5c0-0.8,0.6-1.5,1.5-1.5c0.1,0,0.1,0,0.2,0h1.9c0.8-0.1,1.6,0.5,1.7,1.3c0,0.1,0,0.1,0,0.2v2.7
			c0,0.8-0.6,1.5-1.5,1.5c-0.1,0-0.1,0-0.2,0h-1.9c-0.8,0.1-1.6-0.5-1.7-1.3C30.8,4.4,30.8,4.3,30.8,4.2z M32.3,1.8v2.2
			c0,0.4,0.2,0.6,0.6,0.6h1c0.4,0,0.6-0.2,0.6-0.6V1.8c0-0.4-0.2-0.5-0.6-0.5h-1C32.4,1.2,32.3,1.4,32.3,1.8L32.3,1.8z"/>
		<path class="st2" d="M39.1,5.8h-1.5V0H41c0.8-0.1,1.6,0.5,1.7,1.3c0,0.1,0,0.1,0,0.2v0.8c0,0.6-0.3,1.1-0.8,1.3l0.9,2h-1.6
			l-0.9-1.8h-1.2L39.1,5.8z M41.2,2.1V1.8c0-0.4-0.2-0.6-0.6-0.6h-1.5v1.5h1.5c0.3,0,0.6-0.2,0.6-0.4C41.2,2.2,41.2,2.2,41.2,2.1
			L41.2,2.1z"/>
		<path class="st2" d="M45.8,2.2h0.7L47.9,0h1.7l-1.8,2.8l1.7,2.9h-1.7l-1.2-2.1h-0.8v2.1h-1.5V0h1.5L45.8,2.2z"/>
		<path class="st2" d="M1.5,15.6H0V9.8h1.5V15.6z"/>
		<path class="st2" d="M8.5,15.6H7.3c-0.2,0-0.4-0.1-0.5-0.2l-2.1-3h0v3.2H3.3V9.8h1.2c0.3,0,0.3,0,0.4,0.2c0,0.1,1.9,2.7,2.2,3.1h0
			V9.9h1.5L8.5,15.6z"/>
		<path class="st2" d="M15.1,11.1h-1.8v4.5h-1.5v-4.5H10V9.8h5.1L15.1,11.1z"/>
		<path class="st2" d="M16.5,9.8h4.4v1.2H18v1h2.4v1.2H18v1h2.9v1.3h-4.3L16.5,9.8z"/>
		<path class="st2" d="M24.1,15.6h-1.5V9.8h3.3c0.8-0.1,1.6,0.5,1.7,1.3c0,0.1,0,0.1,0,0.2v0.8c0,0.6-0.3,1.1-0.8,1.3l0.9,2h-1.6
			l-0.9-1.8h-1.2L24.1,15.6z M26.1,12v-0.3c0-0.4-0.2-0.6-0.6-0.6h-1.5v1.5h1.5c0.3,0,0.6-0.2,0.6-0.4C26.1,12.1,26.1,12,26.1,12
			L26.1,12z"/>
		<path class="st2" d="M29.2,9.8h4.4v1.2h-2.9v1.1h2.4v1.2h-2.4v2.1h-1.5V9.8z"/>
		<path class="st2" d="M38.1,14.3h-2.1l-0.4,1.3h-1.6c0,0,1.6-5.2,1.8-5.5c0.1-0.2,0.1-0.2,0.4-0.2H38c0.3,0,0.3,0,0.4,0.2
			c0.1,0.3,1.7,5.5,1.7,5.5h-1.6L38.1,14.3z M36.4,13h1.4L37.2,11H37L36.4,13z"/>
		<path class="st2" d="M45.7,11.1h-2.4c-0.4,0-0.6,0.2-0.6,0.6v2.1c0,0.3,0.2,0.6,0.5,0.6c0,0,0.1,0,0.1,0h2.4l0,1.2
			c0,0-1.5,0.1-2.8,0.1c-0.8,0.1-1.6-0.6-1.7-1.4c0-0.1,0-0.1,0-0.2v-2.7c0-0.8,0.6-1.5,1.4-1.6c0.1,0,0.1,0,0.2,0
			c1.4,0,2.8,0.1,2.8,0.1L45.7,11.1z"/>
		<path class="st2" d="M47.3,9.8h4.4v1.2h-2.9v1h2.4v1.2h-2.4v1h2.9v1.3h-4.3L47.3,9.8z"/>
	</g>
	<g transform="translate(1620.276 -574.481)">
		<path class="st4" d="M7.8,5.8H6.6c-0.2,0-0.4-0.1-0.5-0.2L4,2.5h0v3.2H2.5V0h1.2C4,0,4,0,4.1,0.2c0,0.1,1.9,2.7,2.2,3.1h0V0h1.5
			L7.8,5.8z"/>
		<path class="st4" d="M9.5,0h4.4v1.2H11v1h2.4v1.2H11v1h2.9v1.3H9.5L9.5,0z"/>
		<path class="st4" d="M20.4,1.2h-1.8v4.5h-1.5V1.2h-1.8V0h5.1L20.4,1.2z"/>
		<path class="st4" d="M27.9,0h1.7c0,0-1,5.1-1.1,5.6c0,0.2-0.1,0.2-0.2,0.2h-2.1c-0.1,0-0.2-0.1-0.2-0.2l-0.4-3.1h0l-0.4,3.1
			c0,0.1-0.1,0.2-0.2,0.2h-2.1c-0.1,0-0.2,0-0.2-0.2C22.4,5.1,21.4,0,21.4,0h1.7l0.7,4.3h0.1L24.5,0h2l0.6,4.3h0.1L27.9,0z"/>
		<path class="st4" d="M30.8,4.2V1.5c0-0.8,0.6-1.5,1.5-1.5c0.1,0,0.1,0,0.2,0h1.9c0.8-0.1,1.6,0.5,1.7,1.3c0,0.1,0,0.1,0,0.2v2.7
			c0,0.8-0.6,1.5-1.5,1.5c-0.1,0-0.1,0-0.2,0h-1.9c-0.8,0.1-1.6-0.5-1.7-1.3C30.8,4.4,30.8,4.3,30.8,4.2z M32.3,1.8v2.2
			c0,0.4,0.2,0.6,0.6,0.6h1c0.4,0,0.6-0.2,0.6-0.6V1.8c0-0.4-0.2-0.5-0.6-0.5h-1C32.4,1.2,32.3,1.4,32.3,1.8L32.3,1.8z"/>
		<path class="st4" d="M39.1,5.8h-1.5V0H41c0.8-0.1,1.6,0.5,1.7,1.3c0,0.1,0,0.1,0,0.2v0.8c0,0.6-0.3,1.1-0.8,1.3l0.9,2h-1.6
			l-0.9-1.8h-1.2L39.1,5.8z M41.2,2.1V1.8c0-0.4-0.2-0.6-0.6-0.6h-1.5v1.5h1.5c0.3,0,0.6-0.2,0.6-0.4C41.2,2.2,41.2,2.2,41.2,2.1
			L41.2,2.1z"/>
		<path class="st4" d="M45.8,2.2h0.7L47.9,0h1.7l-1.8,2.8l1.7,2.9h-1.7l-1.2-2.1h-0.8v2.1h-1.5V0h1.5L45.8,2.2z"/>
		<path class="st4" d="M1.5,15.6H0V9.8h1.5V15.6z"/>
		<path class="st4" d="M8.5,15.6H7.3c-0.2,0-0.4-0.1-0.5-0.2l-2.1-3h0v3.2H3.3V9.8h1.2c0.3,0,0.3,0,0.4,0.2c0,0.1,1.9,2.7,2.2,3.1h0
			V9.9h1.5L8.5,15.6z"/>
		<path class="st4" d="M15.1,11.1h-1.8v4.5h-1.5v-4.5H10V9.8h5.1L15.1,11.1z"/>
		<path class="st4" d="M16.5,9.8h4.4v1.2H18v1h2.4v1.2H18v1h2.9v1.3h-4.3L16.5,9.8z"/>
		<path class="st4" d="M24.1,15.6h-1.5V9.8h3.3c0.8-0.1,1.6,0.5,1.7,1.3c0,0.1,0,0.1,0,0.2v0.8c0,0.6-0.3,1.1-0.8,1.3l0.9,2h-1.6
			l-0.9-1.8h-1.2V15.6z M26.1,12v-0.3c0-0.4-0.2-0.6-0.6-0.6h-1.5v1.5h1.5c0.3,0,0.6-0.2,0.6-0.4C26.1,12.1,26.1,12,26.1,12L26.1,12
			z"/>
		<path class="st4" d="M29.2,9.8h4.4v1.2h-2.9v1.1h2.4v1.2h-2.4v2.1h-1.5V9.8z"/>
		<path class="st4" d="M38.1,14.3h-2.1l-0.4,1.3h-1.6c0,0,1.6-5.2,1.8-5.5c0.1-0.2,0.1-0.2,0.4-0.2H38c0.3,0,0.3,0,0.4,0.2
			c0.1,0.3,1.7,5.5,1.7,5.5h-1.6L38.1,14.3z M36.4,13h1.4L37.2,11H37L36.4,13z"/>
		<path class="st4" d="M45.7,11.1h-2.4c-0.4,0-0.6,0.2-0.6,0.6v2.1c0,0.3,0.2,0.6,0.5,0.6c0,0,0.1,0,0.1,0h2.4l0,1.2
			c0,0-1.5,0.1-2.8,0.1c-0.8,0.1-1.6-0.6-1.7-1.4c0-0.1,0-0.1,0-0.2v-2.7c0-0.8,0.6-1.5,1.4-1.6c0.1,0,0.1,0,0.2,0
			c1.4,0,2.8,0.1,2.8,0.1L45.7,11.1z"/>
		<path class="st4" d="M47.3,9.8h4.4v1.2h-2.9v1h2.4v1.2h-2.4v1h2.9v1.3h-4.3L47.3,9.8z"/>
	</g>
	<g transform="translate(1727.68 -548.165)">
		<path class="st4" d="M0,0h4.4v1.2H1.5v1h2.4v1.2H1.5v1h2.9v1.3H0L0,0z"/>
		<path class="st4" d="M11.3,5.8h-1.2c-0.2,0-0.4-0.1-0.5-0.2l-2.1-3h0v3.2H6V0h1.2c0.3,0,0.3,0,0.4,0.2c0,0.1,1.9,2.7,2.2,3.1h0V0
			h1.5L11.3,5.8z"/>
		<path class="st4" d="M13.1,0h3.4c0.9-0.1,1.6,0.5,1.7,1.4c0,0.1,0,0.1,0,0.2v2.6c0,0.9-0.7,1.6-1.6,1.6c-0.1,0-0.1,0-0.2,0h-3.4V0
			z M16.7,1.9c0-0.5-0.2-0.6-0.6-0.6h-1.5v3.3h1.5c0.4,0,0.6-0.2,0.6-0.6V1.9z"/>
		<path class="st4" d="M24.4,4.6h1C25.8,4.6,26,4.4,26,4V0h1.5v4.2c0,0.8-0.6,1.5-1.5,1.5c-0.1,0-0.1,0-0.2,0H24
			c-0.8,0.1-1.6-0.5-1.7-1.3c0-0.1,0-0.1,0-0.2V0h1.5v4C23.8,4.4,24,4.6,24.4,4.6z"/>
		<path class="st4" d="M33.3,1.3h-2.6c-0.3,0-0.4,0-0.4,0.3v0.1c0,0.2,0.1,0.2,0.3,0.2c0,0,1.6,0.3,1.8,0.3c1,0.2,1.2,0.6,1.2,1.4
			v0.7c0,1-0.5,1.5-1.9,1.5c-1.1,0-2.9-0.1-2.9-0.1l0-1.2h2.7c0.5,0,0.6-0.1,0.6-0.4V3.9c0-0.1-0.1-0.2-0.2-0.3c0,0,0,0,0,0
			c-0.2,0-1.4-0.3-1.6-0.3C29.4,3.1,28.9,3,28.9,2V1.5c0-1,0.5-1.5,1.9-1.5c1.1,0,2.6,0.1,2.6,0.1L33.3,1.3z"/>
		<path class="st4" d="M35.2,0h4.4v1.2h-2.9v1h2.4v1.2h-2.4v1h2.9v1.3h-4.3L35.2,0z"/>
		<path class="st4" d="M42.7,5.8h-1.5V0h3.3c0.8-0.1,1.6,0.5,1.7,1.3c0,0.1,0,0.1,0,0.2v0.8c0,0.6-0.3,1.1-0.8,1.3l0.9,2h-1.6
			L43.9,4h-1.2V5.8z M44.8,2.2V1.8c0-0.4-0.2-0.6-0.6-0.6h-1.5v1.5h1.5c0.3,0,0.6-0.2,0.6-0.4C44.8,2.3,44.8,2.2,44.8,2.2L44.8,2.2z
			"/>
	</g>
	<g transform="translate(996.652 -548.165)">
		<path class="st2" d="M36.7,1.3h-2.6c-0.3,0-0.4,0-0.4,0.3v0.1c0,0.2,0.1,0.2,0.3,0.2c0,0,1.7,0.3,1.8,0.3c1,0.2,1.2,0.6,1.2,1.4
			v0.7c0,1-0.5,1.5-1.9,1.5c-1.1,0-2.9-0.1-2.9-0.1l0-1.2h2.7c0.5,0,0.6-0.1,0.6-0.4V3.9c0-0.1-0.1-0.2-0.2-0.3c0,0,0,0,0,0
			c-0.2,0-1.4-0.3-1.6-0.3C32.7,3.1,32.2,3,32.2,2V1.5c0-1,0.5-1.5,1.9-1.5c1.1,0,2.6,0.1,2.6,0.1L36.7,1.3z"/>
		<path class="st2" d="M38.4,4.3V1.6c0-0.8,0.6-1.5,1.5-1.5c0.1,0,0.1,0,0.2,0h1.9c0.8-0.1,1.6,0.5,1.7,1.3c0,0.1,0,0.1,0,0.2v2.7
			c0,0.8-0.6,1.5-1.5,1.5c-0.1,0-0.1,0-0.2,0h-1.9c-0.8,0.1-1.6-0.5-1.7-1.3C38.4,4.4,38.4,4.3,38.4,4.3z M39.9,1.8V4
			c0,0.4,0.2,0.6,0.6,0.6h1c0.4,0,0.6-0.2,0.6-0.6V1.8c0-0.4-0.2-0.5-0.6-0.5h-1C40.1,1.3,39.9,1.4,39.9,1.8L39.9,1.8z"/>
		<path class="st2" d="M47.3,4.6h1c0.4,0,0.6-0.2,0.6-0.6V0h1.5v4.2c0,0.8-0.6,1.5-1.5,1.5c-0.1,0-0.1,0-0.2,0h-1.7
			c-0.8,0.1-1.6-0.5-1.7-1.3c0-0.1,0-0.1,0-0.2V0h1.5v4C46.7,4.4,46.9,4.6,47.3,4.6z"/>
		<path class="st2" d="M53.5,5.8H52V0h3.3C56.1,0,56.9,0.5,57,1.4c0,0.1,0,0.1,0,0.2v0.8c0,0.6-0.3,1.1-0.8,1.3l0.9,2h-1.6L54.7,4
			h-1.2L53.5,5.8z M55.5,2.2V1.8c0-0.4-0.2-0.6-0.6-0.6h-1.5v1.5h1.5c0.3,0,0.6-0.2,0.6-0.4C55.5,2.3,55.5,2.2,55.5,2.2L55.5,2.2z"
			/>
		<path class="st2" d="M63.1,1.3h-2.4c-0.4,0-0.6,0.2-0.6,0.6V4c0,0.3,0.2,0.6,0.5,0.6c0,0,0.1,0,0.1,0h2.4l0,1.2
			c0,0-1.5,0.1-2.8,0.1c-0.8,0.1-1.6-0.6-1.7-1.4c0-0.1,0-0.1,0-0.2V1.6C58.5,0.7,59.2,0,60,0c0.1,0,0.1,0,0.2,0
			c1.4,0,2.8,0.1,2.8,0.1L63.1,1.3z"/>
		<path class="st2" d="M64.7,0H69v1.2h-2.9v1h2.4v1.2h-2.4v1H69v1.3h-4.3V0z"/>
		<path class="st2" d="M5.9,9.9h4.4v1.2H7.4v1.1h2.4v1.2H7.4v2.1H5.9V9.9z"/>
		<path class="st2" d="M13.2,15.6h-1.5V9.9h1.5V15.6z"/>
		<path class="st2" d="M15,9.9h1.5v4.5h2.7v1.3H15L15,9.9z"/>
		<path class="st2" d="M20.6,9.9H25v1.2h-2.9v1h2.4v1.2h-2.4v1h2.9v1.3h-4.3V9.9z"/>
		<path class="st2" d="M30.8,11.2h-2.6c-0.3,0-0.4,0-0.4,0.3v0.1c0,0.2,0.1,0.2,0.3,0.2l1.8,0.3c1,0.2,1.2,0.6,1.2,1.4v0.7
			c0,1-0.5,1.5-1.9,1.5c-1.1,0-2.9-0.1-2.9-0.1l0-1.2h2.7c0.5,0,0.6-0.1,0.6-0.4v-0.2c0-0.1,0-0.2-0.2-0.3s-1.4-0.3-1.6-0.3
			c-1.1-0.2-1.6-0.3-1.6-1.3v-0.5c0-1,0.5-1.5,1.9-1.5c1.1,0,2.6,0.1,2.6,0.1L30.8,11.2z"/>
		<path class="st2" d="M34.1,14.2v0.7c-0.1,0.7-0.4,1.3-0.9,1.8l-0.7-0.4c0.2-0.4,0.2-0.8,0.2-1.2v-1H34.1z"/>
		<path class="st2" d="M38.3,9.9h1.5v2.2h2.3V9.9h1.5v5.7h-1.5v-2.3h-2.3v2.3h-1.5V9.9z"/>
		<path class="st2" d="M46.8,15.6h-1.5V9.9h1.5V15.6z"/>
		<path class="st2" d="M52.8,11.2h-2.6c-0.3,0-0.4,0-0.4,0.3v0.1c0,0.2,0.1,0.2,0.3,0.2l1.8,0.3c1,0.2,1.2,0.6,1.2,1.4v0.7
			c0,1-0.5,1.5-1.9,1.5c-1.1,0-2.9-0.1-2.9-0.1l0-1.2H51c0.5,0,0.6-0.1,0.6-0.4v-0.2c0-0.1,0-0.2-0.2-0.3s-1.4-0.3-1.6-0.3
			c-1.1-0.2-1.6-0.3-1.6-1.3v-0.5c0-1,0.5-1.5,1.9-1.5c1.1,0,2.6,0.1,2.6,0.1L52.8,11.2z"/>
		<path class="st2" d="M59.2,11.1h-1.8v4.5h-1.5v-4.5h-1.8V9.9h5.1L59.2,11.1z"/>
		<path class="st2" d="M60.4,14.1v-2.7c0-0.8,0.6-1.5,1.5-1.5c0.1,0,0.1,0,0.2,0h1.9c0.8-0.1,1.6,0.5,1.7,1.3c0,0.1,0,0.1,0,0.2v2.7
			c0,0.8-0.6,1.5-1.5,1.5c-0.1,0-0.1,0-0.2,0h-1.9c-0.8,0.1-1.6-0.5-1.7-1.3C60.4,14.3,60.4,14.2,60.4,14.1z M61.9,11.6v2.2
			c0,0.4,0.2,0.6,0.6,0.6h1c0.4,0,0.6-0.2,0.6-0.6v-2.2c0-0.4-0.2-0.5-0.6-0.5h-1C62.1,11.1,61.9,11.3,61.9,11.6z"/>
		<path class="st2" d="M68.8,15.6h-1.5V9.9h3.3c0.8-0.1,1.6,0.5,1.7,1.3c0,0.1,0,0.1,0,0.2v0.8c0,0.6-0.3,1.1-0.8,1.3l0.9,2h-1.6
			L70,13.8h-1.2L68.8,15.6z M70.8,12v-0.3c0-0.4-0.2-0.6-0.6-0.6h-1.5v1.5h1.5c0.3,0,0.6-0.2,0.6-0.4C70.8,12.1,70.8,12.1,70.8,12
			L70.8,12z"/>
		<path class="st2" d="M75.5,15.6H74V9.9h1.5V15.6z"/>
		<path class="st2" d="M80.8,14.3h-2.1l-0.4,1.3h-1.6c0,0,1.6-5.2,1.8-5.5c0.1-0.2,0.1-0.2,0.4-0.2h1.8c0.3,0,0.3,0,0.4,0.2
			c0.1,0.3,1.7,5.5,1.7,5.5h-1.6L80.8,14.3z M79.1,13.1h1.4L79.9,11h-0.2L79.1,13.1z"/>
		<path class="st2" d="M89.5,15.6h-1.2c-0.2,0-0.4-0.1-0.5-0.2l-2.1-3h0v3.2h-1.5V9.9h1.2c0.3,0,0.3,0,0.4,0.2
			c0.1,0.1,1.9,2.7,2.2,3.1h0V9.9h1.5L89.5,15.6z"/>
		<path class="st2" d="M95.4,11.2h-2.6c-0.3,0-0.4,0-0.4,0.3v0.1c0,0.2,0.1,0.2,0.3,0.2l1.8,0.3c1,0.2,1.2,0.6,1.2,1.4v0.7
			c0,1-0.5,1.5-1.9,1.5c-1.1,0-2.9-0.1-2.9-0.1l0-1.2h2.7c0.5,0,0.6-0.1,0.6-0.4v-0.2c0-0.1,0-0.2-0.2-0.3s-1.4-0.3-1.6-0.3
			c-1.1-0.2-1.6-0.3-1.6-1.3v-0.5c0-1,0.5-1.5,1.9-1.5c1.1,0,2.6,0.1,2.6,0.1L95.4,11.2z"/>
		<path class="st2" d="M0,19.7h3.4c0.9-0.1,1.6,0.5,1.7,1.4c0,0.1,0,0.1,0,0.2v2.6c0,0.9-0.7,1.6-1.6,1.6c-0.1,0-0.1,0-0.2,0H0V19.7
			z M3.6,21.6c0-0.5-0.2-0.6-0.6-0.6H1.5v3.3H3c0.4,0,0.6-0.2,0.6-0.6V21.6z"/>
		<path class="st2" d="M10.1,24.2H8l-0.4,1.3H6c0,0,1.6-5.2,1.8-5.5c0.1-0.2,0.1-0.2,0.4-0.2h1.8c0.3,0,0.3,0,0.4,0.2
			c0.1,0.3,1.7,5.5,1.7,5.5h-1.6L10.1,24.2z M8.3,22.9h1.4l-0.6-2.1H8.9L8.3,22.9z"/>
		<path class="st2" d="M17.5,21h-1.8v4.5h-1.5V21h-1.8v-1.2h5.1L17.5,21z"/>
		<path class="st2" d="M21.8,24.2h-2.1l-0.4,1.3h-1.6c0,0,1.6-5.2,1.8-5.5c0.1-0.2,0.1-0.2,0.4-0.2h1.8c0.3,0,0.3,0,0.4,0.2
			c0.1,0.3,1.7,5.5,1.7,5.5h-1.6L21.8,24.2z M20.1,22.9h1.4l-0.6-2.1h-0.2L20.1,22.9z"/>
		<path class="st2" d="M25.1,19.7h3.2c0.8-0.1,1.5,0.4,1.7,1.2c0,0.1,0,0.2,0,0.2v0.4c0,0.4-0.3,0.8-0.7,0.9c0.4,0.1,0.8,0.5,0.8,1
			V24c0,0.8-0.6,1.5-1.4,1.5c-0.1,0-0.2,0-0.2,0h-3.3L25.1,19.7z M28.6,21.4c0-0.4-0.2-0.5-0.6-0.5h-1.4V22H28
			c0.4,0,0.6-0.1,0.6-0.5L28.6,21.4z M26.6,24.3h1.5c0.4,0,0.6-0.2,0.6-0.6v-0.2c0-0.3-0.2-0.5-0.6-0.5h-1.5V24.3z"/>
		<path class="st2" d="M35.4,24.2h-2.1L33,25.5h-1.6c0,0,1.6-5.2,1.8-5.5c0.1-0.2,0.1-0.2,0.4-0.2h1.8c0.3,0,0.3,0,0.4,0.2
			c0.1,0.3,1.7,5.5,1.7,5.5h-1.6L35.4,24.2z M33.7,22.9h1.4l-0.6-2.1h-0.2L33.7,22.9z"/>
		<path class="st2" d="M43.1,21h-2.6c-0.3,0-0.4,0-0.4,0.3v0.1c0,0.2,0.1,0.2,0.3,0.2c0,0,1.7,0.3,1.8,0.3c1,0.2,1.2,0.6,1.2,1.4V24
			c0,1-0.5,1.5-1.9,1.5c-1.1,0-2.9-0.1-2.9-0.1l0-1.2h2.7c0.5,0,0.6-0.1,0.6-0.4v-0.2c0-0.1,0-0.2-0.2-0.3S40.3,23,40.2,23
			c-1.1-0.2-1.6-0.3-1.6-1.3v-0.5c0-1,0.5-1.5,1.9-1.5c1.1,0,2.6,0.1,2.6,0.1L43.1,21z"/>
		<path class="st2" d="M44.9,19.7h4.4v1.2h-2.9v1h2.4v1.2h-2.4v1h2.9v1.3h-4.3L44.9,19.7z"/>
		<path class="st2" d="M55.2,21h-2.6c-0.3,0-0.4,0-0.4,0.3v0.1c0,0.2,0.1,0.2,0.3,0.2c0,0,1.6,0.3,1.8,0.3c1,0.2,1.2,0.6,1.2,1.4V24
			c0,1-0.5,1.5-1.9,1.5c-1.1,0-2.9-0.1-2.9-0.1l0-1.2h2.7c0.5,0,0.6-0.1,0.6-0.4v-0.2c0-0.1-0.1-0.2-0.2-0.3c0,0,0,0,0,0
			c-0.2,0-1.4-0.3-1.6-0.3c-1.1-0.2-1.6-0.3-1.6-1.3v-0.5c0-1,0.5-1.5,1.9-1.5c1.1,0,2.6,0.1,2.6,0.1L55.2,21z"/>
		<path class="st2" d="M58.4,24v0.7c-0.1,0.7-0.4,1.3-0.9,1.8l-0.7-0.4c0.2-0.4,0.2-0.8,0.2-1.2v-1H58.4z"/>
		<path class="st2" d="M66.2,24.2h-2.1l-0.4,1.3h-1.6c0,0,1.6-5.2,1.8-5.5c0.1-0.2,0.1-0.2,0.4-0.2h1.8c0.3,0,0.3,0,0.4,0.2
			c0.1,0.3,1.7,5.5,1.7,5.5h-1.6L66.2,24.2z M64.5,22.9h1.4l-0.6-2.1h-0.2L64.5,22.9z"/>
		<path class="st2" d="M69.6,19.7H71v4.5h2.7v1.3h-4.2V19.7z"/>
		<path class="st2" d="M78.8,24.2h-2l-0.4,1.3h-1.6c0,0,1.6-5.2,1.8-5.5c0.1-0.2,0.1-0.2,0.4-0.2h1.8c0.3,0,0.3,0,0.4,0.2
			c0.1,0.3,1.7,5.5,1.7,5.5h-1.6L78.8,24.2z M77,22.9h1.4l-0.6-2.1h-0.2L77,22.9z"/>
		<path class="st2" d="M83.6,25.5h-1.5v-5.7h3.3c0.8-0.1,1.6,0.5,1.7,1.3c0,0.1,0,0.1,0,0.2v0.8c0,0.6-0.3,1.1-0.8,1.3l0.9,2h-1.6
			l-0.9-1.8h-1.2V25.5z M85.6,21.9v-0.3c0-0.4-0.2-0.6-0.6-0.6h-1.5v1.5H85c0.3,0,0.6-0.2,0.6-0.4C85.6,22,85.6,21.9,85.6,21.9
			L85.6,21.9z"/>
		<path class="st2" d="M93.4,19.8C93.4,19.8,93.4,19.7,93.4,19.8l2-0.1v5.7h-1.5v-3.1h-0.1l-1,3c0,0.1-0.1,0.1-0.1,0.1h-1.2
			c-0.1,0-0.1,0-0.1-0.1l-1-3h-0.1v3.1h-1.5v-5.7h1.9c0,0,0.1,0,0.1,0.1l1.3,3.4h0.1L93.4,19.8z"/>
		<path class="st2" d="M101.3,21h-2.6c-0.3,0-0.4,0-0.4,0.3v0.1c0,0.2,0.1,0.2,0.3,0.2c0,0,1.7,0.3,1.8,0.3c1,0.2,1.2,0.6,1.2,1.4
			V24c0,1-0.5,1.5-1.9,1.5c-1.1,0-2.9-0.1-2.9-0.1l0-1.2h2.7c0.5,0,0.6-0.1,0.6-0.4v-0.2c0-0.1,0-0.2-0.2-0.3S98.5,23,98.4,23
			c-1.1-0.2-1.6-0.3-1.6-1.3v-0.5c0-1,0.5-1.5,1.9-1.5c1.1,0,2.6,0.1,2.6,0.1L101.3,21z"/>
	</g>
	<g transform="translate(1218.641 -574.522)">
		<path class="st2" d="M13.2,5.8h-1.5V0h3.3c0.8-0.1,1.5,0.4,1.7,1.2c0,0.1,0,0.2,0,0.2v1.1c0,0.8-0.6,1.5-1.4,1.5
			c-0.1,0-0.2,0-0.2,0h-1.8V5.8z M15.2,2.3V1.8c0-0.4-0.2-0.6-0.6-0.6h-1.4v1.6h1.4C15.1,2.9,15.2,2.7,15.2,2.3L15.2,2.3z"/>
		<path class="st2" d="M21.3,4.5h-2.1l-0.4,1.3h-1.6c0,0,1.6-5.2,1.8-5.5C19.1,0.1,19.1,0,19.4,0h1.8c0.3,0,0.3,0,0.4,0.2
			c0.1,0.3,1.7,5.5,1.7,5.5h-1.6L21.3,4.5z M19.6,3.2H21l-0.6-2h-0.2L19.6,3.2z"/>
		<path class="st2" d="M28.9,1.3h-2.4c-0.4,0-0.6,0.2-0.6,0.6V4c0,0.3,0.2,0.6,0.5,0.6c0,0,0.1,0,0.1,0h2.4l0,1.2
			c0,0-1.5,0.1-2.8,0.1c-0.8,0.1-1.6-0.6-1.7-1.4c0-0.1,0-0.1,0-0.2V1.6c0-0.8,0.6-1.5,1.4-1.6C26,0,26,0,26.1,0
			C27.5,0,29,0.1,29,0.1L28.9,1.3z"/>
		<path class="st2" d="M32,2.2h0.7l1.4-2.1h1.7L34,2.9l1.7,2.9h-1.7l-1.2-2.1H32v2.1h-1.5V0.1H32L32,2.2z"/>
		<path class="st2" d="M37.1,0h4.4v1.2h-2.9v1H41v1.2h-2.4v1h2.9v1.3h-4.3V0z"/>
		<path class="st2" d="M47.9,1.3h-1.8v4.5h-1.5V1.3h-1.8V0h5.1L47.9,1.3z"/>
		<path class="st2" d="M1.5,15.6H0V9.9h3.3c0.8-0.1,1.5,0.4,1.7,1.2c0,0.1,0,0.2,0,0.2v1.1C5,13.3,4.4,14,3.6,14c-0.1,0-0.2,0-0.2,0
			H1.5L1.5,15.6z M3.5,12.2v-0.5c0-0.4-0.2-0.6-0.6-0.6H1.5v1.6h1.4C3.3,12.7,3.5,12.5,3.5,12.2L3.5,12.2z"/>
		<path class="st2" d="M8,15.6H6.6V9.9h3.3c0.8-0.1,1.6,0.5,1.7,1.3c0,0.1,0,0.1,0,0.2v0.8c0,0.6-0.3,1.1-0.8,1.3l0.9,2h-1.6
			l-0.9-1.8H8L8,15.6z M10.1,12v-0.3c0-0.4-0.2-0.6-0.6-0.6H8v1.5h1.5c0.3,0,0.6-0.2,0.6-0.4C10.1,12.1,10.1,12.1,10.1,12L10.1,12z"
			/>
		<path class="st2" d="M13.1,14.1v-2.7c0-0.8,0.6-1.5,1.5-1.5c0.1,0,0.1,0,0.2,0h1.9c0.8-0.1,1.6,0.5,1.7,1.3c0,0.1,0,0.1,0,0.2v2.7
			c0,0.8-0.6,1.5-1.5,1.5c-0.1,0-0.1,0-0.2,0h-1.9c-0.8,0.1-1.6-0.5-1.7-1.3C13.1,14.2,13.1,14.2,13.1,14.1z M14.6,11.6v2.2
			c0,0.4,0.2,0.6,0.6,0.6h1c0.4,0,0.6-0.2,0.6-0.6v-2.2c0-0.4-0.2-0.5-0.6-0.5h-1C14.8,11.1,14.6,11.3,14.6,11.6L14.6,11.6z"/>
		<path class="st2" d="M24.4,11.1h-2.4c-0.4,0-0.6,0.2-0.6,0.6v2.1c0,0.3,0.2,0.6,0.5,0.6c0,0,0.1,0,0.1,0h2.4l0,1.2
			c0,0-1.5,0.1-2.8,0.1c-0.8,0.1-1.6-0.6-1.7-1.4c0-0.1,0-0.1,0-0.2v-2.7c0-0.8,0.6-1.5,1.4-1.6c0.1,0,0.2,0,0.2,0
			c1.4,0,2.8,0.1,2.8,0.1L24.4,11.1z"/>
		<path class="st2" d="M26,9.9h4.4v1.2h-2.9v1h2.4v1.2h-2.4v1h2.9v1.3H26L26,9.9z"/>
		<path class="st2" d="M36.3,11.2h-2.6c-0.3,0-0.4,0-0.4,0.3v0.1c0,0.2,0.1,0.2,0.3,0.2c0,0,1.6,0.3,1.8,0.3c1,0.2,1.2,0.6,1.2,1.4
			v0.7c0,1-0.5,1.5-1.9,1.5c-1.1,0-2.9-0.1-2.9-0.1l0-1.2h2.7c0.5,0,0.6-0.1,0.6-0.4v-0.2c0-0.1,0-0.2-0.2-0.3s-1.4-0.3-1.6-0.3
			c-1.1-0.2-1.6-0.3-1.6-1.3v-0.5c0-1,0.5-1.5,1.9-1.5c1.1,0,2.6,0.1,2.6,0.1L36.3,11.2z"/>
		<path class="st2" d="M42.4,11.2h-2.6c-0.3,0-0.4,0-0.4,0.3v0.1c0,0.2,0.1,0.2,0.3,0.2c0,0,1.6,0.3,1.8,0.3c1,0.2,1.2,0.6,1.2,1.4
			v0.7c0,1-0.5,1.5-1.9,1.5c-1.1,0-2.9-0.1-2.9-0.1l0-1.2h2.7c0.5,0,0.6-0.1,0.6-0.4v-0.2c0-0.1-0.1-0.2-0.2-0.3c0,0,0,0,0,0
			c-0.2,0-1.4-0.3-1.6-0.3c-1.1-0.2-1.6-0.3-1.6-1.3v-0.5c0-1,0.5-1.5,1.9-1.5c1.1,0,2.6,0.1,2.6,0.1L42.4,11.2z"/>
		<path class="st2" d="M45.7,15.6h-1.5V9.9h1.5V15.6z"/>
		<path class="st2" d="M52.8,15.6h-1.2c-0.2,0-0.4-0.1-0.5-0.2l-2.1-3h0v3.2h-1.5V9.9h1.2c0.3,0,0.3,0,0.4,0.2
			c0,0.1,1.9,2.7,2.2,3.1h0V9.9h1.5L52.8,15.6z"/>
		<path class="st2" d="M56.8,12.3h2.7l-0.1,3c0,0.1-0.1,0.2-0.2,0.3c0,0-1.7,0.1-3.1,0.1c-0.8,0.1-1.6-0.6-1.7-1.4
			c0-0.1,0-0.1,0-0.2v-2.7c0-0.8,0.6-1.6,1.5-1.6c0.1,0,0.1,0,0.2,0c1.4,0,3,0.1,3,0.1l0,1.2h-2.6c-0.4,0-0.6,0.2-0.6,0.6v2.1
			c0,0.4,0.2,0.6,0.6,0.6h1.6l0-0.9l-1.3-0.1L56.8,12.3z"/>
	</g>
	<g transform="translate(1300.289 -574.522)">
		<path class="st2" d="M4.5,1.3H1.9c-0.3,0-0.4,0-0.4,0.3v0.1c0,0.2,0.1,0.2,0.3,0.2c0,0,1.6,0.3,1.8,0.3c1,0.2,1.2,0.6,1.2,1.4v0.7
			c0,1-0.5,1.5-1.9,1.5C1.8,5.8,0,5.7,0,5.7l0-1.2h2.7c0.5,0,0.6-0.1,0.6-0.4V3.8c0-0.1,0-0.2-0.2-0.3S1.7,3.3,1.6,3.3
			C0.5,3.1,0,3,0,2V1.5C0,0.5,0.5,0,1.9,0c1.1,0,2.6,0.1,2.6,0.1L4.5,1.3z"/>
		<path class="st2" d="M6.3,0h4.4v1.2H7.8v1h2.4v1.2H7.8v1h2.9v1.3H6.3V0z"/>
		<path class="st2" d="M17.7,5.8h-1.2c-0.2,0-0.4-0.1-0.5-0.2l-2.1-3h0v3.2h-1.5V0h1.2c0.3,0,0.3,0,0.4,0.2c0,0.1,1.9,2.7,2.2,3.1h0
			V0h1.5L17.7,5.8z"/>
		<path class="st2" d="M19.4,0h3.4c0.9-0.1,1.6,0.5,1.7,1.4c0,0.1,0,0.1,0,0.2v2.6c0,0.9-0.7,1.6-1.6,1.6c-0.1,0-0.1,0-0.2,0h-3.4V0
			z M23,1.9c0-0.5-0.2-0.6-0.6-0.6h-1.5v3.3h1.5c0.4,0,0.6-0.2,0.6-0.6V1.9z"/>
		<path class="st2" d="M26,2.2h2.8v1.3H26V2.2z"/>
		<path class="st2" d="M30.3,4.3V1.6c0-0.8,0.6-1.5,1.5-1.5c0.1,0,0.1,0,0.2,0h1.9c0.8-0.1,1.6,0.5,1.7,1.3c0,0.1,0,0.1,0,0.2v2.7
			c0,0.8-0.6,1.5-1.5,1.5c-0.1,0-0.1,0-0.2,0H32c-0.8,0.1-1.6-0.5-1.7-1.3C30.3,4.4,30.3,4.3,30.3,4.3z M31.8,1.8V4
			c0,0.4,0.2,0.6,0.6,0.6h1c0.4,0,0.6-0.2,0.6-0.6V1.8c0-0.4-0.2-0.5-0.6-0.5h-1C32,1.3,31.8,1.4,31.8,1.8L31.8,1.8z"/>
		<path class="st2" d="M42.5,5.8h-1.2c-0.2,0-0.4-0.1-0.5-0.2l-2.1-3h0v3.2h-1.5V0h1.2c0.3,0,0.3,0,0.4,0.2c0,0.1,1.9,2.7,2.2,3.1h0
			V0h1.5L42.5,5.8z"/>
		<path class="st2" d="M44.2,0h1.5v4.5h2.7v1.3h-4.2V0z"/>
		<path class="st2" d="M51.3,2.3L52.5,0h1.7l-2.2,4v1.7h-1.5V4.1l-2.3-4H50L51.3,2.3z"/>
		<path class="st2" d="M13.2,11.1h-2.4c-0.4,0-0.6,0.2-0.6,0.6v2.1c0,0.3,0.2,0.6,0.5,0.6c0,0,0.1,0,0.1,0h2.4l0,1.2
			c0,0-1.5,0.1-2.8,0.1c-0.8,0.1-1.6-0.6-1.7-1.4c0-0.1,0-0.1,0-0.2v-2.7c0-0.8,0.6-1.5,1.4-1.6c0.1,0,0.2,0,0.2,0
			c1.4,0,2.8,0.1,2.8,0.1L13.2,11.1z"/>
		<path class="st2" d="M16.3,15.6h-1.5V9.9h1.5V15.6z"/>
		<path class="st2" d="M19.6,15.6h-1.5V9.9h3.3c0.8-0.1,1.6,0.5,1.7,1.3c0,0.1,0,0.1,0,0.2v0.8c0,0.6-0.3,1.1-0.8,1.3l0.9,2h-1.6
			l-0.9-1.8h-1.2V15.6z M21.6,12v-0.3c0-0.4-0.2-0.6-0.6-0.6h-1.5v1.5H21c0.3,0,0.6-0.2,0.6-0.4C21.6,12.1,21.6,12.1,21.6,12
			L21.6,12z"/>
		<path class="st2" d="M29.2,11.1h-2.4c-0.4,0-0.6,0.2-0.6,0.6v2.1c0,0.3,0.2,0.6,0.5,0.6c0,0,0.1,0,0.1,0h2.4l0,1.2
			c0,0-1.5,0.1-2.8,0.1c-0.8,0.1-1.6-0.6-1.7-1.4c0-0.1,0-0.1,0-0.2v-2.7c0-0.8,0.6-1.5,1.4-1.6c0.1,0,0.2,0,0.2,0
			c1.4,0,2.8,0.1,2.8,0.1L29.2,11.1z"/>
		<path class="st2" d="M32.7,14.4h1c0.4,0,0.6-0.2,0.6-0.6v-4h1.5v4.2c0,0.8-0.6,1.5-1.5,1.5c-0.1,0-0.1,0-0.2,0h-1.7
			c-0.8,0.1-1.6-0.5-1.7-1.3c0-0.1,0-0.1,0-0.2V9.9h1.5v4C32.2,14.2,32.3,14.4,32.7,14.4z"/>
		<path class="st2" d="M39,15.6h-1.5V9.9H39V15.6z"/>
		<path class="st2" d="M45.5,11.1h-1.8v4.5h-1.5v-4.5h-1.8V9.9h5.1L45.5,11.1z"/>
	</g>
	<g transform="translate(1432.32 -574.522)">
		<path class="st4" d="M1.5,5.8H0V0h3.3C4.1,0,4.9,0.5,5,1.4c0,0.1,0,0.1,0,0.2v0.8C5,3,4.7,3.5,4.2,3.8l0.9,2H3.5L2.7,4H1.5
			L1.5,5.8z M3.5,2.2V1.8c0-0.4-0.2-0.6-0.6-0.6H1.5v1.5h1.5c0.3,0,0.6-0.2,0.6-0.4C3.5,2.3,3.5,2.2,3.5,2.2L3.5,2.2z"/>
		<path class="st4" d="M6.7,0H11v1.2H8.2v1h2.4v1.2H8.2v1H11v1.3H6.7V0z"/>
		<path class="st4" d="M17,1.3h-2.4c-0.4,0-0.6,0.2-0.6,0.6V4c0,0.3,0.2,0.6,0.5,0.6c0,0,0.1,0,0.1,0H17l0,1.2c0,0-1.5,0.1-2.8,0.1
			c-0.8,0.1-1.6-0.6-1.7-1.4c0-0.1,0-0.1,0-0.2V1.6C12.5,0.7,13.2,0,14,0c0.1,0,0.1,0,0.2,0C15.6,0,17,0.1,17,0.1L17,1.3z"/>
		<path class="st4" d="M18.6,0H23v1.2h-2.9v1h2.4v1.2h-2.4v1H23v1.3h-4.3V0z"/>
		<path class="st4" d="M26.2,5.8h-1.5V0h1.5V5.8z"/>
		<path class="st4" d="M31.6,0h1.7c0,0-1.5,5-1.6,5.5c-0.1,0.2-0.1,0.2-0.2,0.2h-2.1c-0.1,0-0.2,0-0.2-0.2C28.9,5.1,27.5,0,27.5,0
			h1.7l1.1,4.3h0.1L31.6,0z"/>
		<path class="st4" d="M34.5,0h4.4v1.2H36v1h2.4v1.2H36v1h2.9v1.3h-4.3L34.5,0z"/>
		<path class="st4" d="M40.4,2.2h2.8v1.3h-2.8V2.2z"/>
		<path class="st4" d="M44.7,4.3V1.6c0-0.8,0.6-1.5,1.5-1.5c0.1,0,0.1,0,0.2,0h1.9c0.8-0.1,1.6,0.5,1.7,1.3c0,0.1,0,0.1,0,0.2v2.7
			c0,0.8-0.6,1.5-1.5,1.5c-0.1,0-0.1,0-0.2,0h-1.9c-0.8,0.1-1.6-0.5-1.7-1.3C44.7,4.4,44.7,4.3,44.7,4.3z M46.2,1.8V4
			c0,0.4,0.2,0.6,0.6,0.6h1c0.4,0,0.6-0.2,0.6-0.6V1.8c0-0.4-0.2-0.5-0.6-0.5h-1C46.4,1.3,46.2,1.4,46.2,1.8L46.2,1.8z"/>
		<path class="st4" d="M56.9,5.8h-1.2c-0.2,0-0.4-0.1-0.5-0.2l-2.1-3h0v3.2h-1.5V0h1.2c0.3,0,0.3,0,0.4,0.2c0,0.1,1.9,2.7,2.2,3.1h0
			V0h1.5L56.9,5.8z"/>
		<path class="st4" d="M58.6,0h1.5v4.5h2.7v1.3h-4.2V0z"/>
		<path class="st4" d="M65.7,2.3L66.9,0h1.7l-2.2,4v1.7h-1.5V4.1l-2.3-4h1.7L65.7,2.3z"/>
		<path class="st4" d="M20.3,11.1h-2.4c-0.4,0-0.6,0.2-0.6,0.6v2.1c0,0.3,0.2,0.6,0.5,0.6c0,0,0.1,0,0.1,0h2.4l0,1.2
			c0,0-1.5,0.1-2.8,0.1c-0.8,0.1-1.6-0.6-1.7-1.4c0-0.1,0-0.1,0-0.2v-2.7c0-0.8,0.6-1.5,1.4-1.6c0.1,0,0.1,0,0.2,0
			c1.4,0,2.8,0.1,2.8,0.1L20.3,11.1z"/>
		<path class="st4" d="M23.4,15.6h-1.5V9.9h1.5V15.6z"/>
		<path class="st4" d="M26.6,15.6h-1.5V9.9h3.3c0.8-0.1,1.6,0.5,1.7,1.3c0,0.1,0,0.1,0,0.2v0.8c0,0.6-0.3,1.1-0.8,1.3l0.9,2h-1.6
			l-0.9-1.8h-1.2L26.6,15.6z M28.7,12v-0.3c0-0.4-0.2-0.6-0.6-0.6h-1.5v1.5h1.5c0.3,0,0.6-0.2,0.6-0.4C28.7,12.1,28.7,12.1,28.7,12
			L28.7,12z"/>
		<path class="st4" d="M36.2,11.1h-2.4c-0.4,0-0.6,0.2-0.6,0.6v2.1c0,0.3,0.2,0.6,0.5,0.6c0,0,0.1,0,0.1,0h2.4l0,1.2
			c0,0-1.5,0.1-2.8,0.1c-0.8,0.1-1.6-0.6-1.7-1.4c0-0.1,0-0.1,0-0.2v-2.7c0-0.8,0.6-1.5,1.4-1.6c0.1,0,0.2,0,0.2,0
			c1.4,0,2.8,0.1,2.8,0.1L36.2,11.1z"/>
		<path class="st4" d="M39.8,14.4h1c0.4,0,0.6-0.2,0.6-0.6v-4h1.5v4.2c0,0.8-0.6,1.5-1.5,1.5c-0.1,0-0.1,0-0.2,0h-1.7
			c-0.8,0.1-1.6-0.5-1.7-1.3c0-0.1,0-0.1,0-0.2V9.9h1.5v4C39.2,14.2,39.4,14.4,39.8,14.4z"/>
		<path class="st4" d="M46,15.6h-1.5V9.9H46V15.6z"/>
		<path class="st4" d="M52.6,11.1h-1.8v4.5h-1.5v-4.5h-1.8V9.9h5.1L52.6,11.1z"/>
	</g>
	<g transform="translate(1517.788 -574.522)">
		<path class="st4" d="M13.2,5.8h-1.5V0H15c0.8-0.1,1.5,0.4,1.7,1.2c0,0.1,0,0.2,0,0.2v1.1c0,0.8-0.6,1.5-1.4,1.5
			c-0.1,0-0.2,0-0.2,0h-1.8L13.2,5.8z M15.2,2.3V1.8c0-0.4-0.2-0.6-0.6-0.6h-1.4v1.6h1.4C15.1,2.9,15.2,2.7,15.2,2.3L15.2,2.3z"/>
		<path class="st4" d="M21.3,4.5h-2.1l-0.4,1.3h-1.6c0,0,1.6-5.2,1.8-5.5C19.1,0.1,19.1,0,19.4,0h1.8c0.3,0,0.3,0,0.4,0.2
			c0.1,0.3,1.7,5.5,1.7,5.5h-1.6L21.3,4.5z M19.6,3.2H21l-0.6-2h-0.2L19.6,3.2z"/>
		<path class="st4" d="M28.9,1.3h-2.4c-0.4,0-0.6,0.2-0.6,0.6V4c0,0.3,0.2,0.6,0.5,0.6c0,0,0.1,0,0.1,0h2.4l0,1.2
			c0,0-1.5,0.1-2.8,0.1c-0.8,0.1-1.6-0.6-1.7-1.4c0-0.1,0-0.1,0-0.2V1.6c0-0.8,0.6-1.5,1.4-1.6C26,0,26,0,26.1,0
			C27.5,0,29,0.1,29,0.1L28.9,1.3z"/>
		<path class="st4" d="M32,2.2h0.7l1.4-2.1h1.7L34,2.9l1.7,2.9h-1.7l-1.2-2.1H32v2.1h-1.5V0.1H32L32,2.2z"/>
		<path class="st4" d="M37.1,0h4.4v1.2h-2.9v1H41v1.2h-2.4v1h2.9v1.3h-4.3L37.1,0z"/>
		<path class="st4" d="M47.9,1.3h-1.8v4.5h-1.5V1.3h-1.8V0h5.1L47.9,1.3z"/>
		<path class="st4" d="M1.5,15.6H0V9.9h3.3c0.8-0.1,1.5,0.4,1.7,1.2c0,0.1,0,0.2,0,0.2v1.1C5,13.3,4.4,14,3.6,14c-0.1,0-0.2,0-0.2,0
			H1.5V15.6z M3.5,12.2v-0.5c0-0.4-0.2-0.6-0.6-0.6H1.5v1.6h1.4C3.3,12.7,3.5,12.5,3.5,12.2z"/>
		<path class="st4" d="M8,15.6H6.6V9.9h3.3c0.8-0.1,1.6,0.5,1.7,1.3c0,0.1,0,0.1,0,0.2v0.8c0,0.6-0.3,1.1-0.8,1.3l0.9,2h-1.6
			l-0.9-1.8H8V15.6z M10.1,12v-0.3c0-0.4-0.2-0.6-0.6-0.6H8v1.5h1.5c0.3,0,0.6-0.2,0.6-0.4C10.1,12.1,10.1,12.1,10.1,12L10.1,12z"/>
		<path class="st4" d="M13.1,14.1v-2.7c0-0.8,0.6-1.5,1.5-1.5c0.1,0,0.1,0,0.2,0h1.9c0.8-0.1,1.6,0.5,1.7,1.3c0,0.1,0,0.1,0,0.2v2.7
			c0,0.8-0.6,1.5-1.5,1.5c-0.1,0-0.1,0-0.2,0h-1.9c-0.8,0.1-1.6-0.5-1.7-1.3C13.1,14.2,13.1,14.2,13.1,14.1z M14.6,11.6v2.2
			c0,0.4,0.2,0.6,0.6,0.6h1c0.4,0,0.6-0.2,0.6-0.6v-2.2c0-0.4-0.2-0.5-0.6-0.5h-1C14.8,11.1,14.6,11.3,14.6,11.6L14.6,11.6z"/>
		<path class="st4" d="M24.4,11.1h-2.4c-0.4,0-0.6,0.2-0.6,0.6v2.1c0,0.3,0.2,0.6,0.5,0.6c0,0,0.1,0,0.1,0h2.4l0,1.2
			c0,0-1.5,0.1-2.8,0.1c-0.8,0.1-1.6-0.6-1.7-1.4c0-0.1,0-0.1,0-0.2v-2.7c0-0.8,0.6-1.5,1.4-1.6c0.1,0,0.1,0,0.2,0
			c1.4,0,2.8,0.1,2.8,0.1L24.4,11.1z"/>
		<path class="st4" d="M26,9.9h4.4v1.2h-2.9v1h2.4v1.2h-2.4v1h2.9v1.3H26L26,9.9z"/>
		<path class="st4" d="M36.3,11.2h-2.6c-0.3,0-0.4,0-0.4,0.3v0.1c0,0.2,0.1,0.2,0.3,0.2c0,0,1.7,0.3,1.8,0.3c1,0.2,1.2,0.6,1.2,1.4
			v0.7c0,1-0.5,1.5-1.9,1.5c-1.1,0-2.9-0.1-2.9-0.1l0-1.2h2.7c0.5,0,0.6-0.1,0.6-0.4v-0.2c0-0.1,0-0.2-0.2-0.3s-1.4-0.3-1.6-0.3
			c-1.1-0.2-1.6-0.3-1.6-1.3v-0.5c0-1,0.5-1.5,1.9-1.5c1.1,0,2.6,0.1,2.6,0.1L36.3,11.2z"/>
		<path class="st4" d="M42.4,11.2h-2.6c-0.3,0-0.4,0-0.4,0.3v0.1c0,0.2,0.1,0.2,0.3,0.2c0,0,1.7,0.3,1.8,0.3c1,0.2,1.2,0.6,1.2,1.4
			v0.7c0,1-0.5,1.5-1.9,1.5c-1.1,0-2.9-0.1-2.9-0.1l0-1.2h2.7c0.5,0,0.6-0.1,0.6-0.4v-0.2c0-0.1-0.1-0.2-0.2-0.3c0,0,0,0,0,0
			c-0.2,0-1.4-0.3-1.6-0.3c-1.1-0.2-1.6-0.3-1.6-1.3v-0.5c0-1,0.5-1.5,1.9-1.5c1.1,0,2.6,0.1,2.6,0.1L42.4,11.2z"/>
		<path class="st4" d="M45.7,15.6h-1.5V9.9h1.5V15.6z"/>
		<path class="st4" d="M52.8,15.6h-1.2c-0.2,0-0.4-0.1-0.5-0.2l-2.1-3h0v3.2h-1.5V9.9h1.2c0.3,0,0.3,0,0.4,0.2
			c0,0.1,1.9,2.7,2.2,3.1h0V9.9h1.5L52.8,15.6z"/>
		<path class="st4" d="M56.8,12.3h2.7l-0.1,3c0,0.1-0.1,0.2-0.2,0.3c0,0-1.7,0.1-3.1,0.1c-0.8,0.1-1.6-0.6-1.7-1.4
			c0-0.1,0-0.1,0-0.2v-2.7c0-0.8,0.6-1.6,1.5-1.6c0.1,0,0.1,0,0.2,0c1.4,0,3,0.1,3,0.1l0,1.2h-2.6c-0.4,0-0.6,0.2-0.6,0.6v2.1
			c0,0.4,0.2,0.6,0.6,0.6h1.6l0-0.9l-1.3-0.1L56.8,12.3z"/>
	</g>
	<g transform="translate(1547.607 -727.944)">
		<path class="st4" d="M0,0.1h7.8c2.5,0,4,1.6,4,3.6v6.1c0,2-1.5,3.6-4,3.6H0V0.1z M8.3,4.4c0-1.1-0.5-1.5-1.5-1.5H3.4v7.6h3.4
			c1,0,1.5-0.4,1.5-1.5V4.4z"/>
		<path class="st4" d="M15.6,0.1h10v2.8H19v2.3h5.6v2.9H19v2.3h6.6v3h-10L15.6,0.1z"/>
		<path class="st4" d="M39.2,3h-6c-0.7,0-0.8,0-0.8,0.7v0.2c0,0.4,0.2,0.5,0.7,0.5c0,0,3.8,0.7,4.2,0.8C39.6,5.7,40,6.5,40,8.4V10
			c0,2.3-1.1,3.5-4.4,3.4c-2.5,0-6.7-0.3-6.7-0.3l0-2.7h6.2c1.1,0,1.4-0.2,1.4-1V8.9c0.1-0.3-0.1-0.6-0.4-0.6c0,0,0,0-0.1,0
			c-0.5-0.1-3.3-0.6-3.6-0.7c-2.5-0.4-3.6-0.6-3.6-3V3.4C28.9,1,30,0,33.3,0c2.5,0,5.9,0.3,5.9,0.3L39.2,3z"/>
		<path class="st4" d="M54,2.9h-4.1v10.4h-3.4V2.9h-4.2V0.1H54L54,2.9z"/>
		<path class="st4" d="M60.8,13.3h-3.4V0.1h3.4V13.3z"/>
		<path class="st4" d="M77,13.3h-2.8c-0.4,0.1-0.9-0.2-1.1-0.5l-4.8-6.8h-0.1v7.4h-3.4V0.1h2.7c0.7,0,0.7,0.1,0.9,0.4
			c0.1,0.2,4.4,6.1,5,7.1h0.1V0.1H77L77,13.3z"/>
		<path class="st4" d="M89.4,10.3h-4.7l-0.9,3h-3.7c0,0,3.8-11.9,4-12.7c0.2-0.5,0.2-0.5,0.9-0.5h4.1c0.7,0,0.7,0,0.9,0.5
			c0.2,0.8,4,12.7,4,12.7h-3.7L89.4,10.3z M85.4,7.5h3.2l-1.3-4.7h-0.5L85.4,7.5z"/>
		<path class="st4" d="M106.4,2.9h-4.1v10.4h-3.4V2.9h-4.2V0.1h11.7L106.4,2.9z"/>
		<path class="st4" d="M113.2,13.3h-3.4V0.1h3.4V13.3z"/>
		<path class="st4" d="M117.1,9.8V3.6c0-2,1.3-3.5,3.9-3.5h4.3c2.5,0,3.9,1.6,3.9,3.5v6.2c0,2-1.3,3.5-3.9,3.5h-4.3
			C118.4,13.3,117.1,11.8,117.1,9.8z M120.5,4.1v5c0,0.8,0.4,1.3,1.4,1.3h2.4c1,0,1.4-0.5,1.4-1.3v-5c0-0.8-0.4-1.2-1.4-1.2h-2.4
			C120.9,2.9,120.5,3.3,120.5,4.1L120.5,4.1z"/>
		<path class="st4" d="M145,13.3h-2.8c-0.4,0.1-0.9-0.2-1.1-0.5l-4.8-6.8h-0.1v7.4h-3.4V0.1h2.7c0.7,0,0.7,0.1,0.9,0.4
			c0.1,0.2,4.4,6.1,5,7.1h0.1V0.1h3.4L145,13.3z"/>
	</g>
</g>
</svg>
