<?xml version="1.0" encoding="utf-8"?>
<!-- Generator: Adobe Illustrator 23.0.6, SVG Export Plug-In . SVG Version: 6.00 Build 0)  -->
<svg version="1.1" id="Layer_1" xmlns="http://www.w3.org/2000/svg" xmlns:xlink="http://www.w3.org/1999/xlink" x="0px" y="0px"
	 viewBox="0 0 374 113" style="enable-background:new 0 0 374 113;" xml:space="preserve">
<style type="text/css">
	.st0{fill:none;stroke:#008EDB;stroke-width:2;stroke-linecap:round;stroke-linejoin:round;stroke-miterlimit:10;}
	
		.st1{clip-path:url(#SVGID_2_);fill:none;stroke:#002D5D;stroke-width:2;stroke-linecap:round;stroke-linejoin:round;stroke-miterlimit:10;}
	.st2{fill:none;stroke:#002D5D;stroke-width:2;stroke-linecap:round;stroke-linejoin:round;stroke-miterlimit:10;}
	
		.st3{clip-path:url(#SVGID_4_);fill:none;stroke:#002D5D;stroke-width:2;stroke-linecap:round;stroke-linejoin:round;stroke-miterlimit:10;}
	.st4{fill:#002D5D;}
	.st5{fill:none;stroke:#008DD1;stroke-width:2;stroke-linecap:round;stroke-linejoin:round;stroke-miterlimit:10;}
	.st6{fill:none;stroke:#008DD1;stroke-width:2;}
	.st7{fill:none;stroke:#002D5D;stroke-width:2;}
	.st8{fill:#FFFFFF;}
	.st9{fill:#008DD1;}
	.st10{fill:none;stroke:#D9D8D6;stroke-width:2;stroke-linecap:round;stroke-linejoin:round;stroke-dasharray:0,3.973;}
	.st11{fill:none;stroke:#D9D8D6;stroke-width:2;stroke-linecap:round;stroke-linejoin:round;}
	.st12{clip-path:url(#SVGID_6_);fill:#FFFFFF;}
	.st13{clip-path:url(#SVGID_6_);fill:none;stroke:#002D5D;stroke-miterlimit:10;}
	.st14{clip-path:url(#SVGID_6_);fill:none;stroke:#008DD1;stroke-miterlimit:10;}
</style>
<g>
	<path class="st0" d="M44.7,38.9h3.9 M25.3,51.8H35"/>
	<g>
		<defs>
			<rect id="SVGID_1_" x="9.2" y="10.2" width="355.5" height="92.5"/>
		</defs>
		<clipPath id="SVGID_2_">
			<use xlink:href="#SVGID_1_"  style="overflow:visible;"/>
		</clipPath>
		<path class="st1" d="M40.8,51h7.4 M25.6,39.8h12.9 M25.6,28.6h3.6 M50.2,28.6h3.5 M48.2,62.2H25.6V17.4h28.2v14.4 M60.1,66.8v14.4
			H19.2V11.2h40.9v20.5"/>
	</g>
	<line class="st0" x1="34.2" y1="28.6" x2="45.2" y2="28.6"/>
	<path class="st2" d="M90.2,81.2H68.5 M79.4,81.2V66.6 M48.5,66.6h61.7V32.2H48.5V66.6z"/>
	<line class="st0" x1="88.4" y1="39.8" x2="99.4" y2="39.8"/>
	<path class="st2" d="M85.7,51.8h13.7 M78.9,44.4h20.5"/>
	<path class="st0" d="M329.3,38.9h-3.9 M348.7,51.8H339"/>
	<g>
		<defs>
			<rect id="SVGID_3_" x="9.2" y="10.2" width="355.5" height="92.5"/>
		</defs>
		<clipPath id="SVGID_4_">
			<use xlink:href="#SVGID_3_"  style="overflow:visible;"/>
		</clipPath>
		<path class="st3" d="M333.2,51h-7.4 M348.4,39.8h-12.9 M348.4,28.6h-3.6 M323.8,28.6h-3.5 M325.8,62.2h22.6V17.4h-28.2v14.4
			 M313.9,66.8v14.4h40.9V11.2h-40.9v20.5"/>
	</g>
	<line class="st0" x1="339.8" y1="28.6" x2="328.8" y2="28.6"/>
	<path class="st2" d="M283.8,81.2h21.7 M294.6,81.2V66.6 M325.5,66.6h-61.7V32.2h61.7V66.6z"/>
	<line class="st0" x1="285.6" y1="39.8" x2="274.6" y2="39.8"/>
	<path class="st2" d="M288.3,51.8h-13.7 M295.1,44.4h-20.5"/>
	<g>
		<path class="st4" d="M40,93.9h-2.3c-0.4,0-0.5,0.2-0.5,0.4v1.9c0,0.3,0.1,0.5,0.5,0.5H40l0,1.3c0,0-1.6,0.1-2.8,0.1
			c-1.1,0-1.7-0.7-1.7-1.5V94c0-0.8,0.6-1.5,1.7-1.5c1.3,0,2.8,0.1,2.8,0.1L40,93.9z"/>
		<path class="st4" d="M41.2,96.7v-2.6c0-0.8,0.6-1.5,1.7-1.5h1.9c1.1,0,1.7,0.7,1.7,1.5v2.6c0,0.8-0.6,1.5-1.7,1.5h-1.9
			C41.8,98.2,41.2,97.5,41.2,96.7z M42.9,94.3v2c0,0.3,0.1,0.5,0.5,0.5h0.9c0.3,0,0.5-0.2,0.5-0.5v-2c0-0.3-0.1-0.4-0.5-0.4h-0.9
			C43,93.9,42.9,94.1,42.9,94.3z"/>
		<path class="st4" d="M52.4,92.7c0,0,0-0.1,0.1-0.1h2v5.6h-1.7v-2.7h-0.1L52,98.1c0,0,0,0.1-0.1,0.1h-1.2c-0.1,0-0.1-0.1-0.1-0.1
			l-0.8-2.6h-0.1v2.7H48v-5.6H50c0.1,0,0.1,0.1,0.1,0.1l1.1,3h0L52.4,92.7z"/>
		<path class="st4" d="M57.8,98.2h-1.7v-5.6h3.4c1.1,0,1.7,0.7,1.7,1.5v1.1c0,0.8-0.6,1.5-1.7,1.5h-1.7V98.2z M59.6,94.8v-0.5
			c0-0.3-0.1-0.5-0.5-0.5h-1.3v1.4h1.3C59.4,95.3,59.6,95.1,59.6,94.8z"/>
		<path class="st4" d="M64.7,96.8h0.9c0.3,0,0.5-0.2,0.5-0.5v-3.8h1.7v4.1c0,0.8-0.6,1.5-1.7,1.5h-1.8c-1.1,0-1.7-0.7-1.7-1.5v-4.1
			h1.7v3.8C64.2,96.7,64.3,96.8,64.7,96.8z"/>
		<path class="st4" d="M74.1,93.9h-1.7v4.2h-1.7v-4.2H69v-1.4h5.1V93.9z"/>
		<path class="st4" d="M75.4,92.6h4.4v1.3h-2.7v0.8h2.3V96h-2.3v0.7h2.7v1.4h-4.4V92.6z"/>
		<path class="st4" d="M83,98.2h-1.7v-5.6h3.4c1.1,0,1.7,0.7,1.7,1.5V95c0,0.6-0.3,1-0.8,1.3l0.8,1.9h-1.7L84,96.5h-1V98.2z
			 M84.7,94.7v-0.4c0-0.3-0.1-0.5-0.5-0.5H83v1.3h1.3C84.6,95.2,84.7,95,84.7,94.7z"/>
		<path class="st4" d="M89.9,93.3l1.8-0.7h1.4v4.2H94v1.4h-3.9v-1.4h1.3v-2.6l-1.2,0.3L89.9,93.3z"/>
	</g>
	<g>
		<path class="st4" d="M284.1,93.9h-2.3c-0.4,0-0.5,0.2-0.5,0.4v1.9c0,0.3,0.1,0.5,0.5,0.5h2.3l0,1.3c0,0-1.6,0.1-2.8,0.1
			c-1.1,0-1.7-0.7-1.7-1.5V94c0-0.8,0.6-1.5,1.7-1.5c1.3,0,2.8,0.1,2.8,0.1L284.1,93.9z"/>
		<path class="st4" d="M285.4,96.7v-2.6c0-0.8,0.6-1.5,1.7-1.5h1.9c1.1,0,1.7,0.7,1.7,1.5v2.6c0,0.8-0.6,1.5-1.7,1.5H287
			C285.9,98.2,285.4,97.5,285.4,96.7z M287,94.3v2c0,0.3,0.1,0.5,0.5,0.5h0.9c0.3,0,0.5-0.2,0.5-0.5v-2c0-0.3-0.1-0.4-0.5-0.4h-0.9
			C287.1,93.9,287,94.1,287,94.3z"/>
		<path class="st4" d="M296.5,92.7c0,0,0-0.1,0.1-0.1h2v5.6H297v-2.7H297l-0.8,2.6c0,0,0,0.1-0.1,0.1h-1.2c-0.1,0-0.1-0.1-0.1-0.1
			l-0.8-2.6h-0.1v2.7h-1.7v-5.6h2.1c0.1,0,0.1,0.1,0.1,0.1l1.1,3h0L296.5,92.7z"/>
		<path class="st4" d="M302,98.2h-1.7v-5.6h3.4c1.1,0,1.7,0.7,1.7,1.5v1.1c0,0.8-0.6,1.5-1.7,1.5H302V98.2z M303.7,94.8v-0.5
			c0-0.3-0.1-0.5-0.5-0.5H302v1.4h1.3C303.6,95.3,303.7,95.1,303.7,94.8z"/>
		<path class="st4" d="M308.8,96.8h0.9c0.3,0,0.5-0.2,0.5-0.5v-3.8h1.7v4.1c0,0.8-0.6,1.5-1.7,1.5h-1.8c-1.1,0-1.7-0.7-1.7-1.5v-4.1
			h1.7v3.8C308.4,96.7,308.5,96.8,308.8,96.8z"/>
		<path class="st4" d="M318.2,93.9h-1.7v4.2h-1.7v-4.2h-1.7v-1.4h5.1V93.9z"/>
		<path class="st4" d="M319.5,92.6h4.4v1.3h-2.7v0.8h2.3V96h-2.3v0.7h2.7v1.4h-4.4V92.6z"/>
		<path class="st4" d="M327.1,98.2h-1.7v-5.6h3.4c1.1,0,1.7,0.7,1.7,1.5V95c0,0.6-0.3,1-0.8,1.3l0.8,1.9h-1.7l-0.8-1.7h-1V98.2z
			 M328.9,94.7v-0.4c0-0.3-0.1-0.5-0.5-0.5h-1.3v1.3h1.3C328.8,95.2,328.9,95,328.9,94.7z"/>
		<path class="st4" d="M337.1,94.5c0.2-0.1,0.3-0.2,0.3-0.3v-0.1c0-0.2,0-0.2-0.3-0.2h-2.4l0-1.3c0,0,1.6-0.1,2.4-0.1
			c1.5,0,2,0.6,2,1.4v0.3c0,1.1,0,1.3-1.4,1.8c0,0-1.3,0.3-1.4,0.4s-0.1,0.1-0.1,0.2v0.2h2.8v1.4h-4.7v-1.5c0-0.8,0.1-1.2,1.2-1.6
			L337.1,94.5z"/>
	</g>
	<polyline class="st5" points="250.4,53.7 257.2,57.9 250.4,62.2 	"/>
	<line class="st6" x1="111.2" y1="57.9" x2="257.2" y2="57.9"/>
	<polyline class="st2" points="181,45.2 174.2,40.9 181,36.7 	"/>
	<line class="st7" x1="262.8" y1="40.9" x2="175.3" y2="40.9"/>
	<rect x="159.4" y="54.5" class="st8" width="49.7" height="6.9"/>
	<g>
		<path class="st9" d="M165.1,56.3h-2.6c-0.2,0-0.2,0-0.2,0.2v0.1c0,0.1,0.1,0.1,0.3,0.2c0,0,1.6,0.3,1.7,0.3c1,0.2,1.2,0.6,1.2,1.4
			v0.6c0,1-0.5,1.5-1.9,1.5c-1,0-2.9-0.1-2.9-0.1l0-1.3h2.6c0.3,0,0.5-0.1,0.5-0.3v-0.2c0-0.1,0-0.2-0.1-0.2c-0.1,0-1.3-0.2-1.4-0.2
			c-1.1-0.2-1.7-0.3-1.7-1.3v-0.5c0-1,0.5-1.5,2-1.5c1,0,2.5,0.1,2.5,0.1L165.1,56.3z"/>
		<path class="st9" d="M166.8,54.9h4.4v1.3h-2.7V57h2.3v1.4h-2.3v0.7h2.7v1.4h-4.4V54.9z"/>
		<path class="st9" d="M178,60.5h-1.3c-0.3,0-0.4,0-0.5-0.3l-1.7-2.5h-0.1v2.8h-1.7v-5.6h1.3c0.4,0,0.3,0,0.4,0.2
			c0.1,0.1,1.5,2.2,1.8,2.6h0v-2.8h1.7V60.5z"/>
		<path class="st9" d="M179.6,54.9h3.4c1.1,0,1.7,0.7,1.7,1.5V59c0,0.8-0.6,1.5-1.7,1.5h-3.4V54.9z M183.1,56.7
			c0-0.3-0.2-0.5-0.5-0.5h-1.3v2.9h1.3c0.3,0,0.5-0.2,0.5-0.5V56.7z"/>
		<path class="st9" d="M191.6,54l1,0.5l-3.5,7.4l-1-0.4L191.6,54z"/>
		<path class="st9" d="M201.1,56.3h-1.7v4.2h-1.7v-4.2H196v-1.4h5.1V56.3z"/>
		<path class="st9" d="M206.3,57.7l1.6,2.8H206l-1-1.7h0l-1,1.7h-1.9l1.6-2.8l-1.7-2.8h2l1,1.7h0l1-1.7h2L206.3,57.7z"/>
	</g>
	<rect x="189" y="37.5" class="st8" width="64.9" height="6.9"/>
	<g>
		<path class="st4" d="M192.3,43.5h-1.7v-5.6h3.4c1.1,0,1.7,0.7,1.7,1.5v0.9c0,0.6-0.3,1-0.8,1.3l0.8,1.9H194l-0.8-1.7h-1V43.5z
			 M194,40.1v-0.4c0-0.3-0.1-0.5-0.5-0.5h-1.3v1.3h1.3C193.9,40.5,194,40.3,194,40.1z"/>
		<path class="st4" d="M197.2,37.9h4.4v1.3h-2.7V40h2.3v1.4h-2.3v0.7h2.7v1.4h-4.4V37.9z"/>
		<path class="st4" d="M207.4,39.3h-2.3c-0.4,0-0.5,0.2-0.5,0.4v1.9c0,0.3,0.1,0.5,0.5,0.5h2.3l0,1.3c0,0-1.6,0.1-2.8,0.1
			c-1.1,0-1.7-0.7-1.7-1.5v-2.6c0-0.8,0.6-1.5,1.7-1.5c1.3,0,2.8,0.1,2.8,0.1L207.4,39.3z"/>
		<path class="st4" d="M208.9,37.9h4.4v1.3h-2.7V40h2.3v1.4h-2.3v0.7h2.7v1.4h-4.4V37.9z"/>
		<path class="st4" d="M216.5,43.5h-1.7v-5.6h1.7V43.5z"/>
		<path class="st4" d="M221.6,37.9h1.9c0,0-1.3,4.8-1.4,5.4c-0.1,0.2-0.2,0.3-0.3,0.3h-2.3c-0.1,0-0.2,0-0.3-0.3
			c-0.2-0.5-1.5-5.4-1.5-5.4h1.9l1,4h0.1L221.6,37.9z"/>
		<path class="st4" d="M224.6,37.9h4.4v1.3h-2.7V40h2.3v1.4h-2.3v0.7h2.7v1.4h-4.4V37.9z"/>
		<path class="st4" d="M235.9,37l1,0.5l-3.5,7.4l-1-0.4L235.9,37z"/>
		<path class="st4" d="M242.2,43.5h-1.7v-5.6h3.4c1.1,0,1.7,0.7,1.7,1.5v0.9c0,0.6-0.3,1-0.8,1.3l0.8,1.9H244l-0.8-1.7h-1V43.5z
			 M244,40.1v-0.4c0-0.3-0.1-0.5-0.5-0.5h-1.3v1.3h1.3C243.8,40.5,244,40.3,244,40.1z"/>
		<path class="st4" d="M250.9,40.7l1.6,2.8h-1.9l-1-1.7h0l-1,1.7h-1.9l1.6-2.8l-1.7-2.8h2l1,1.7h0l1-1.7h2L250.9,40.7z"/>
	</g>
	<line class="st10" x1="159" y1="40.9" x2="117.3" y2="40.9"/>
	<path class="st11" d="M115.3,40.9L115.3,40.9 M163,40.9L163,40.9"/>
	<g>
		<defs>
			<rect id="SVGID_5_" x="9.2" y="10.2" width="355.5" height="92.5"/>
		</defs>
		<clipPath id="SVGID_6_">
			<use xlink:href="#SVGID_5_"  style="overflow:visible;"/>
		</clipPath>
		<path class="st12" d="M167.3,43.9C167.3,43.9,167.3,43.9,167.3,43.9C167.3,43.9,167.3,43.8,167.3,43.9c-0.4-1.1-0.8-2.2-1.2-3.2
			c-0.5-1.3-1-2.6-1.5-4c0-0.1,0-0.2,0-0.3c0.4-0.5,0.7-1.1,0.9-1.7c0,0,0,0,0-0.1c0.2,0.8,0.1,1.7-0.1,2.5c0.1,0,0.1,0,0.2,0.1
			c1.4,0.6,2.8,1.1,4.2,1.7c0.6,0.2,1.2,0.5,1.9,0.7c0,0,0,0,0,0c-0.1-1-0.3-1.9-0.6-2.8c-0.4-1.1-1-2.1-1.7-3
			c-0.7-0.8-1.5-1.5-2.5-1.9c-0.6-0.2-1.2-0.4-1.8-0.5c-0.3-0.1-0.6-0.2-0.8-0.4c-0.1-0.1-0.3-0.3-0.4-0.4c0,0-0.1-0.1-0.1-0.2
			c0-0.5-0.1-1-0.1-1.5c-0.2-2.8-1.3-5.4-3.1-7.5c-0.1-0.2-0.3-0.3-0.4-0.5c-0.2-0.2-0.4-0.4-0.5-0.5c0,0-0.1-0.1-0.1-0.1
			c-0.9-0.8-1.8-1.5-2.9-2c-0.4-0.2-0.8-0.4-1.3-0.6c-0.5-0.2-1-0.1-1.5,0.2c-0.1,0-0.1,0.1-0.2,0.1c-0.1,0.1-0.2,0.2-0.3,0.3
			c-0.3,0.4-0.4,0.8-0.4,1.2c0,0.7,0.3,1.3,0.9,1.6c0.3,0.2,0.6,0.3,0.9,0.4c1.4,0.7,2.6,1.7,3.5,3.1c1.2,1.7,1.3,3.6,1,5.6
			c0,0.1-0.1,0.2-0.2,0.3c-0.5,0.4-0.9,0.8-1.3,1.3c0,0-0.1,0.1-0.1,0.1c-0.4,0-0.8,0.1-1.2,0.1c-1.4,0.1-2.7-0.2-3.9-0.8
			c-1.5-0.8-2.5-2-3.3-3.5c-0.2-0.4-0.4-0.9-0.7-1.3c-0.3-0.6-0.8-0.9-1.5-0.9c-0.5,0-0.9,0.1-1.3,0.4l-0.3,0.3c0,0,0,0,0,0
			c-0.4,0.6-0.4,1.2-0.2,1.8c0.5,1.3,1.2,2.4,2.1,3.5c0.2,0.2,0.4,0.5,0.6,0.7c0.2,0.2,0.4,0.4,0.6,0.6c0,0,0.1,0.1,0.1,0.1
			c1.1,1.1,2.4,1.8,3.9,2.4c1.6,0.6,3.2,0.9,4.9,1c0.6,0,0.6,0,1.1,0.5c0.2,0.2,0.4,0.5,0.4,0.9c0.2,1.2,0.7,2.3,1.5,3.3
			c1,1.1,2.1,1.9,3.5,2.3c0.1,0,0.1,0,0.2,0c-0.1-0.8-0.1-1.5-0.2-2.2c0,0,0,0,0,0c0,0.1,0.1,0.2,0.1,0.2c0.3,0.8,0.6,1.6,0.9,2.4
			c0,0.1,0.1,0.1,0.1,0.1C165.9,43.7,166.6,43.8,167.3,43.9"/>
		<path class="st13" d="M167.3,43.9C167.3,43.9,167.3,43.9,167.3,43.9C167.3,43.9,167.3,43.8,167.3,43.9c-0.4-1.1-0.8-2.2-1.2-3.2
			c-0.5-1.3-1-2.6-1.5-4c0-0.1,0-0.2,0-0.3c0.4-0.5,0.7-1.1,0.9-1.7c0,0,0,0,0-0.1c0.2,0.8,0.1,1.7-0.1,2.5c0.1,0,0.1,0,0.2,0.1
			c1.4,0.6,2.8,1.1,4.2,1.7c0.6,0.2,1.2,0.5,1.9,0.7c0,0,0,0,0,0c-0.1-1-0.3-1.9-0.6-2.8c-0.4-1.1-1-2.1-1.7-3
			c-0.7-0.8-1.5-1.5-2.5-1.9c-0.6-0.2-1.2-0.4-1.8-0.5c-0.3-0.1-0.6-0.2-0.8-0.4c-0.1-0.1-0.3-0.3-0.4-0.4c0,0-0.1-0.1-0.1-0.2
			c0-0.5-0.1-1-0.1-1.5c-0.2-2.8-1.3-5.4-3.1-7.5c-0.1-0.2-0.3-0.3-0.4-0.5c-0.2-0.2-0.4-0.4-0.5-0.5c0,0-0.1-0.1-0.1-0.1
			c-0.9-0.8-1.8-1.5-2.9-2c-0.4-0.2-0.8-0.4-1.3-0.6c-0.5-0.2-1-0.1-1.5,0.2c-0.1,0-0.1,0.1-0.2,0.1c-0.1,0.1-0.2,0.2-0.3,0.3
			c-0.3,0.4-0.4,0.8-0.4,1.2c0,0.7,0.3,1.3,0.9,1.6c0.3,0.2,0.6,0.3,0.9,0.4c1.4,0.7,2.6,1.7,3.5,3.1c1.2,1.7,1.3,3.6,1,5.6
			c0,0.1-0.1,0.2-0.2,0.3c-0.5,0.4-0.9,0.8-1.3,1.3c0,0-0.1,0.1-0.1,0.1c-0.4,0-0.8,0.1-1.2,0.1c-1.4,0.1-2.7-0.2-3.9-0.8
			c-1.5-0.8-2.5-2-3.3-3.5c-0.2-0.4-0.4-0.9-0.7-1.3c-0.3-0.6-0.8-0.9-1.5-0.9c-0.5,0-0.9,0.1-1.3,0.4l-0.3,0.3c0,0,0,0,0,0
			c-0.4,0.6-0.4,1.2-0.2,1.8c0.5,1.3,1.2,2.4,2.1,3.5c0.2,0.2,0.4,0.5,0.6,0.7c0.2,0.2,0.4,0.4,0.6,0.6c0,0,0.1,0.1,0.1,0.1
			c1.1,1.1,2.4,1.8,3.9,2.4c1.6,0.6,3.2,0.9,4.9,1c0.6,0,0.6,0,1.1,0.5c0.2,0.2,0.4,0.5,0.4,0.9c0.2,1.2,0.7,2.3,1.5,3.3
			c1,1.1,2.1,1.9,3.5,2.3c0.1,0,0.1,0,0.2,0c-0.1-0.8-0.1-1.5-0.2-2.2c0,0,0,0,0,0c0,0.1,0.1,0.2,0.1,0.2c0.3,0.8,0.6,1.6,0.9,2.4
			c0,0.1,0.1,0.1,0.1,0.1C165.9,43.7,166.6,43.8,167.3,43.9z"/>
		<path class="st14" d="M160.7,32.9c0.5-0.6,1.4-0.4,1.8,0c0.4,0.4,0.5,1.3,0,1.8c-0.5,0.5-1.3,0.5-1.8,0
			C160.2,34.1,160.2,33.4,160.7,32.9z"/>
	</g>
</g>
</svg>
