<?xml version="1.0" encoding="utf-8"?>
<!-- Generator: Adobe Illustrator 23.0.3, SVG Export Plug-In . SVG Version: 6.00 Build 0)  -->
<svg version="1.1" id="Layer_1" xmlns="http://www.w3.org/2000/svg" xmlns:xlink="http://www.w3.org/1999/xlink" x="0px" y="0px"
	 viewBox="0 0 561 279.3" style="enable-background:new 0 0 561 279.3;" xml:space="preserve">
<style type="text/css">
	.st0{fill:#002D5D;}
	.st1{fill:#FFFFFF;}
	.st2{fill:#E80029;}
	.st3{fill:#89C5ED;}
	.st4{fill:#213153;}
</style>
<g>
	<g>
		<g>
			
				<rect x="427.4" y="33.6" transform="matrix(-1 -9.407732e-11 9.407732e-11 -1 972.3986 282.5029)" class="st0" width="117.7" height="215.3"/>
		</g>
	</g>
	<g>
		<g>
			<rect x="31.2" y="33.6" class="st1" width="153.6" height="215.3"/>
		</g>
	</g>
	<g>
		<g>
			<path class="st0" d="M177.3,218.6c-0.6,0-1-0.4-1-1v-4c0-0.6,0.4-1,1-1s1,0.4,1,1v4C178.3,218.2,177.9,218.6,177.3,218.6z"/>
		</g>
		<g>
			<path class="st0" d="M177.3,232.9c-0.6,0-1-0.4-1-1v-7.2c0-0.6,0.4-1,1-1s1,0.4,1,1v7.2C178.3,232.5,177.9,232.9,177.3,232.9z"/>
		</g>
		<g>
			<path class="st0" d="M177.3,244.1h-4c-0.6,0-1-0.4-1-1s0.4-1,1-1h3v-3c0-0.6,0.4-1,1-1s1,0.4,1,1v4
				C178.3,243.6,177.9,244.1,177.3,244.1z"/>
		</g>
		<g>
			<path class="st0" d="M164.9,244.1h-8.4c-0.6,0-1-0.4-1-1s0.4-1,1-1h8.4c0.6,0,1,0.4,1,1S165.4,244.1,164.9,244.1z M148,244.1
				h-8.4c-0.6,0-1-0.4-1-1s0.4-1,1-1h8.4c0.6,0,1,0.4,1,1S148.6,244.1,148,244.1z M131.1,244.1h-8.4c-0.6,0-1-0.4-1-1s0.4-1,1-1h8.4
				c0.6,0,1,0.4,1,1S131.7,244.1,131.1,244.1z M114.3,244.1h-8.4c-0.6,0-1-0.4-1-1s0.4-1,1-1h8.4c0.6,0,1,0.4,1,1
				S114.8,244.1,114.3,244.1z M97.4,244.1H89c-0.6,0-1-0.4-1-1s0.4-1,1-1h8.4c0.6,0,1,0.4,1,1S97.9,244.1,97.4,244.1z M80.5,244.1
				h-8.4c-0.6,0-1-0.4-1-1s0.4-1,1-1h8.4c0.6,0,1,0.4,1,1S81.1,244.1,80.5,244.1z M63.7,244.1h-8.4c-0.6,0-1-0.4-1-1s0.4-1,1-1h8.4
				c0.6,0,1,0.4,1,1S64.2,244.1,63.7,244.1z M46.8,244.1h-8.4c-0.6,0-1-0.4-1-1s0.4-1,1-1h8.4c0.6,0,1,0.4,1,1
				S47.3,244.1,46.8,244.1z"/>
		</g>
		<g>
			<path class="st0" d="M29.9,244.1h-4c-0.6,0-1-0.4-1-1v-4c0-0.6,0.4-1,1-1s1,0.4,1,1v3h3c0.6,0,1,0.4,1,1S30.5,244.1,29.9,244.1z"
				/>
		</g>
		<g>
			<path class="st0" d="M25.9,231.8c-0.6,0-1-0.4-1-1v-8.3c0-0.6,0.4-1,1-1s1,0.4,1,1v8.3C26.9,231.4,26.5,231.8,25.9,231.8z
				 M25.9,215.2c-0.6,0-1-0.4-1-1v-8.3c0-0.6,0.4-1,1-1s1,0.4,1,1v8.3C26.9,214.8,26.5,215.2,25.9,215.2z M25.9,198.6
				c-0.6,0-1-0.4-1-1v-8.3c0-0.6,0.4-1,1-1s1,0.4,1,1v8.3C26.9,198.2,26.5,198.6,25.9,198.6z M25.9,182.1c-0.6,0-1-0.4-1-1v-8.3
				c0-0.6,0.4-1,1-1s1,0.4,1,1v8.3C26.9,181.6,26.5,182.1,25.9,182.1z M25.9,165.5c-0.6,0-1-0.4-1-1v-8.3c0-0.6,0.4-1,1-1s1,0.4,1,1
				v8.3C26.9,165,26.5,165.5,25.9,165.5z M25.9,148.9c-0.6,0-1-0.4-1-1v-8.3c0-0.6,0.4-1,1-1s1,0.4,1,1v8.3
				C26.9,148.4,26.5,148.9,25.9,148.9z M25.9,132.3c-0.6,0-1-0.4-1-1V123c0-0.6,0.4-1,1-1s1,0.4,1,1v8.3
				C26.9,131.9,26.5,132.3,25.9,132.3z M25.9,115.7c-0.6,0-1-0.4-1-1v-8.3c0-0.6,0.4-1,1-1s1,0.4,1,1v8.3
				C26.9,115.3,26.5,115.7,25.9,115.7z M25.9,99.1c-0.6,0-1-0.4-1-1v-8.3c0-0.6,0.4-1,1-1s1,0.4,1,1v8.3
				C26.9,98.7,26.5,99.1,25.9,99.1z M25.9,82.6c-0.6,0-1-0.4-1-1v-8.3c0-0.6,0.4-1,1-1s1,0.4,1,1v8.3C26.9,82.1,26.5,82.6,25.9,82.6
				z M25.9,66c-0.6,0-1-0.4-1-1v-8.3c0-0.6,0.4-1,1-1s1,0.4,1,1V65C26.9,65.5,26.5,66,25.9,66z M25.9,49.4c-0.6,0-1-0.4-1-1v-8.3
				c0-0.6,0.4-1,1-1s1,0.4,1,1v8.3C26.9,48.9,26.5,49.4,25.9,49.4z"/>
		</g>
		<g>
			<path class="st0" d="M25.9,32.8c-0.6,0-1-0.4-1-1v-4c0-0.6,0.4-1,1-1h4c0.6,0,1,0.4,1,1s-0.4,1-1,1h-3v3
				C26.9,32.4,26.5,32.8,25.9,32.8z"/>
		</g>
		<g>
			<path class="st0" d="M164.9,28.8h-8.4c-0.6,0-1-0.4-1-1s0.4-1,1-1h8.4c0.6,0,1,0.4,1,1S165.4,28.8,164.9,28.8z M148,28.8h-8.4
				c-0.6,0-1-0.4-1-1s0.4-1,1-1h8.4c0.6,0,1,0.4,1,1S148.6,28.8,148,28.8z M131.1,28.8h-8.4c-0.6,0-1-0.4-1-1s0.4-1,1-1h8.4
				c0.6,0,1,0.4,1,1S131.7,28.8,131.1,28.8z M114.3,28.8h-8.4c-0.6,0-1-0.4-1-1s0.4-1,1-1h8.4c0.6,0,1,0.4,1,1
				S114.8,28.8,114.3,28.8z M97.4,28.8H89c-0.6,0-1-0.4-1-1s0.4-1,1-1h8.4c0.6,0,1,0.4,1,1S97.9,28.8,97.4,28.8z M80.5,28.8h-8.4
				c-0.6,0-1-0.4-1-1s0.4-1,1-1h8.4c0.6,0,1,0.4,1,1S81.1,28.8,80.5,28.8z M63.7,28.8h-8.4c-0.6,0-1-0.4-1-1s0.4-1,1-1h8.4
				c0.6,0,1,0.4,1,1S64.2,28.8,63.7,28.8z M46.8,28.8h-8.4c-0.6,0-1-0.4-1-1s0.4-1,1-1h8.4c0.6,0,1,0.4,1,1S47.3,28.8,46.8,28.8z"/>
		</g>
		<g>
			<path class="st0" d="M177.3,32.8c-0.6,0-1-0.4-1-1v-3h-3c-0.6,0-1-0.4-1-1s0.4-1,1-1h4c0.6,0,1,0.4,1,1v4
				C178.3,32.4,177.9,32.8,177.3,32.8z"/>
		</g>
		<g>
			<path class="st0" d="M177.3,47.1c-0.6,0-1-0.4-1-1V39c0-0.6,0.4-1,1-1s1,0.4,1,1v7.2C178.3,46.7,177.9,47.1,177.3,47.1z"/>
		</g>
		<g>
			<path class="st0" d="M177.3,58.3c-0.6,0-1-0.4-1-1v-4c0-0.6,0.4-1,1-1s1,0.4,1,1v4C178.3,57.8,177.9,58.3,177.3,58.3z"/>
		</g>
	</g>
	<g>
		<path class="st2" d="M214.7,166.4h-20.5c-0.6,0-1-0.4-1-1s0.4-1,1-1h20.5c0.6,0,1,0.4,1,1S215.3,166.4,214.7,166.4z"/>
	</g>
	<g>
		<g>
			
				<rect x="214.7" y="144.2" transform="matrix(-1 -5.329305e-11 5.329305e-11 -1 448.5398 330.8086)" class="st3" width="19.1" height="42.3"/>
			<path class="st3" d="M233.8,187.6h-19.1c-0.6,0-1-0.4-1-1v-42.4c0-0.6,0.4-1,1-1h19.1c0.6,0,1,0.4,1,1v42.4
				C234.8,187.1,234.4,187.6,233.8,187.6z M215.7,185.6h17.1v-40.4h-17.1V185.6z"/>
		</g>
		<g>
			<path class="st2" d="M291.5,166.4h-32.8c-0.6,0-1-0.4-1-1s0.4-1,1-1h32.8c0.6,0,1,0.4,1,1S292,166.4,291.5,166.4z"/>
		</g>
		<g>
			<path class="st2" d="M263.8,170.1c-0.2,0-0.4-0.1-0.5-0.2l-5.7-3.7c-0.3-0.2-0.5-0.5-0.5-0.8s0.2-0.7,0.5-0.8l5.7-3.7
				c0.5-0.3,1.1-0.2,1.4,0.3c0.3,0.5,0.2,1.1-0.3,1.4l-4.4,2.9l4.4,2.9c0.5,0.3,0.6,0.9,0.3,1.4C264.4,170,264.1,170.1,263.8,170.1z
				"/>
		</g>
		<g>
			<path class="st2" d="M246.8,166.4h-22.5c-0.6,0-1-0.4-1-1s0.4-1,1-1h22.5c0.6,0,1,0.4,1,1S247.3,166.4,246.8,166.4z"/>
		</g>
		<g>
			<path class="st2" d="M231.2,170.1c-0.2,0-0.4-0.1-0.5-0.2l-5.7-3.7c-0.3-0.2-0.5-0.5-0.5-0.8s0.2-0.7,0.5-0.8l5.7-3.7
				c0.5-0.3,1.1-0.2,1.4,0.3c0.3,0.5,0.2,1.1-0.3,1.4l-4.4,2.9l4.4,2.9c0.5,0.3,0.6,0.9,0.3,1.4C231.9,170,231.5,170.1,231.2,170.1z
				"/>
		</g>
		<g>
			<path class="st3" d="M310.2,156.4h-85.9c-0.6,0-1-0.4-1-1s0.4-1,1-1h85.9c0.6,0,1,0.4,1,1S310.7,156.4,310.2,156.4z"/>
		</g>
		<g>
			<path class="st3" d="M310.2,176.4h-85.9c-0.6,0-1-0.4-1-1s0.4-1,1-1h85.9c0.6,0,1,0.4,1,1S310.7,176.4,310.2,176.4z"/>
		</g>
		<g>
			<path class="st2" d="M224.3,170.1c-0.6,0-1-0.4-1-1v-7.4c0-0.6,0.4-1,1-1s1,0.4,1,1v7.4C225.3,169.7,224.8,170.1,224.3,170.1z"/>
		</g>
	</g>
	<g>
		<g>
			<path class="st2" d="M237.5,105.6c0-7.3-5.9-13.2-13.2-13.2S211,98.3,211,105.6v22.6h26.5V105.6z"/>
		</g>
		<g>
			<path class="st1" d="M233.8,106.6c-0.6,0-1-0.4-1-1c0-4.7-3.8-8.6-8.6-8.6c-0.6,0-1-0.4-1-1s0.4-1,1-1c5.8,0,10.6,4.7,10.6,10.6
				C234.8,106.2,234.3,106.6,233.8,106.6z"/>
		</g>
		<g>
			<path class="st1" d="M219.3,98.4c-0.3,0-0.7-0.2-0.9-0.5c-0.3-0.5-0.1-1.1,0.3-1.4c0.4-0.3,0.9-0.5,1.3-0.7
				c0.5-0.2,1.1,0,1.3,0.5s0,1.1-0.5,1.3c-0.4,0.2-0.7,0.3-1.1,0.6C219.7,98.4,219.5,98.4,219.3,98.4z"/>
		</g>
		<g>
			<path class="st2" d="M224.2,88.4c-0.6,0-1-0.4-1-1v-6.9c0-0.6,0.4-1,1-1s1,0.4,1,1v6.9C225.2,87.9,224.8,88.4,224.2,88.4z"/>
		</g>
		<g>
			<path class="st2" d="M263.8,106.6h-21.3c-0.6,0-1-0.4-1-1s0.4-1,1-1h21.3c0.6,0,1,0.4,1,1S264.3,106.6,263.8,106.6z"/>
		</g>
		<g>
			<path class="st2" d="M206,106.6h-16.8c-0.6,0-1-0.4-1-1s0.4-1,1-1H206c0.6,0,1,0.4,1,1S206.5,106.6,206,106.6z"/>
		</g>
		<g>
			<path class="st2" d="M240,97.5c-0.3,0-0.7-0.2-0.9-0.5c-0.3-0.5-0.1-1.1,0.4-1.4l6-3.5c0.5-0.3,1.1-0.1,1.4,0.4
				c0.3,0.5,0.1,1.1-0.4,1.4l-6,3.5C240.4,97.5,240.2,97.5,240,97.5z"/>
		</g>
		<g>
			<path class="st2" d="M202.5,119.2c-0.3,0-0.7-0.2-0.9-0.5c-0.3-0.5-0.1-1.1,0.4-1.4l6-3.5c0.5-0.3,1.1-0.1,1.4,0.4
				c0.3,0.5,0.1,1.1-0.4,1.4l-6,3.5C202.8,119.2,202.6,119.2,202.5,119.2z"/>
		</g>
		<g>
			<path class="st2" d="M208.4,97.5c-0.2,0-0.3,0-0.5-0.1l-6-3.5c-0.5-0.3-0.6-0.9-0.4-1.4c0.3-0.5,0.9-0.6,1.4-0.4l6,3.5
				c0.5,0.3,0.6,0.9,0.4,1.4C209.1,97.3,208.8,97.5,208.4,97.5z"/>
		</g>
		<g>
			<path class="st2" d="M246,119.2c-0.2,0-0.3,0-0.5-0.1l-6-3.5c-0.5-0.3-0.6-0.9-0.4-1.4c0.3-0.5,0.9-0.6,1.4-0.4l6,3.5
				c0.5,0.3,0.6,0.9,0.4,1.4C246.7,119,246.4,119.2,246,119.2z"/>
		</g>
		<g>
			<path class="st2" d="M233.4,90.8c-0.2,0-0.3,0-0.5-0.1c-0.5-0.3-0.6-0.9-0.4-1.4l3.5-6c0.3-0.5,0.9-0.6,1.4-0.4
				c0.5,0.3,0.6,0.9,0.4,1.4l-3.5,6C234,90.6,233.7,90.8,233.4,90.8z"/>
		</g>
		<g>
			<path class="st2" d="M215.1,90.8c-0.3,0-0.7-0.2-0.9-0.5l-3.5-6c-0.3-0.5-0.1-1.1,0.4-1.4c0.5-0.3,1.1-0.1,1.4,0.4l3.5,6
				c0.3,0.5,0.1,1.1-0.4,1.4C215.5,90.8,215.3,90.8,215.1,90.8z"/>
		</g>
		<g>
			<line class="st1" x1="208.2" y1="128.2" x2="240.3" y2="128.2"/>
			<path class="st0" d="M240.3,129.2h-32.1c-0.6,0-1-0.4-1-1c0-0.6,0.4-1,1-1h32.1c0.6,0,1,0.4,1,1
				C241.3,128.8,240.8,129.2,240.3,129.2z"/>
		</g>
		<g>
			<line class="st1" x1="236.5" y1="135.5" x2="236.5" y2="128.2"/>
			<path class="st0" d="M236.5,136.5c-0.6,0-1-0.4-1-1v-7.3c0-0.6,0.4-1,1-1s1,0.4,1,1v7.3C237.5,136.1,237,136.5,236.5,136.5z"/>
		</g>
		<g>
			<line class="st1" x1="212" y1="135.5" x2="212" y2="128.2"/>
			<path class="st0" d="M212,136.5c-0.6,0-1-0.4-1-1v-7.3c0-0.6,0.4-1,1-1s1,0.4,1,1v7.3C213,136.1,212.5,136.5,212,136.5z"/>
		</g>
	</g>
	<g>
		<path class="st2" d="M258,110.3c-0.3,0-0.6-0.2-0.8-0.5c-0.3-0.5-0.2-1.1,0.3-1.4l4.4-2.9l-4.4-2.9c-0.5-0.3-0.6-0.9-0.3-1.4
			c0.3-0.5,0.9-0.6,1.4-0.3l5.7,3.7c0.3,0.2,0.5,0.5,0.5,0.8s-0.2,0.7-0.5,0.8l-5.7,3.7C258.4,110.3,258.2,110.3,258,110.3z"/>
	</g>
	<g>
		<path class="st2" d="M200.3,110.3c-0.3,0-0.6-0.2-0.8-0.5c-0.3-0.5-0.2-1.1,0.3-1.4l4.4-2.9l-4.4-2.9c-0.5-0.3-0.6-0.9-0.3-1.4
			c0.3-0.5,0.9-0.6,1.4-0.3l5.7,3.7c0.3,0.2,0.5,0.5,0.5,0.8s-0.2,0.7-0.5,0.8l-5.7,3.7C200.6,110.3,200.5,110.3,200.3,110.3z"/>
	</g>
	<g>
		<path class="st2" d="M366.9,170c-0.2,0-0.4-0.1-0.5-0.2l-5.7-3.7c-0.3-0.2-0.5-0.5-0.5-0.8s0.2-0.7,0.5-0.8l5.7-3.7
			c0.5-0.3,1.1-0.2,1.4,0.3c0.3,0.5,0.2,1.1-0.3,1.4l-4.4,2.9l4.4,2.9c0.5,0.3,0.6,0.9,0.3,1.4C367.6,169.8,367.3,170,366.9,170z"/>
	</g>
	<g>
		<path class="st2" d="M200,170.1c-0.2,0-0.4-0.1-0.5-0.2l-5.7-3.7c-0.3-0.2-0.5-0.5-0.5-0.8s0.2-0.7,0.5-0.8l5.7-3.7
			c0.5-0.3,1.1-0.2,1.4,0.3c0.3,0.5,0.2,1.1-0.3,1.4l-4.4,2.9l4.4,2.9c0.5,0.3,0.6,0.9,0.3,1.4C200.6,170,200.3,170.1,200,170.1z"/>
	</g>
	<g>
		<path class="st2" d="M181,157.4c-0.6,0-1-0.4-1-1v-37c0-0.6,0.4-1,1-1s1,0.4,1,1v37C182,157,181.6,157.4,181,157.4z"/>
	</g>
	<g>
		<path class="st2" d="M184.8,126.2c-0.3,0-0.6-0.2-0.8-0.5l-2.9-4.4l-2.9,4.4c-0.3,0.5-0.9,0.6-1.4,0.3c-0.5-0.3-0.6-0.9-0.3-1.4
			l3.7-5.7c0.4-0.6,1.3-0.6,1.7,0l3.7,5.7c0.3,0.5,0.2,1.1-0.3,1.4C185.1,126.2,184.9,126.2,184.8,126.2z"/>
	</g>
	<g>
		<g>
			<path class="st0" d="M189.2,175.4h-16.4c-0.6,0-1-0.4-1-1v-17.9c0-0.6,0.4-1,1-1h16.4c0.6,0,1,0.4,1,1v17.9
				C190.2,174.9,189.8,175.4,189.2,175.4z M173.8,173.4h14.4v-15.9h-14.4V173.4z"/>
		</g>
		<g>
			<g>
				<path class="st0" d="M189.2,157.4h-16.4c-0.6,0-1-0.4-1-1s0.4-1,1-1h16.4c0.6,0,1,0.4,1,1S189.8,157.4,189.2,157.4z"/>
			</g>
			<g>
				<path class="st0" d="M189.2,175.4h-16.4c-0.6,0-1-0.4-1-1s0.4-1,1-1h16.4c0.6,0,1,0.4,1,1S189.8,175.4,189.2,175.4z"/>
			</g>
			<g>
				<path class="st0" d="M189.2,169.4h-16.4c-0.6,0-1-0.4-1-1s0.4-1,1-1h16.4c0.6,0,1,0.4,1,1S189.8,169.4,189.2,169.4z"/>
			</g>
			<g>
				<path class="st0" d="M189.2,163.4h-16.4c-0.6,0-1-0.4-1-1s0.4-1,1-1h16.4c0.6,0,1,0.4,1,1S189.8,163.4,189.2,163.4z"/>
			</g>
		</g>
	</g>
	<g>
		<g>
			<path class="st2" d="M329.7,165.4c0-7.3,5.9-13.2,13.2-13.2c7.3,0,13.2,5.9,13.2,13.2V188h-26.5V165.4z"/>
		</g>
		<g>
			<path class="st1" d="M352.5,166.4c-0.6,0-1-0.4-1-1c0-4.7-3.8-8.6-8.6-8.6c-0.6,0-1-0.4-1-1s0.4-1,1-1c5.8,0,10.6,4.7,10.6,10.6
				C353.5,166,353,166.4,352.5,166.4z"/>
		</g>
		<g>
			<path class="st1" d="M338,158.2c-0.3,0-0.7-0.2-0.9-0.5c-0.3-0.5-0.1-1.1,0.3-1.4c0.4-0.3,0.9-0.5,1.3-0.7c0.5-0.2,1.1,0,1.3,0.5
				c0.2,0.5,0,1.1-0.5,1.3c-0.4,0.2-0.7,0.3-1.1,0.6C338.4,158.1,338.2,158.2,338,158.2z"/>
		</g>
		<g>
			<path class="st2" d="M343,148.2c-0.6,0-1-0.4-1-1v-6.9c0-0.6,0.4-1,1-1s1,0.4,1,1v6.9C344,147.7,343.5,148.2,343,148.2z"/>
		</g>
		<g>
			<path class="st2" d="M324.7,166.4h-21.3c-0.6,0-1-0.4-1-1s0.4-1,1-1h21.3c0.6,0,1,0.4,1,1S325.3,166.4,324.7,166.4z"/>
		</g>
		<g>
			<path class="st2" d="M327.2,157.3c-0.2,0-0.3,0-0.5-0.1l-6-3.5c-0.5-0.3-0.6-0.9-0.4-1.4s0.9-0.6,1.4-0.4l6,3.5
				c0.5,0.3,0.6,0.9,0.4,1.4C327.8,157.1,327.5,157.3,327.2,157.3z"/>
		</g>
		<g>
			<path class="st2" d="M364.7,179c-0.2,0-0.3,0-0.5-0.1l-6-3.5c-0.5-0.3-0.6-0.9-0.4-1.4c0.3-0.5,0.9-0.6,1.4-0.4l6,3.5
				c0.5,0.3,0.6,0.9,0.4,1.4C365.4,178.8,365.1,179,364.7,179z"/>
		</g>
		<g>
			<path class="st2" d="M358.8,157.3c-0.3,0-0.7-0.2-0.9-0.5c-0.3-0.5-0.1-1.1,0.4-1.4l6-3.5c0.5-0.3,1.1-0.1,1.4,0.4
				c0.3,0.5,0.1,1.1-0.4,1.4l-6,3.5C359.1,157.2,358.9,157.3,358.8,157.3z"/>
		</g>
		<g>
			<path class="st2" d="M321.2,179c-0.3,0-0.7-0.2-0.9-0.5c-0.3-0.5-0.1-1.1,0.4-1.4l6-3.5c0.5-0.3,1.1-0.1,1.4,0.4
				c0.3,0.5,0.1,1.1-0.4,1.4l-6,3.5C321.5,178.9,321.4,179,321.2,179z"/>
		</g>
		<g>
			<path class="st2" d="M333.8,150.6c-0.3,0-0.7-0.2-0.9-0.5l-3.5-6c-0.3-0.5-0.1-1.1,0.4-1.4c0.5-0.3,1.1-0.1,1.4,0.4l3.5,6
				c0.3,0.5,0.1,1.1-0.4,1.4C334.2,150.6,334,150.6,333.8,150.6z"/>
		</g>
		<g>
			<path class="st2" d="M352.1,150.6c-0.2,0-0.3,0-0.5-0.1c-0.5-0.3-0.6-0.9-0.4-1.4l3.5-6c0.3-0.5,0.9-0.6,1.4-0.4
				c0.5,0.3,0.6,0.9,0.4,1.4l-3.5,6C352.8,150.4,352.4,150.6,352.1,150.6z"/>
		</g>
		<g>
			<line class="st1" x1="359" y1="188" x2="326.9" y2="188"/>
			<path class="st0" d="M359,189h-32.1c-0.6,0-1-0.4-1-1s0.4-1,1-1H359c0.6,0,1,0.4,1,1S359.6,189,359,189z"/>
		</g>
		<g>
			<line class="st1" x1="330.7" y1="195.3" x2="330.7" y2="188"/>
			<path class="st0" d="M330.7,196.3c-0.6,0-1-0.4-1-1V188c0-0.6,0.4-1,1-1s1,0.4,1,1v7.3C331.7,195.8,331.3,196.3,330.7,196.3z"/>
		</g>
		<g>
			<line class="st1" x1="355.2" y1="195.3" x2="355.2" y2="188"/>
			<path class="st0" d="M355.2,196.3c-0.6,0-1-0.4-1-1V188c0-0.6,0.4-1,1-1s1,0.4,1,1v7.3C356.2,195.8,355.8,196.3,355.2,196.3z"/>
		</g>
	</g>
	<g>
		<path class="st2" d="M309.2,170.1c-0.2,0-0.4-0.1-0.5-0.2l-5.7-3.7c-0.3-0.2-0.5-0.5-0.5-0.8s0.2-0.7,0.5-0.8l5.7-3.7
			c0.5-0.3,1.1-0.2,1.4,0.3c0.3,0.5,0.2,1.1-0.3,1.4l-4.4,2.9l4.4,2.9c0.5,0.3,0.6,0.9,0.3,1.4C309.8,170,309.5,170.1,309.2,170.1z"
			/>
	</g>
	<g>
		<path class="st3" d="M410.4,214.6H155.7c-0.6,0-1-0.4-1-1V57.3c0-0.6,0.4-1,1-1h254.7c0.6,0,1,0.4,1,1v156.4
			C411.4,214.2,410.9,214.6,410.4,214.6z M156.7,212.6h252.7V58.3H156.7V212.6z"/>
	</g>
	<g>
		<g>
			<path class="st0" d="M109.8,181.4H59.2c-0.6,0-1-0.4-1-1V90.6c0-0.6,0.4-1,1-1h50.5c0.6,0,1,0.4,1,1v89.9
				C110.8,181,110.3,181.4,109.8,181.4z M60.2,179.4h48.5V91.6H60.2V179.4z"/>
		</g>
		<g>
			<path class="st0" d="M103.7,157H65.4c-0.6,0-1-0.4-1-1V96.7c0-0.6,0.4-1,1-1h38.3c0.6,0,1,0.4,1,1V156
				C104.7,156.6,104.2,157,103.7,157z M66.4,155h36.3V97.7H66.4V155z"/>
		</g>
		<g>
			<line class="st1" x1="65.4" y1="108.6" x2="103.7" y2="108.6"/>
			<path class="st0" d="M103.7,109.6H65.4c-0.6,0-1-0.4-1-1s0.4-1,1-1h38.3c0.6,0,1,0.4,1,1S104.2,109.6,103.7,109.6z"/>
		</g>
		<g>
			<line class="st1" x1="65.4" y1="120.4" x2="103.7" y2="120.4"/>
			<path class="st0" d="M103.7,121.4H65.4c-0.6,0-1-0.4-1-1s0.4-1,1-1h38.3c0.6,0,1,0.4,1,1S104.2,121.4,103.7,121.4z"/>
		</g>
		<g>
			<line class="st1" x1="65.4" y1="132.3" x2="103.7" y2="132.3"/>
			<path class="st0" d="M103.7,133.3H65.4c-0.6,0-1-0.4-1-1s0.4-1,1-1h38.3c0.6,0,1,0.4,1,1S104.2,133.3,103.7,133.3z"/>
		</g>
		<g>
			<line class="st1" x1="65.4" y1="144.1" x2="103.7" y2="144.1"/>
			<path class="st0" d="M103.7,145.1H65.4c-0.6,0-1-0.4-1-1s0.4-1,1-1h38.3c0.6,0,1,0.4,1,1S104.2,145.1,103.7,145.1z"/>
		</g>
		<g>
			<path class="st0" d="M114.9,181.4H51.2c-0.6,0-1-0.4-1-1s0.4-1,1-1h63.7c0.6,0,1,0.4,1,1S115.5,181.4,114.9,181.4z"/>
		</g>
		<g>
			<path class="st3" d="M77,97.7h-6.2c-0.6,0-1-0.4-1-1s0.4-1,1-1H77c0.6,0,1,0.4,1,1S77.6,97.7,77,97.7z"/>
		</g>
		<g>
			<path class="st3" d="M90.2,109.6H84c-0.6,0-1-0.4-1-1s0.4-1,1-1h6.2c0.6,0,1,0.4,1,1S90.8,109.6,90.2,109.6z"/>
		</g>
		<g>
			<path class="st3" d="M98.5,145.1h-6.2c-0.6,0-1-0.4-1-1s0.4-1,1-1h6.2c0.6,0,1,0.4,1,1S99.1,145.1,98.5,145.1z"/>
		</g>
		<g>
			<path class="st0" d="M45.9,181.4h-3.7c-0.6,0-1-0.4-1-1s0.4-1,1-1h3.7c0.6,0,1,0.4,1,1S46.5,181.4,45.9,181.4z"/>
		</g>
		<g>
			<path class="st0" d="M131.3,181.4H121c-0.6,0-1-0.4-1-1s0.4-1,1-1h10.3c0.6,0,1,0.4,1,1S131.8,181.4,131.3,181.4z"/>
		</g>
	</g>
	<g>
		<g>
			<path class="st2" d="M452.4,101.4h-58c-0.6,0-1-0.4-1-1s0.4-1,1-1h58c0.6,0,1,0.4,1,1S452.9,101.4,452.4,101.4z"/>
		</g>
		<g>
			<path class="st2" d="M446.6,105.1c-0.3,0-0.6-0.2-0.8-0.5c-0.3-0.5-0.2-1.1,0.3-1.4l4.4-2.9l-4.4-2.9c-0.5-0.3-0.6-0.9-0.3-1.4
				c0.3-0.5,0.9-0.6,1.4-0.3l5.7,3.7c0.3,0.2,0.5,0.5,0.5,0.8s-0.2,0.7-0.5,0.8l-5.7,3.7C447,105.1,446.8,105.1,446.6,105.1z"/>
		</g>
	</g>
	<g>
		<g>
			<path class="st2" d="M457.4,111.6h-58c-0.6,0-1-0.4-1-1s0.4-1,1-1h58c0.6,0,1,0.4,1,1S458,111.6,457.4,111.6z"/>
		</g>
		<g>
			<path class="st2" d="M405.1,115.3c-0.2,0-0.4-0.1-0.5-0.2l-5.7-3.7c-0.3-0.2-0.5-0.5-0.5-0.8s0.2-0.7,0.5-0.8l5.7-3.7
				c0.5-0.3,1.1-0.2,1.4,0.3c0.3,0.5,0.2,1.1-0.3,1.4l-4.4,2.9l4.4,2.9c0.5,0.3,0.6,0.9,0.3,1.4
				C405.7,115.1,405.4,115.3,405.1,115.3z"/>
		</g>
	</g>
	<g>
		<g>
			<path class="st2" d="M167.8,101.4h-58c-0.6,0-1-0.4-1-1s0.4-1,1-1h58c0.6,0,1,0.4,1,1S168.3,101.4,167.8,101.4z"/>
		</g>
		<g>
			<path class="st2" d="M162,105.1c-0.3,0-0.6-0.2-0.8-0.5c-0.3-0.5-0.2-1.1,0.3-1.4l4.4-2.9l-4.4-2.9c-0.5-0.3-0.6-0.9-0.3-1.4
				c0.3-0.5,0.9-0.6,1.4-0.3l5.7,3.7c0.3,0.2,0.5,0.5,0.5,0.8s-0.2,0.7-0.5,0.8l-5.7,3.7C162.4,105.1,162.2,105.1,162,105.1z"/>
		</g>
	</g>
	<g>
		<g>
			<path class="st2" d="M172.8,111.6h-58c-0.6,0-1-0.4-1-1s0.4-1,1-1h58c0.6,0,1,0.4,1,1S173.4,111.6,172.8,111.6z"/>
		</g>
		<g>
			<path class="st2" d="M120.5,115.3c-0.2,0-0.4-0.1-0.5-0.2l-5.7-3.7c-0.3-0.2-0.5-0.5-0.5-0.8s0.2-0.7,0.5-0.8l5.7-3.7
				c0.5-0.3,1.1-0.2,1.4,0.3c0.3,0.5,0.2,1.1-0.3,1.4l-4.4,2.9l4.4,2.9c0.5,0.3,0.6,0.9,0.3,1.4
				C121.1,115.1,120.8,115.3,120.5,115.3z"/>
		</g>
	</g>
	<g>
		<path class="st2" d="M373.1,106.5h-24.5c-0.6,0-1-0.4-1-1s0.4-1,1-1h24.5c0.6,0,1,0.4,1,1S373.7,106.5,373.1,106.5z"/>
	</g>
	<g>
		<path class="st2" d="M378,166.3h-16.8c-0.6,0-1-0.4-1-1s0.4-1,1-1H378c0.6,0,1,0.4,1,1S378.5,166.3,378,166.3z"/>
	</g>
	<g>
		<path class="st2" d="M367.4,110.2c-0.3,0-0.6-0.2-0.8-0.5c-0.3-0.5-0.2-1.1,0.3-1.4l4.4-2.9l-4.4-2.9c-0.5-0.3-0.6-0.9-0.3-1.4
			c0.3-0.5,0.9-0.6,1.4-0.3l5.7,3.7c0.3,0.2,0.5,0.5,0.5,0.8s-0.2,0.7-0.5,0.8l-5.7,3.7C367.8,110.2,367.6,110.2,367.4,110.2z"/>
	</g>
	<g>
		<path class="st2" d="M386.2,152.4c-0.6,0-1-0.4-1-1v-37c0-0.6,0.4-1,1-1s1,0.4,1,1v37C387.2,152,386.7,152.4,386.2,152.4z"/>
	</g>
	<g>
		<path class="st2" d="M386.2,152.4c-0.3,0-0.7-0.2-0.8-0.5l-3.7-5.7c-0.3-0.5-0.2-1.1,0.3-1.4c0.5-0.3,1.1-0.2,1.4,0.3l2.9,4.4
			l2.9-4.4c0.3-0.5,0.9-0.6,1.4-0.3c0.5,0.3,0.6,0.9,0.3,1.4L387,152C386.8,152.2,386.5,152.4,386.2,152.4z"/>
	</g>
	<g>
		<g>
			<path class="st0" d="M394.4,175.4H378c-0.6,0-1-0.4-1-1v-17.9c0-0.6,0.4-1,1-1h16.4c0.6,0,1,0.4,1,1v17.9
				C395.4,174.9,394.9,175.4,394.4,175.4z M379,173.4h14.4v-15.9H379V173.4z"/>
		</g>
		<g>
			<path class="st0" d="M394.4,175.4H378c-0.6,0-1-0.4-1-1s0.4-1,1-1h16.4c0.6,0,1,0.4,1,1S394.9,175.4,394.4,175.4z"/>
		</g>
		<g>
			<path class="st0" d="M394.4,157.4H378c-0.6,0-1-0.4-1-1s0.4-1,1-1h16.4c0.6,0,1,0.4,1,1S394.9,157.4,394.4,157.4z"/>
		</g>
		<g>
			<path class="st0" d="M394.4,163.4H378c-0.6,0-1-0.4-1-1s0.4-1,1-1h16.4c0.6,0,1,0.4,1,1S394.9,163.4,394.4,163.4z"/>
		</g>
		<g>
			<path class="st0" d="M394.4,169.4H378c-0.6,0-1-0.4-1-1s0.4-1,1-1h16.4c0.6,0,1,0.4,1,1S394.9,169.4,394.4,169.4z"/>
		</g>
	</g>
	<g>
		<g>
			<path class="st0" d="M394.4,115.4H378c-0.6,0-1-0.4-1-1V96.5c0-0.6,0.4-1,1-1h16.4c0.6,0,1,0.4,1,1v17.9
				C395.4,115,394.9,115.4,394.4,115.4z M379,113.4h14.4V97.5H379V113.4z"/>
		</g>
		<g>
			<g>
				<path class="st0" d="M394.4,115.4H378c-0.6,0-1-0.4-1-1s0.4-1,1-1h16.4c0.6,0,1,0.4,1,1S394.9,115.4,394.4,115.4z"/>
			</g>
			<g>
				<path class="st0" d="M394.4,97.5H378c-0.6,0-1-0.4-1-1s0.4-1,1-1h16.4c0.6,0,1,0.4,1,1S394.9,97.5,394.4,97.5z"/>
			</g>
			<g>
				<path class="st0" d="M394.4,103.5H378c-0.6,0-1-0.4-1-1s0.4-1,1-1h16.4c0.6,0,1,0.4,1,1S394.9,103.5,394.4,103.5z"/>
			</g>
			<g>
				<path class="st0" d="M394.4,109.5H378c-0.6,0-1-0.4-1-1s0.4-1,1-1h16.4c0.6,0,1,0.4,1,1S394.9,109.5,394.4,109.5z"/>
			</g>
		</g>
	</g>
	<g>
		<g>
			<path class="st3" d="M507.9,181.4h-50.5c-0.6,0-1-0.4-1-1V90.6c0-0.6,0.4-1,1-1h50.5c0.6,0,1,0.4,1,1v89.9
				C508.9,181,508.5,181.4,507.9,181.4z M458.4,179.4h48.5V91.6h-48.5V179.4z"/>
		</g>
		<g>
			<path class="st3" d="M501.8,157h-38.3c-0.6,0-1-0.4-1-1V96.7c0-0.6,0.4-1,1-1h38.3c0.6,0,1,0.4,1,1V156
				C502.8,156.6,502.4,157,501.8,157z M464.5,155h36.3V97.7h-36.3V155z"/>
		</g>
		<g>
			<line class="st1" x1="501.8" y1="108.6" x2="463.5" y2="108.6"/>
			<path class="st3" d="M501.8,109.6h-38.3c-0.6,0-1-0.4-1-1s0.4-1,1-1h38.3c0.6,0,1,0.4,1,1S502.4,109.6,501.8,109.6z"/>
		</g>
		<g>
			<line class="st1" x1="501.8" y1="120.4" x2="463.5" y2="120.4"/>
			<path class="st3" d="M501.8,121.4h-38.3c-0.6,0-1-0.4-1-1s0.4-1,1-1h38.3c0.6,0,1,0.4,1,1S502.4,121.4,501.8,121.4z"/>
		</g>
		<g>
			<line class="st1" x1="501.8" y1="132.3" x2="463.5" y2="132.3"/>
			<path class="st3" d="M501.8,133.3h-38.3c-0.6,0-1-0.4-1-1s0.4-1,1-1h38.3c0.6,0,1,0.4,1,1S502.4,133.3,501.8,133.3z"/>
		</g>
		<g>
			<line class="st1" x1="501.8" y1="144.1" x2="463.5" y2="144.1"/>
			<path class="st3" d="M501.8,145.1h-38.3c-0.6,0-1-0.4-1-1s0.4-1,1-1h38.3c0.6,0,1,0.4,1,1S502.4,145.1,501.8,145.1z"/>
		</g>
		<g>
			<path class="st3" d="M516,181.4h-63.7c-0.6,0-1-0.4-1-1s0.4-1,1-1H516c0.6,0,1,0.4,1,1S516.6,181.4,516,181.4z"/>
		</g>
		<g>
			<path class="st1" d="M496.4,97.7h-6.2c-0.6,0-1-0.4-1-1s0.4-1,1-1h6.2c0.6,0,1,0.4,1,1S496.9,97.7,496.4,97.7z"/>
		</g>
		<g>
			<path class="st1" d="M483.2,109.6H477c-0.6,0-1-0.4-1-1s0.4-1,1-1h6.2c0.6,0,1,0.4,1,1S483.7,109.6,483.2,109.6z"/>
		</g>
		<g>
			<path class="st1" d="M474.9,145.1h-6.2c-0.6,0-1-0.4-1-1s0.4-1,1-1h6.2c0.6,0,1,0.4,1,1S475.4,145.1,474.9,145.1z"/>
		</g>
		<g>
			<path class="st3" d="M525,181.4h-3.7c-0.6,0-1-0.4-1-1s0.4-1,1-1h3.7c0.6,0,1,0.4,1,1S525.6,181.4,525,181.4z"/>
		</g>
		<g>
			<path class="st3" d="M446.2,181.4h-10.3c-0.6,0-1-0.4-1-1s0.4-1,1-1h10.3c0.6,0,1,0.4,1,1S446.7,181.4,446.2,181.4z"/>
		</g>
	</g>
	<g>
		<g>
			<path class="st0" d="M189.2,115.4h-16.4c-0.6,0-1-0.4-1-1V96.5c0-0.6,0.4-1,1-1h16.4c0.6,0,1,0.4,1,1v17.9
				C190.2,115,189.8,115.4,189.2,115.4z M173.8,113.4h14.4V97.5h-14.4V113.4z"/>
		</g>
		<g>
			<path class="st0" d="M189.2,97.5h-16.4c-0.6,0-1-0.4-1-1s0.4-1,1-1h16.4c0.6,0,1,0.4,1,1S189.8,97.5,189.2,97.5z"/>
		</g>
		<g>
			<path class="st0" d="M189.2,115.4h-16.4c-0.6,0-1-0.4-1-1s0.4-1,1-1h16.4c0.6,0,1,0.4,1,1S189.8,115.4,189.2,115.4z"/>
		</g>
		<g>
			<path class="st0" d="M189.2,109.5h-16.4c-0.6,0-1-0.4-1-1s0.4-1,1-1h16.4c0.6,0,1,0.4,1,1S189.8,109.5,189.2,109.5z"/>
		</g>
		<g>
			<path class="st0" d="M189.2,103.5h-16.4c-0.6,0-1-0.4-1-1s0.4-1,1-1h16.4c0.6,0,1,0.4,1,1S189.8,103.5,189.2,103.5z"/>
		</g>
	</g>
	<g>
		<g>
			<rect x="333.4" y="84.4" class="st3" width="19.1" height="42.3"/>
			<path class="st3" d="M352.5,127.8h-19.1c-0.6,0-1-0.4-1-1V84.4c0-0.6,0.4-1,1-1h19.1c0.6,0,1,0.4,1,1v42.3
				C353.5,127.3,353,127.8,352.5,127.8z M334.4,125.8h17.1V85.4h-17.1V125.8z"/>
		</g>
		<g>
			<path class="st2" d="M308.5,106.6h-32.8c-0.6,0-1-0.4-1-1s0.4-1,1-1h32.8c0.6,0,1,0.4,1,1S309,106.6,308.5,106.6z"/>
		</g>
		<g>
			<path class="st2" d="M303.4,110.3c-0.3,0-0.6-0.2-0.8-0.5c-0.3-0.5-0.2-1.1,0.3-1.4l4.4-2.9l-4.4-2.9c-0.5-0.3-0.6-0.9-0.3-1.4
				c0.3-0.5,0.9-0.6,1.4-0.3l5.7,3.7c0.3,0.2,0.5,0.5,0.5,0.8s-0.2,0.7-0.5,0.8l-5.7,3.7C303.8,110.3,303.6,110.3,303.4,110.3z"/>
		</g>
		<g>
			<path class="st2" d="M342.9,106.6h-22.5c-0.6,0-1-0.4-1-1s0.4-1,1-1h22.5c0.6,0,1,0.4,1,1S343.5,106.6,342.9,106.6z"/>
		</g>
		<g>
			<path class="st2" d="M336,110.3c-0.3,0-0.6-0.2-0.8-0.5c-0.3-0.5-0.2-1.1,0.3-1.4l4.4-2.9l-4.4-2.9c-0.5-0.3-0.6-0.9-0.3-1.4
				c0.3-0.5,0.9-0.6,1.4-0.3l5.7,3.7c0.3,0.2,0.5,0.5,0.5,0.8s-0.2,0.7-0.5,0.8l-5.7,3.7C336.4,110.3,336.2,110.3,336,110.3z"/>
		</g>
		<g>
			<path class="st3" d="M343,96.6H257c-0.6,0-1-0.4-1-1s0.4-1,1-1H343c0.6,0,1,0.4,1,1S343.5,96.6,343,96.6z"/>
		</g>
		<g>
			<path class="st3" d="M343,116.6H257c-0.6,0-1-0.4-1-1s0.4-1,1-1H343c0.6,0,1,0.4,1,1S343.5,116.6,343,116.6z"/>
		</g>
		<g>
			<path class="st2" d="M342.9,110.3c-0.6,0-1-0.4-1-1v-7.4c0-0.6,0.4-1,1-1s1,0.4,1,1v7.4C343.9,109.9,343.5,110.3,342.9,110.3z"/>
		</g>
	</g>
</g>
<g>
	<path class="st4" d="M174.6,73h-2.8c-0.5,0-0.6,0-0.6,0.4v0.1c0,0.2,0.1,0.3,0.4,0.3c0,0,1.8,0.3,2.1,0.4c1,0.2,1.2,0.6,1.2,1.4
		v0.8c0,1.1-0.5,1.6-2,1.6c-1.3,0-3.1-0.1-3.1-0.1l0-1.1h2.9c0.6,0,0.8-0.1,0.8-0.6v-0.4c0-0.2,0-0.3-0.3-0.4
		c-0.3-0.1-1.7-0.3-1.9-0.3c-1-0.2-1.6-0.3-1.6-1.3v-0.5c0-1.1,0.5-1.6,2-1.6c1.3,0,2.7,0.1,2.7,0.1L174.6,73z"/>
	<path class="st4" d="M175.8,71.8h4.6v1.2h-3.2v1.3h2.8v1.2h-2.8v1.3h3.2V78h-4.5V71.8z"/>
	<path class="st4" d="M186.9,78h-1.1c-0.2,0-0.3-0.1-0.4-0.2l-2.6-3.6h-0.1V78h-1.4v-6.2h1.1c0.3,0,0.3,0,0.4,0.1
		c0,0.1,2.4,3.4,2.7,3.7h0v-3.9h1.4V78z"/>
	<path class="st4" d="M188.1,71.8h3.5c1.2,0,1.9,0.7,1.9,1.7v2.8c0,0.9-0.7,1.7-1.9,1.7h-3.5V71.8z M192.1,73.8
		c0-0.7-0.3-0.8-0.9-0.8h-1.8v3.9h1.8c0.5,0,0.9-0.2,0.9-0.8V73.8z"/>
	<path class="st4" d="M168.4,88.6H167v-6.2h3.4c1.2,0,1.8,0.6,1.8,1.6v1.1c0,0.9-0.6,1.6-1.8,1.6h-2.1V88.6z M170.9,84.8v-0.5
		c0-0.5-0.2-0.7-0.8-0.7h-1.7v2h1.7C170.6,85.6,170.9,85.3,170.9,84.8z"/>
	<path class="st4" d="M174.5,88.6h-1.4v-6.2h3.4c1.2,0,1.8,0.7,1.8,1.6v0.8c0,0.7-0.3,1.2-0.9,1.5l1.1,2.3H177l-1-2.1h-1.5V88.6z
		 M177,84.6v-0.3c0-0.5-0.2-0.7-0.8-0.7h-1.8v1.8h1.8C176.8,85.4,177,85.1,177,84.6z"/>
	<path class="st4" d="M179.3,87V84c0-1,0.6-1.7,1.8-1.7h1.9c1.2,0,1.8,0.7,1.8,1.7V87c0,0.9-0.6,1.7-1.8,1.7h-1.9
		C179.9,88.6,179.3,87.9,179.3,87z M180.7,84.2v2.5c0,0.5,0.2,0.7,0.8,0.7h1.2c0.5,0,0.8-0.2,0.8-0.7v-2.5c0-0.5-0.2-0.7-0.8-0.7
		h-1.2C180.9,83.5,180.7,83.7,180.7,84.2z"/>
	<path class="st4" d="M189,85.5l1.9,3.1h-1.6l-1.4-2.2h0l-1.4,2.2h-1.6l1.9-3.1l-2-3.1h1.7l1.4,2.1h0l1.4-2.1h1.7L189,85.5z"/>
	<path class="st4" d="M193.9,85.1l1.5-2.7h1.6l-2.4,4.3v1.9h-1.4v-1.9l-2.4-4.3h1.6L193.9,85.1z"/>
</g>
<g>
	<path class="st4" d="M72,192.4h-2.8c-0.5,0-0.6,0-0.6,0.4v0.1c0,0.2,0.1,0.3,0.4,0.3c0,0,1.8,0.3,2.1,0.4c1,0.2,1.2,0.6,1.2,1.4
		v0.8c0,1.1-0.5,1.6-2,1.6c-1.3,0-3.1-0.1-3.1-0.1l0-1.1h2.9c0.6,0,0.8-0.1,0.8-0.6v-0.4c0-0.2,0-0.3-0.3-0.4
		c-0.3-0.1-1.7-0.3-1.9-0.3c-1-0.2-1.6-0.3-1.6-1.3v-0.5c0-1.1,0.5-1.6,2-1.6c1.3,0,2.7,0.1,2.7,0.1L72,192.4z"/>
	<path class="st4" d="M73.2,195.8v-2.9c0-1,0.6-1.7,1.8-1.7h1.9c1.2,0,1.8,0.7,1.8,1.7v2.9c0,0.9-0.6,1.7-1.8,1.7h-1.9
		C73.8,197.5,73.2,196.8,73.2,195.8z M74.5,193v2.5c0,0.5,0.2,0.7,0.8,0.7h1.2c0.5,0,0.8-0.2,0.8-0.7V193c0-0.5-0.2-0.7-0.8-0.7
		h-1.2C74.8,192.4,74.5,192.5,74.5,193z"/>
	<path class="st4" d="M81.7,196.3h1.1c0.5,0,0.8-0.2,0.8-0.7v-4.3h1.4v4.6c0,0.9-0.6,1.7-1.8,1.7h-1.8c-1.2,0-1.8-0.7-1.8-1.7v-4.6
		h1.4v4.3C80.9,196.1,81.2,196.3,81.7,196.3z"/>
	<path class="st4" d="M87.3,197.4H86v-6.2h3.4c1.2,0,1.8,0.7,1.8,1.6v0.8c0,0.7-0.3,1.2-0.9,1.5l1.1,2.3h-1.4l-1-2.1h-1.5V197.4z
		 M89.8,193.5v-0.3c0-0.5-0.2-0.7-0.8-0.7h-1.8v1.8h1.8C89.6,194.2,89.8,194,89.8,193.5z"/>
	<path class="st4" d="M96.9,192.4h-2.5c-0.5,0-0.8,0.2-0.8,0.7v2.4c0,0.5,0.2,0.8,0.8,0.8h2.5l0,1.1c0,0-1.5,0.1-3,0.1
		c-1.1,0-1.7-0.8-1.7-1.8v-2.9c0-1,0.6-1.7,1.7-1.7c1.6,0,3,0.1,3,0.1L96.9,192.4z"/>
	<path class="st4" d="M97.8,191.2h4.6v1.2h-3.2v1.3h2.8v1.2h-2.8v1.3h3.2v1.2h-4.5V191.2z"/>
</g>
<g>
	<path class="st3" d="M453.5,191.2h3.5c1.2,0,1.9,0.7,1.9,1.7v2.8c0,0.9-0.7,1.7-1.9,1.7h-3.5V191.2z M457.4,193.2
		c0-0.7-0.3-0.8-0.9-0.8h-1.8v3.9h1.8c0.5,0,0.9-0.2,0.9-0.8V193.2z"/>
	<path class="st3" d="M459.8,191.2h4.6v1.2h-3.2v1.3h2.8v1.2h-2.8v1.3h3.2v1.2h-4.5V191.2z"/>
	<path class="st3" d="M469.9,192.4h-2.8c-0.5,0-0.6,0-0.6,0.4v0.1c0,0.2,0.1,0.3,0.4,0.3c0,0,1.8,0.3,2.1,0.4c1,0.2,1.2,0.6,1.2,1.4
		v0.8c0,1.1-0.5,1.6-2,1.6c-1.3,0-3.1-0.1-3.1-0.1l0-1.1h2.9c0.6,0,0.8-0.1,0.8-0.6v-0.4c0-0.2,0-0.3-0.3-0.4
		c-0.3-0.1-1.7-0.3-1.9-0.3c-1-0.2-1.6-0.3-1.6-1.3v-0.5c0-1.1,0.5-1.6,2-1.6c1.3,0,2.7,0.1,2.7,0.1L469.9,192.4z"/>
	<path class="st3" d="M475.8,192.4h-2v5.1h-1.4v-5.1h-2v-1.2h5.3V192.4z"/>
	<path class="st3" d="M478,197.4h-1.4v-6.2h1.4V197.4z"/>
	<path class="st3" d="M484.7,197.4h-1.1c-0.2,0-0.3-0.1-0.4-0.2l-2.6-3.6h-0.1v3.8h-1.4v-6.2h1.1c0.3,0,0.3,0,0.4,0.1
		c0,0.1,2.4,3.4,2.7,3.7h0v-3.9h1.4V197.4z"/>
	<path class="st3" d="M489.7,195.9h-2.4l-0.5,1.5h-1.5c0,0,1.8-5.7,1.9-6c0.1-0.2,0.1-0.2,0.4-0.2h1.8c0.3,0,0.3,0,0.4,0.2
		c0.1,0.3,1.9,6,1.9,6h-1.5L489.7,195.9z M487.7,194.6h1.7l-0.7-2.3h-0.3L487.7,194.6z"/>
	<path class="st3" d="M496.6,192.4h-2v5.1h-1.4v-5.1h-2v-1.2h5.3V192.4z"/>
	<path class="st3" d="M498.8,197.4h-1.4v-6.2h1.4V197.4z"/>
	<path class="st3" d="M499.9,195.8v-2.9c0-1,0.6-1.7,1.8-1.7h1.9c1.2,0,1.8,0.7,1.8,1.7v2.9c0,0.9-0.6,1.7-1.8,1.7h-1.9
		C500.5,197.5,499.9,196.8,499.9,195.8z M501.2,193v2.5c0,0.5,0.2,0.7,0.8,0.7h1.2c0.5,0,0.8-0.2,0.8-0.7V193c0-0.5-0.2-0.7-0.8-0.7
		H502C501.4,192.4,501.2,192.5,501.2,193z"/>
	<path class="st3" d="M511.9,197.4h-1.1c-0.2,0-0.3-0.1-0.4-0.2l-2.6-3.6h-0.1v3.8h-1.4v-6.2h1.1c0.3,0,0.3,0,0.4,0.1
		c0,0.1,2.4,3.4,2.7,3.7h0v-3.9h1.4V197.4z"/>
</g>
<g>
	<path class="st4" d="M379,183h-2.8c-0.5,0-0.6,0-0.6,0.4v0.1c0,0.2,0.1,0.3,0.4,0.3c0,0,1.8,0.3,2.1,0.4c1,0.2,1.2,0.6,1.2,1.4v0.8
		c0,1.1-0.5,1.6-2,1.6c-1.3,0-3.1-0.1-3.1-0.1l0-1.1h2.9c0.6,0,0.8-0.1,0.8-0.6v-0.4c0-0.2,0-0.3-0.3-0.4c-0.3-0.1-1.7-0.3-1.9-0.3
		c-1-0.2-1.6-0.3-1.6-1.3v-0.5c0-1.1,0.5-1.6,2-1.6c1.3,0,2.7,0.1,2.7,0.1L379,183z"/>
	<path class="st4" d="M380.2,181.8h4.6v1.2h-3.2v1.3h2.8v1.2h-2.8v1.3h3.2v1.2h-4.5V181.8z"/>
	<path class="st4" d="M391.4,188h-1.1c-0.2,0-0.3-0.1-0.4-0.2l-2.6-3.6h-0.1v3.8h-1.4v-6.2h1.1c0.3,0,0.3,0,0.4,0.1
		c0,0.1,2.4,3.4,2.7,3.7h0v-3.9h1.4V188z"/>
	<path class="st4" d="M392.5,181.8h3.5c1.2,0,1.9,0.7,1.9,1.7v2.8c0,0.9-0.7,1.7-1.9,1.7h-3.5V181.8z M396.5,183.8
		c0-0.7-0.3-0.8-0.9-0.8h-1.8v3.9h1.8c0.5,0,0.9-0.2,0.9-0.8V183.8z"/>
	<path class="st4" d="M372.8,198.6h-1.4v-6.2h3.4c1.2,0,1.8,0.6,1.8,1.6v1.1c0,0.9-0.6,1.6-1.8,1.6h-2.1V198.6z M375.3,194.8v-0.5
		c0-0.5-0.2-0.7-0.8-0.7h-1.7v2h1.7C375.1,195.6,375.3,195.3,375.3,194.8z"/>
	<path class="st4" d="M378.9,198.6h-1.4v-6.2h3.4c1.2,0,1.8,0.7,1.8,1.6v0.8c0,0.7-0.3,1.2-0.9,1.5l1.1,2.3h-1.4l-1-2.1h-1.5V198.6z
		 M381.4,194.7v-0.3c0-0.5-0.2-0.7-0.8-0.7h-1.8v1.8h1.8C381.2,195.4,381.4,195.1,381.4,194.7z"/>
	<path class="st4" d="M383.7,197v-2.9c0-1,0.6-1.7,1.8-1.7h1.9c1.2,0,1.8,0.7,1.8,1.7v2.9c0,0.9-0.6,1.7-1.8,1.7h-1.9
		C384.3,198.6,383.7,197.9,383.7,197z M385.1,194.2v2.5c0,0.5,0.2,0.7,0.8,0.7h1.2c0.5,0,0.8-0.2,0.8-0.7v-2.5
		c0-0.5-0.2-0.7-0.8-0.7h-1.2C385.3,193.6,385.1,193.7,385.1,194.2z"/>
	<path class="st4" d="M393.5,195.5l1.9,3.1h-1.6l-1.4-2.2h0l-1.4,2.2h-1.6l1.9-3.1l-2-3.1h1.7l1.4,2.1h0l1.4-2.1h1.7L393.5,195.5z"
		/>
	<path class="st4" d="M398.3,195.1l1.5-2.7h1.6l-2.4,4.3v1.9h-1.4v-1.9l-2.4-4.3h1.6L398.3,195.1z"/>
</g>
<g>
	<path class="st4" d="M369.8,78h-1.4v-6.2h3.4c1.2,0,1.8,0.7,1.8,1.6v0.8c0,0.7-0.3,1.2-0.9,1.5l1.1,2.3h-1.4l-1-2.1h-1.5V78z
		 M372.3,74v-0.3c0-0.5-0.2-0.7-0.8-0.7h-1.8v1.8h1.8C372.1,74.8,372.3,74.5,372.3,74z"/>
	<path class="st4" d="M374.7,71.8h4.6v1.2h-3.2v1.3h2.8v1.2h-2.8v1.3h3.2V78h-4.5V71.8z"/>
	<path class="st4" d="M384.9,72.9h-2.5c-0.5,0-0.8,0.2-0.8,0.7V76c0,0.5,0.2,0.8,0.8,0.8h2.5l0,1.1c0,0-1.5,0.1-3,0.1
		c-1.1,0-1.7-0.8-1.7-1.8v-2.9c0-1,0.6-1.7,1.7-1.7c1.6,0,3,0.1,3,0.1L384.9,72.9z"/>
	<path class="st4" d="M385.8,71.8h4.6v1.2h-3.2v1.3h2.8v1.2h-2.8v1.3h3.2V78h-4.5V71.8z"/>
	<path class="st4" d="M392.7,78h-1.4v-6.2h1.4V78z"/>
	<path class="st4" d="M397.9,71.8h1.5c0,0-1.7,5.6-1.8,6c-0.1,0.2-0.1,0.2-0.2,0.2h-1.9c-0.1,0-0.2,0-0.2-0.2c-0.1-0.4-1.8-6-1.8-6
		h1.5l1.4,4.9h0.2L397.9,71.8z"/>
	<path class="st4" d="M400.1,71.8h4.6v1.2h-3.2v1.3h2.8v1.2h-2.8v1.3h3.2V78h-4.5V71.8z"/>
	<path class="st4" d="M373.2,88.6h-1.4v-6.2h3.4c1.2,0,1.8,0.6,1.8,1.6v1.1c0,0.9-0.6,1.6-1.8,1.6h-2.1V88.6z M375.6,84.8v-0.5
		c0-0.5-0.2-0.7-0.8-0.7h-1.7v2h1.7C375.4,85.6,375.6,85.3,375.6,84.8z"/>
	<path class="st4" d="M379.3,88.6h-1.4v-6.2h3.4c1.2,0,1.8,0.7,1.8,1.6v0.8c0,0.7-0.3,1.2-0.9,1.5l1.1,2.3h-1.4l-1-2.1h-1.5V88.6z
		 M381.8,84.6v-0.3c0-0.5-0.2-0.7-0.8-0.7h-1.8v1.8h1.8C381.6,85.4,381.8,85.1,381.8,84.6z"/>
	<path class="st4" d="M384.1,87V84c0-1,0.6-1.7,1.8-1.7h1.9c1.2,0,1.8,0.7,1.8,1.7V87c0,0.9-0.6,1.7-1.8,1.7h-1.9
		C384.7,88.6,384.1,87.9,384.1,87z M385.5,84.2v2.5c0,0.5,0.2,0.7,0.8,0.7h1.2c0.5,0,0.8-0.2,0.8-0.7v-2.5c0-0.5-0.2-0.7-0.8-0.7
		h-1.2C385.7,83.5,385.5,83.7,385.5,84.2z"/>
	<path class="st4" d="M393.8,85.5l1.9,3.1h-1.6l-1.4-2.2h0l-1.4,2.2h-1.6l1.9-3.1l-2-3.1h1.7l1.4,2.1h0l1.4-2.1h1.7L393.8,85.5z"/>
	<path class="st4" d="M398.7,85.1l1.5-2.7h1.6l-2.4,4.3v1.9H398v-1.9l-2.4-4.3h1.6L398.7,85.1z"/>
</g>
<g>
	<path class="st4" d="M164.3,188H163v-6.2h3.4c1.2,0,1.8,0.7,1.8,1.6v0.8c0,0.7-0.3,1.2-0.9,1.5l1.1,2.3h-1.4l-1-2.1h-1.5V188z
		 M166.9,184v-0.3c0-0.5-0.2-0.7-0.8-0.7h-1.8v1.8h1.8C166.6,184.8,166.9,184.5,166.9,184z"/>
	<path class="st4" d="M169.2,181.8h4.6v1.2h-3.2v1.3h2.8v1.2h-2.8v1.3h3.2v1.2h-4.5V181.8z"/>
	<path class="st4" d="M179.4,183h-2.5c-0.5,0-0.8,0.2-0.8,0.7v2.4c0,0.5,0.2,0.8,0.8,0.8h2.5l0,1.1c0,0-1.5,0.1-3,0.1
		c-1.1,0-1.7-0.8-1.7-1.8v-2.9c0-1,0.6-1.7,1.7-1.7c1.6,0,3,0.1,3,0.1L179.4,183z"/>
	<path class="st4" d="M180.3,181.8h4.6v1.2h-3.2v1.3h2.8v1.2h-2.8v1.3h3.2v1.2h-4.5V181.8z"/>
	<path class="st4" d="M187.3,188h-1.4v-6.2h1.4V188z"/>
	<path class="st4" d="M192.4,181.8h1.5c0,0-1.7,5.6-1.8,6c-0.1,0.2-0.1,0.2-0.2,0.2H190c-0.1,0-0.2,0-0.2-0.2c-0.1-0.4-1.8-6-1.8-6
		h1.5l1.4,4.9h0.2L192.4,181.8z"/>
	<path class="st4" d="M194.6,181.8h4.6v1.2H196v1.3h2.8v1.2H196v1.3h3.2v1.2h-4.5V181.8z"/>
	<path class="st4" d="M167.7,198.6h-1.4v-6.2h3.4c1.2,0,1.8,0.6,1.8,1.6v1.1c0,0.9-0.6,1.6-1.8,1.6h-2.1V198.6z M170.1,194.8v-0.5
		c0-0.5-0.2-0.7-0.8-0.7h-1.7v2h1.7C169.9,195.6,170.1,195.3,170.1,194.8z"/>
	<path class="st4" d="M173.8,198.6h-1.4v-6.2h3.4c1.2,0,1.8,0.7,1.8,1.6v0.8c0,0.7-0.3,1.2-0.9,1.5l1.1,2.3h-1.4l-1-2.1h-1.5V198.6z
		 M176.3,194.7v-0.3c0-0.5-0.2-0.7-0.8-0.7h-1.8v1.8h1.8C176.1,195.4,176.3,195.1,176.3,194.7z"/>
	<path class="st4" d="M178.6,197v-2.9c0-1,0.6-1.7,1.8-1.7h1.9c1.2,0,1.8,0.7,1.8,1.7v2.9c0,0.9-0.6,1.7-1.8,1.7h-1.9
		C179.2,198.6,178.6,197.9,178.6,197z M180,194.2v2.5c0,0.5,0.2,0.7,0.8,0.7h1.2c0.5,0,0.8-0.2,0.8-0.7v-2.5c0-0.5-0.2-0.7-0.8-0.7
		h-1.2C180.2,193.6,180,193.7,180,194.2z"/>
	<path class="st4" d="M188.3,195.5l1.9,3.1h-1.6l-1.4-2.2h0l-1.4,2.2h-1.6l1.9-3.1l-2-3.1h1.7l1.4,2.1h0l1.4-2.1h1.7L188.3,195.5z"
		/>
	<path class="st4" d="M193.2,195.1l1.5-2.7h1.6l-2.4,4.3v1.9h-1.4v-1.9l-2.4-4.3h1.6L193.2,195.1z"/>
</g>
</svg>
